<svg width="16" height="16" viewBox="0 0 16 16" fill="none" xmlns="http://www.w3.org/2000/svg">
<path d="M14 3.91667V4.75C14 4.8875 13.8875 5 13.75 5H5.33333V5.16667C5.33333 5.44375 5.11042 5.66667 4.83333 5.66667H4.5C4.22292 5.66667 4 5.44375 4 5.16667V5H2.25C2.1125 5 2 4.8875 2 4.75V3.91667C2 3.77917 2.1125 3.66667 2.25 3.66667H4V3.5C4 3.22292 4.22292 3 4.5 3H4.83333C5.11042 3 5.33333 3.22292 5.33333 3.5V3.66667H13.75C13.8875 3.66667 14 3.77917 14 3.91667ZM13.75 7H12V6.83333C12 6.55625 11.7771 6.33333 11.5 6.33333H11.1667C10.8896 6.33333 10.6667 6.55625 10.6667 6.83333V7H2.25C2.1125 7 2 7.1125 2 7.25V8.08333C2 8.22083 2.1125 8.33333 2.25 8.33333H10.6667V8.5C10.6667 8.77708 10.8896 9 11.1667 9H11.5C11.7771 9 12 8.77708 12 8.5V8.33333H13.75C13.8875 8.33333 14 8.22083 14 8.08333V7.25C14 7.1125 13.8875 7 13.75 7ZM13.75 10.3333H8V10.1667C8 9.88958 7.77708 9.66667 7.5 9.66667H7.16667C6.88958 9.66667 6.66667 9.88958 6.66667 10.1667V10.3333H2.25C2.1125 10.3333 2 10.4458 2 10.5833V11.4167C2 11.5542 2.1125 11.6667 2.25 11.6667H6.66667V11.8333C6.66667 12.1104 6.88958 12.3333 7.16667 12.3333H7.5C7.77708 12.3333 8 12.1104 8 11.8333V11.6667H13.75C13.8875 11.6667 14 11.5542 14 11.4167V10.5833C14 10.4458 13.8875 10.3333 13.75 10.3333Z" fill="#EB517A"/>
</svg>