<svg width="16" height="16" viewBox="0 0 16 16" fill="none" xmlns="http://www.w3.org/2000/svg">
<path d="M3.54794 11.4247L3.82192 11.589L7.49315 13.6712L7.76712 13.8356C7.9315 13.9452 8.15068 14 8.31506 14C8.53424 14 8.69862 13.9452 8.86301 13.8356L9.13698 13.6712L12.7534 11.589L13.0822 11.4247C13.4109 11.2055 13.6301 10.8767 13.6301 10.4384V10.0548V5.89041V5.61644C13.6301 5.23288 13.4109 4.84932 13.0822 4.63014L12.8082 4.46575L9.13698 2.32877L8.86301 2.16438C8.69862 2.0548 8.47945 2 8.31506 2C8.09588 2 7.9315 2.0548 7.76712 2.16438L7.49315 2.32877L3.87671 4.46575L3.54794 4.63014C3.21918 4.84932 3 5.17808 3 5.61644V6V10.1644V10.4932C3 10.8767 3.21918 11.2603 3.54794 11.4247ZM4.64383 9.17808V6.93151V5.89041L5.52055 5.39726L7.43835 4.30137L8.26027 3.80822L9.08218 4.30137L11.0548 5.45206L11.8767 5.94521V6.93151V9.12329V10.1644L11 10.6575L9.08218 11.7534L8.26027 12.2466L7.43835 11.7534L5.52055 10.6575L4.64383 10.1644V9.17808Z" fill="#EB517A"/>
</svg>
