<svg width="16" height="16" viewBox="0 0 16 16" fill="none" xmlns="http://www.w3.org/2000/svg">
<path d="M1.87196 2.87997C2.4375 2.87997 2.89596 2.42151 2.89596 1.85597C2.89596 1.29043 2.4375 0.83197 1.87196 0.83197C1.30642 0.83197 0.847961 1.29043 0.847961 1.85597C0.847961 2.42151 1.30642 2.87997 1.87196 2.87997Z" fill="#EB517A"/>
<path d="M4.97593 0.83197C4.41593 0.83197 3.95193 1.29597 3.95193 1.85597C3.95193 2.41597 4.41593 2.87997 4.97593 2.87997C5.53593 2.87997 5.99993 2.41597 5.99993 1.85597C5.99993 1.29597 5.53593 0.83197 4.97593 0.83197ZM4.97593 2.71997C4.49593 2.71997 4.11193 2.33597 4.11193 1.85597C4.11193 1.37597 4.49593 0.99197 4.97593 0.99197C5.45593 0.99197 5.83993 1.37597 5.83993 1.85597C5.83993 2.33597 5.43993 2.71997 4.97593 2.71997Z" fill="#EB517A"/>
<path d="M8.06401 2.87997C8.62955 2.87997 9.08801 2.42151 9.08801 1.85597C9.08801 1.29043 8.62955 0.83197 8.06401 0.83197C7.49847 0.83197 7.04001 1.29043 7.04001 1.85597C7.04001 2.42151 7.49847 2.87997 8.06401 2.87997Z" fill="#EB517A"/>
<path d="M11.152 2.87997C11.7175 2.87997 12.176 2.42151 12.176 1.85597C12.176 1.29043 11.7175 0.83197 11.152 0.83197C10.5864 0.83197 10.128 1.29043 10.128 1.85597C10.128 2.42151 10.5864 2.87997 11.152 2.87997Z" fill="#EB517A"/>
<path d="M14.2399 2.87997C14.8055 2.87997 15.2639 2.42151 15.2639 1.85597C15.2639 1.29043 14.8055 0.83197 14.2399 0.83197C13.6744 0.83197 13.2159 1.29043 13.2159 1.85597C13.2159 2.42151 13.6744 2.87997 14.2399 2.87997Z" fill="#EB517A"/>
<path d="M1.87196 5.95199C2.4375 5.95199 2.89596 5.49353 2.89596 4.92799C2.89596 4.36245 2.4375 3.90399 1.87196 3.90399C1.30642 3.90399 0.847961 4.36245 0.847961 4.92799C0.847961 5.49353 1.30642 5.95199 1.87196 5.95199Z" fill="#EB517A"/>
<path d="M4.97593 3.90399C4.41593 3.90399 3.95193 4.36799 3.95193 4.92799C3.95193 5.48799 4.41593 5.95199 4.97593 5.95199C5.53593 5.95199 5.99993 5.48799 5.99993 4.92799C5.99993 4.36799 5.53593 3.90399 4.97593 3.90399ZM4.97593 5.79199C4.49593 5.79199 4.11193 5.40799 4.11193 4.92799C4.11193 4.44799 4.49593 4.06399 4.97593 4.06399C5.45593 4.06399 5.83993 4.44799 5.83993 4.92799C5.83993 5.40799 5.43993 5.79199 4.97593 5.79199Z" fill="#EB517A"/>
<path d="M8.06401 5.95199C8.62955 5.95199 9.08801 5.49353 9.08801 4.92799C9.08801 4.36245 8.62955 3.90399 8.06401 3.90399C7.49847 3.90399 7.04001 4.36245 7.04001 4.92799C7.04001 5.49353 7.49847 5.95199 8.06401 5.95199Z" fill="#EB517A"/>
<path d="M11.152 3.90399C10.592 3.90399 10.128 4.36799 10.128 4.92799C10.128 5.48799 10.592 5.95199 11.152 5.95199C11.712 5.95199 12.176 5.48799 12.176 4.92799C12.176 4.36799 11.712 3.90399 11.152 3.90399ZM11.152 5.79199C10.672 5.79199 10.288 5.40799 10.288 4.92799C10.288 4.44799 10.672 4.06399 11.152 4.06399C11.632 4.06399 12.016 4.44799 12.016 4.92799C12.016 5.40799 11.616 5.79199 11.152 5.79199Z" fill="#EB517A"/>
<path d="M14.2399 5.95199C14.8055 5.95199 15.2639 5.49353 15.2639 4.92799C15.2639 4.36245 14.8055 3.90399 14.2399 3.90399C13.6744 3.90399 13.2159 4.36245 13.2159 4.92799C13.2159 5.49353 13.6744 5.95199 14.2399 5.95199Z" fill="#EB517A"/>
<path d="M1.87196 6.97595C1.31196 6.97595 0.847961 7.43995 0.847961 7.99995C0.847961 8.55995 1.31196 9.02395 1.87196 9.02395C2.43196 9.02395 2.89596 8.55995 2.89596 7.99995C2.89596 7.43995 2.44796 6.97595 1.87196 6.97595ZM1.87196 8.86395C1.39196 8.86395 1.00796 8.47995 1.00796 7.99995C1.00796 7.51995 1.39196 7.13595 1.87196 7.13595C2.35196 7.13595 2.73596 7.51995 2.73596 7.99995C2.73596 8.47995 2.35196 8.86395 1.87196 8.86395Z" fill="#EB517A"/>
<path d="M4.97593 9.02395C5.54147 9.02395 5.99993 8.56549 5.99993 7.99995C5.99993 7.43441 5.54147 6.97595 4.97593 6.97595C4.4104 6.97595 3.95193 7.43441 3.95193 7.99995C3.95193 8.56549 4.4104 9.02395 4.97593 9.02395Z" fill="#EB517A"/>
<path d="M8.06401 9.02395C8.62955 9.02395 9.08801 8.56549 9.08801 7.99995C9.08801 7.43441 8.62955 6.97595 8.06401 6.97595C7.49847 6.97595 7.04001 7.43441 7.04001 7.99995C7.04001 8.56549 7.49847 9.02395 8.06401 9.02395Z" fill="#EB517A"/>
<path d="M11.152 6.97595C10.592 6.97595 10.128 7.43995 10.128 7.99995C10.128 8.55995 10.592 9.02395 11.152 9.02395C11.712 9.02395 12.176 8.55995 12.176 7.99995C12.176 7.43995 11.712 6.97595 11.152 6.97595ZM11.152 8.86395C10.672 8.86395 10.288 8.47995 10.288 7.99995C10.288 7.51995 10.672 7.13595 11.152 7.13595C11.632 7.13595 12.016 7.51995 12.016 7.99995C12.016 8.47995 11.616 8.86395 11.152 8.86395Z" fill="#EB517A"/>
<path d="M14.2399 9.02395C14.8055 9.02395 15.2639 8.56549 15.2639 7.99995C15.2639 7.43441 14.8055 6.97595 14.2399 6.97595C13.6744 6.97595 13.2159 7.43441 13.2159 7.99995C13.2159 8.56549 13.6744 9.02395 14.2399 9.02395Z" fill="#EB517A"/>
<path d="M1.87196 12.096C2.4375 12.096 2.89596 11.6375 2.89596 11.072C2.89596 10.5064 2.4375 10.048 1.87196 10.048C1.30642 10.048 0.847961 10.5064 0.847961 11.072C0.847961 11.6375 1.30642 12.096 1.87196 12.096Z" fill="#EB517A"/>
<path d="M4.97593 10.048C4.41593 10.048 3.95193 10.512 3.95193 11.072C3.95193 11.632 4.41593 12.096 4.97593 12.096C5.53593 12.096 5.99993 11.632 5.99993 11.072C5.99993 10.512 5.53593 10.048 4.97593 10.048ZM4.97593 11.936C4.49593 11.936 4.11193 11.552 4.11193 11.072C4.11193 10.592 4.49593 10.208 4.97593 10.208C5.45593 10.208 5.83993 10.592 5.83993 11.072C5.83993 11.552 5.43993 11.936 4.97593 11.936Z" fill="#EB517A"/>
<path d="M8.06401 10.048C7.50401 10.048 7.04001 10.512 7.04001 11.072C7.04001 11.632 7.50401 12.096 8.06401 12.096C8.62401 12.096 9.08801 11.632 9.08801 11.072C9.08801 10.512 8.62401 10.048 8.06401 10.048ZM8.06401 11.936C7.58401 11.936 7.20001 11.552 7.20001 11.072C7.20001 10.592 7.58401 10.208 8.06401 10.208C8.54401 10.208 8.92801 10.592 8.92801 11.072C8.92801 11.552 8.52801 11.936 8.06401 11.936Z" fill="#EB517A"/>
<path d="M11.152 12.096C11.7175 12.096 12.176 11.6375 12.176 11.072C12.176 10.5064 11.7175 10.048 11.152 10.048C10.5864 10.048 10.128 10.5064 10.128 11.072C10.128 11.6375 10.5864 12.096 11.152 12.096Z" fill="#EB517A"/>
<path d="M14.2399 10.048C13.6799 10.048 13.2159 10.512 13.2159 11.072C13.2159 11.632 13.6799 12.096 14.2399 12.096C14.7999 12.096 15.2639 11.632 15.2639 11.072C15.2639 10.512 14.7999 10.048 14.2399 10.048ZM14.2399 11.936C13.7599 11.936 13.3759 11.552 13.3759 11.072C13.3759 10.592 13.7599 10.208 14.2399 10.208C14.7199 10.208 15.1039 10.592 15.1039 11.072C15.1039 11.552 14.7039 11.936 14.2399 11.936Z" fill="#EB517A"/>
<path d="M1.87196 15.168C2.4375 15.168 2.89596 14.7095 2.89596 14.144C2.89596 13.5785 2.4375 13.12 1.87196 13.12C1.30642 13.12 0.847961 13.5785 0.847961 14.144C0.847961 14.7095 1.30642 15.168 1.87196 15.168Z" fill="#EB517A"/>
<path d="M4.97593 15.168C5.54147 15.168 5.99993 14.7095 5.99993 14.144C5.99993 13.5785 5.54147 13.12 4.97593 13.12C4.4104 13.12 3.95193 13.5785 3.95193 14.144C3.95193 14.7095 4.4104 15.168 4.97593 15.168Z" fill="#EB517A"/>
<path d="M8.06401 15.168C8.62955 15.168 9.08801 14.7095 9.08801 14.144C9.08801 13.5785 8.62955 13.12 8.06401 13.12C7.49847 13.12 7.04001 13.5785 7.04001 14.144C7.04001 14.7095 7.49847 15.168 8.06401 15.168Z" fill="#EB517A"/>
<path d="M11.152 15.168C11.7175 15.168 12.176 14.7095 12.176 14.144C12.176 13.5785 11.7175 13.12 11.152 13.12C10.5864 13.12 10.128 13.5785 10.128 14.144C10.128 14.7095 10.5864 15.168 11.152 15.168Z" fill="#EB517A"/>
<path d="M14.2399 13.12C13.6799 13.12 13.2159 13.584 13.2159 14.144C13.2159 14.704 13.6799 15.168 14.2399 15.168C14.7999 15.168 15.2639 14.704 15.2639 14.144C15.2639 13.584 14.7999 13.12 14.2399 13.12ZM14.2399 15.008C13.7599 15.008 13.3759 14.624 13.3759 14.144C13.3759 13.664 13.7599 13.28 14.2399 13.28C14.7199 13.28 15.1039 13.664 15.1039 14.144C15.1039 14.624 14.7039 15.008 14.2399 15.008Z" fill="#EB517A"/>
</svg>
