<svg width="16" height="16" viewBox="0 0 16 16" fill="none" xmlns="http://www.w3.org/2000/svg">
<path d="M4.56997 3.49437L6.75783 2.79349C6.73738 2.65332 6.73738 2.51314 6.73738 2.37297C6.73738 1.71214 7.00319 1.13141 7.43259 0.690864C8.37316 -0.230288 9.92716 -0.230288 10.8677 0.690864C11.7879 1.61202 11.8083 3.09387 10.8882 4.01502L12.3808 5.89737C12.7284 5.69712 13.1374 5.597 13.5668 5.597C14.8958 5.597 16 6.65832 16 7.95995C16 9.26158 14.9163 10.3229 13.5668 10.3229C13.1987 10.3229 12.8102 10.2428 12.4831 10.0826L11.154 11.9249C11.3585 12.1051 11.522 12.3054 11.6447 12.5457C12.1355 13.4668 11.9514 14.5882 11.2153 15.3091C10.2748 16.2303 8.72077 16.2303 7.78019 15.3091C7.26901 14.8085 7.00319 14.0876 7.10543 13.3267L5.1016 12.766C4.7131 13.627 3.85431 14.1877 2.89329 14.1877C1.54377 14.1877 0.460064 13.1064 0.460064 11.8048C0.460064 10.6834 1.27796 9.72215 2.38211 9.48185L2.21853 6.91865C1.62556 6.85857 1.09393 6.61827 0.705431 6.21777C-0.235144 5.29662 -0.235144 3.79474 0.705431 2.87359C1.64601 1.95244 3.17955 1.95244 4.12013 2.87359C4.30415 3.05382 4.46773 3.25407 4.56997 3.49437ZM6.98275 3.43429L4.79489 4.13517C4.83578 4.39549 4.83578 4.65582 4.79489 4.91615L6.65559 5.49687L7.55527 4.15519C7.3099 3.93492 7.12588 3.71464 6.98275 3.43429ZM7.92332 3.57447C8.23003 3.87484 8.67987 4.05507 9.15016 4.05507C9.62045 4.05507 10.0498 3.87484 10.377 3.57447C11.0313 2.91364 11.0313 1.83229 10.377 1.17146C9.70224 0.510638 8.59808 0.510638 7.92332 1.17146C7.61661 1.47184 7.41214 1.91239 7.41214 2.37297C7.41214 2.81352 7.59617 3.25407 7.92332 3.57447ZM7.78019 11.985L5.30607 8.78098L4.48818 10.0225C5.08115 10.5432 5.38786 11.3442 5.28562 12.1252L7.28946 12.6859C7.41214 12.4255 7.57572 12.1852 7.78019 11.985ZM4.85623 8.22028L3.60895 6.59825C3.38403 6.7184 3.15911 6.81852 2.91374 6.85857L3.07732 9.4418C3.36358 9.46183 3.64984 9.54193 3.89521 9.66208L4.85623 8.22028ZM4.16102 6.19775L5.26518 7.61952L6.26709 6.0776L4.59042 5.57697C4.48818 5.79725 4.3246 6.01752 4.16102 6.19775ZM5.69457 8.18023L8.31182 11.5645C8.55719 11.4443 8.80256 11.3442 9.08882 11.3041L8.94569 6.89862L6.9623 6.29787L5.69457 8.18023ZM8.1278 4.51564L7.3508 5.69712L8.92524 6.17772L8.88435 4.73592C8.61853 4.69587 8.35272 4.63579 8.1278 4.51564ZM9.62045 6.398L11.3789 6.93867C11.5016 6.69837 11.6447 6.49812 11.8288 6.3179L10.3361 4.43554C10.1112 4.55569 9.84537 4.65582 9.5591 4.7159L9.62045 6.398ZM11.1744 7.57947L9.64089 7.1189L9.76358 11.2841C10.0498 11.3242 10.3361 11.4043 10.5815 11.5244L11.9105 9.6821C11.3176 9.14143 11.0518 8.36045 11.1744 7.57947ZM15.3048 7.95995C15.3048 7.01877 14.5278 6.27785 13.5668 6.27785C13.0965 6.27785 12.6671 6.45807 12.3399 6.75845C11.8083 7.2791 11.6856 8.0801 12.0332 8.74093C12.8511 10.2829 15.3048 9.74218 15.3048 7.95995ZM8.27093 14.8285C9.66134 16.1902 11.931 14.5682 11.0313 12.8661C10.9086 12.6258 10.7246 12.4055 10.4792 12.2653C10.193 12.0651 9.84537 11.9449 9.49776 11.9449C9.10927 11.9449 8.76166 12.0651 8.4754 12.2653C7.61661 12.8861 7.51438 14.1076 8.27093 14.8285ZM1.15527 11.8048C1.15527 12.7459 1.93227 13.5069 2.89329 13.5069C4.40639 13.5069 5.16294 11.7046 4.14057 10.6433C3.05687 9.5219 1.15527 10.3029 1.15527 11.8048ZM3.62939 3.35419C2.95463 2.69337 1.87093 2.69337 1.19617 3.35419C0.521406 4.01502 0.521406 5.09637 1.19617 5.73717C1.87093 6.398 2.95463 6.398 3.62939 5.73717C4.30415 5.07635 4.30415 4.01502 3.62939 3.35419Z" fill="#EB517A"/>
</svg>
