<svg width="16" height="16" viewBox="0 0 16 16" fill="none" xmlns="http://www.w3.org/2000/svg">
<path fill-rule="evenodd" clip-rule="evenodd" d="M6.81215 2.47169L8.62282 5.48969L6.69015 8.06703C6.68282 8.07636 6.68682 8.08903 6.68148 8.09903C6.67348 8.11569 6.66682 8.12903 6.66482 8.14703C6.66415 8.15436 6.65682 8.15903 6.65682 8.16636C6.65682 8.17103 6.66148 8.17369 6.66148 8.17836C6.66282 8.19369 6.67082 8.20503 6.67548 8.21903C6.67948 8.23036 6.67415 8.24169 6.68082 8.25236L8.62282 11.4897L6.83548 13.873L3.02348 7.83836L6.81215 2.47169ZM8.91815 11.333L7.11748 8.33303H10.7288L12.5295 11.333H8.91815ZM10.7288 2.33303L12.5295 5.33303H8.91815L7.11748 2.33303H10.7288ZM12.9855 11.4884C12.9841 11.473 12.9768 11.4617 12.9715 11.4477C12.9675 11.4364 12.9728 11.425 12.9661 11.4144L11.0241 8.17703L12.9568 5.59969C12.9641 5.59036 12.9608 5.57769 12.9655 5.56769C12.9735 5.55103 12.9801 5.53769 12.9821 5.51969C12.9828 5.51236 12.9901 5.50769 12.9901 5.49969C12.9901 5.49569 12.9855 5.49303 12.9855 5.48836C12.9841 5.47303 12.9768 5.46169 12.9715 5.44769C12.9675 5.43636 12.9728 5.42503 12.9661 5.41436L10.9661 2.08103C10.9628 2.07436 10.9541 2.07436 10.9495 2.06903C10.9361 2.05103 10.9195 2.04236 10.8995 2.03169C10.8808 2.02103 10.8648 2.01103 10.8428 2.00836C10.8361 2.00703 10.8315 1.99969 10.8235 1.99969H6.82348C6.81815 1.99969 6.81548 2.00503 6.81015 2.00569C6.79482 2.00703 6.78348 2.01369 6.76882 2.01903C6.75815 2.02303 6.74748 2.01769 6.73815 2.02369C6.73148 2.02769 6.73082 2.03636 6.72548 2.04103C6.71548 2.04836 6.70748 2.05369 6.70015 2.06303C6.69682 2.06703 6.69015 2.06636 6.68748 2.07036L2.68748 7.73703C2.68082 7.74703 2.68482 7.75903 2.68015 7.76903C2.67148 7.78969 2.66748 7.80703 2.66682 7.82969C2.66615 7.85169 2.66882 7.86903 2.67682 7.88903C2.68082 7.90036 2.67615 7.91236 2.68282 7.92236L6.68282 14.2557C6.68748 14.263 6.69548 14.2657 6.70082 14.2724C6.70615 14.279 6.71082 14.2837 6.71682 14.2897C6.72082 14.2924 6.72015 14.2977 6.72348 14.3004C6.72682 14.3024 6.73082 14.3017 6.73415 14.3037C6.76082 14.321 6.79148 14.333 6.82348 14.333H10.8235C10.8748 14.333 10.9161 14.3077 10.9468 14.2717C10.9495 14.2684 10.9541 14.2697 10.9568 14.2664L12.9568 11.5997C12.9641 11.5904 12.9608 11.5777 12.9655 11.5677C12.9735 11.551 12.9801 11.5377 12.9821 11.5197C12.9828 11.5124 12.9901 11.5077 12.9901 11.4997C12.9901 11.4957 12.9855 11.493 12.9855 11.4884Z" fill="#EB517A"/>
</svg>
