<svg width="14" height="14" viewBox="0 0 14 14" fill="none" xmlns="http://www.w3.org/2000/svg">
<path d="M9.65625 9.65625L5.65625 7.5V11.8438L9.65625 9.65625ZM13.6562 7V12.3438C13.6562 12.6979 13.5208 13.0104 13.25 13.2812C13 13.5312 12.6979 13.6562 12.3438 13.6562H1.65625C1.30208 13.6562 0.989583 13.5312 0.71875 13.2812C0.46875 13.0104 0.34375 12.6979 0.34375 12.3438V7C0.34375 6.64583 0.46875 6.33333 0.71875 6.0625C0.989583 5.79167 1.30208 5.65625 1.65625 5.65625H12.3438C12.6979 5.65625 13 5.79167 13.25 6.0625C13.5208 6.33333 13.6562 6.64583 13.6562 7ZM11 0.34375V1.65625H3V0.34375H11ZM12.3438 4.34375H1.65625V3H12.3438V4.34375Z" fill="#EB517A"/>
</svg>
