<svg width="16" height="16" viewBox="0 0 16 16" fill="none" xmlns="http://www.w3.org/2000/svg">
<path d="M14.7045 14.2939L14.708 15.294L1.20001 15.345L1.19601 14.3449L14.7045 14.2939Z" fill="#EB517A"/>
<path d="M10.351 2.05603C10.7275 2.07953 10.621 1.98053 10.7455 2.24103C10.8035 2.92203 10.8035 2.92203 10.977 4.96453C11.037 5.67303 11.015 5.41503 11.0425 5.73803C11.074 5.55453 11.1055 5.37053 11.137 5.18703C11.185 4.90553 11.591 4.91153 11.6305 5.19403C11.6935 5.63903 11.7565 6.08403 11.819 6.52903C11.9515 7.46653 11.902 7.11603 11.9675 7.58053C12.027 7.37353 12.086 7.16703 12.1455 6.96003C12.22 6.69803 12.601 6.72803 12.6335 6.99853C12.6915 7.47253 12.6915 7.47253 12.865 8.89553L12.8785 9.00403C12.9275 8.68953 12.976 8.37503 13.0255 8.06053L13.038 8.01103C13.125 7.78003 13.125 7.78003 13.385 7.08703C13.6455 6.39353 13.6455 6.39353 13.732 6.16253L14.2005 6.33853C14.1135 6.57003 14.0265 6.80153 13.9395 7.03353C13.798 7.40953 13.657 7.78603 13.5155 8.16253C13.446 8.60803 13.3765 9.05353 13.3075 9.49903C13.1485 10.5205 13.1485 10.5205 13.0955 10.861C13.0505 11.148 12.635 11.141 12.6 10.853C12.542 10.3785 12.542 10.3785 12.369 8.95603C12.303 8.41803 12.3305 8.64203 12.2865 8.28303C12.2325 8.47153 12.1785 8.66003 12.125 8.84853C12.0505 9.10803 11.6745 9.08203 11.637 8.81453C11.574 8.37103 11.574 8.37103 11.3865 7.03953L11.3595 6.85053C11.3085 7.15103 11.257 7.45153 11.2055 7.75203C11.156 8.04103 10.735 8.02353 10.71 7.73103C10.652 7.05003 10.652 7.05003 10.479 5.00703C10.411 4.20853 10.4405 4.55653 10.39 3.96253C10.276 4.49953 10.1615 5.03603 10.047 5.57303C9.99205 5.83203 9.62455 5.83853 9.56005 5.58153C9.49305 5.31353 9.42605 5.04553 9.35905 4.77803C9.26255 5.22703 9.31605 4.97803 9.19905 5.52453C8.91005 6.87453 8.91005 6.87453 8.81355 7.32453C8.75605 7.59303 8.36955 7.58553 8.32255 7.31453C8.28905 7.12103 8.25555 6.92753 8.22205 6.73353C8.12805 7.16453 8.18355 6.91003 8.05555 7.49803C7.72755 9.01003 7.72755 9.01003 7.61805 9.51353C7.56255 9.76953 7.20105 9.77903 7.13255 9.52603C7.06855 9.29053 7.00455 9.05503 6.94055 8.81953L6.88605 9.07503C6.68355 10.0235 6.68355 10.0235 6.61605 10.3395C6.56155 10.596 6.19955 10.606 6.13055 10.3535C6.03905 10.019 6.03905 10.019 5.76405 9.01603C5.64355 8.57553 5.70355 8.79503 5.58405 8.35803L5.57855 8.37003C5.36205 8.86253 5.36205 8.86253 5.28955 9.02653C5.19105 9.24953 4.86405 9.21453 4.81555 8.97553C4.77055 8.75253 4.72505 8.52953 4.67955 8.30653C4.59855 8.72103 4.64705 8.47403 4.53505 9.04653C4.24605 10.524 4.24605 10.524 4.14955 11.0165C4.09605 11.2885 3.70555 11.2845 3.65805 11.0115C3.60755 10.722 3.55705 10.433 3.50705 10.1435C3.44505 10.378 3.48905 10.211 3.37505 10.643C3.05655 11.847 3.05655 11.847 2.95055 12.2485C2.88655 12.4915 2.54355 12.498 2.47005 12.2575C2.42105 12.097 2.44955 12.1915 2.38355 11.974C2.31705 12.3345 2.25055 12.6955 2.18405 13.0565L1.69205 12.966C1.74055 12.704 1.78855 12.442 1.83705 12.1795C1.91705 11.7445 1.99755 11.3095 2.07755 10.8745C2.12505 10.617 2.48605 10.5965 2.56255 10.847C2.60555 10.988 2.64855 11.1295 2.69205 11.271C2.82105 10.781 2.75455 11.0325 2.89155 10.5155C3.20955 9.31153 3.20955 9.31153 3.31555 8.91053C3.38405 8.65103 3.75755 8.66703 3.80355 8.93153C3.84205 9.15203 3.88005 9.37253 3.91855 9.59303C3.98055 9.27653 3.93855 9.49053 4.04455 8.95053C4.33355 7.47303 4.33355 7.47303 4.43005 6.98053C4.48255 6.71253 4.86555 6.71103 4.92005 6.97903C4.96855 7.21603 4.96855 7.21603 5.11305 7.92753L5.14905 8.10503C5.23605 7.90703 5.32305 7.70953 5.41005 7.51153C5.50505 7.29603 5.81805 7.31953 5.88005 7.54653C5.97155 7.88103 5.97155 7.88103 6.24655 8.88403C6.33855 9.22053 6.30705 9.10503 6.34155 9.23103L6.39705 8.97053C6.59905 8.02253 6.59905 8.02253 6.66655 7.70603C6.72155 7.44953 7.08355 7.43953 7.15255 7.69303C7.21705 7.93103 7.28205 8.16903 7.34655 8.40753L7.45855 7.89203C7.64055 7.05353 7.82255 6.21503 8.00505 5.37653C8.06305 5.10803 8.44855 5.11603 8.49555 5.38653C8.52855 5.57703 8.56155 5.76753 8.59455 5.95853C8.64605 5.71753 8.60805 5.89703 8.71005 5.42003C8.99905 4.07003 8.99905 4.07003 9.09555 3.62053C9.15105 3.36153 9.51805 3.35503 9.58255 3.61203C9.64955 3.87903 9.71605 4.14603 9.78305 4.41303C9.84755 4.10903 9.80705 4.30003 9.90505 3.83953C10.1655 2.61753 10.1655 2.61753 10.252 2.21003L10.351 2.05603Z" fill="#EB517A"/>
</svg>
