<svg width="16" height="16" viewBox="0 0 16 16" fill="none" xmlns="http://www.w3.org/2000/svg">
<path d="M2.14707 7V2.436H3.17607V6.132H4.98207V7H2.14707ZM5.93011 7V2.436H8.80711V3.304H6.95911V4.361H8.54111V5.229H6.95911V7H5.93011ZM9.76101 7V2.436H11.329C11.581 2.436 11.8167 2.46167 12.036 2.513C12.2553 2.55967 12.4467 2.64133 12.61 2.758C12.7733 2.87 12.9017 3.02167 12.995 3.213C13.093 3.39967 13.142 3.63067 13.142 3.906C13.142 4.172 13.093 4.403 12.995 4.599C12.9017 4.795 12.7733 4.956 12.61 5.082C12.4467 5.208 12.2577 5.30133 12.043 5.362C11.8283 5.42267 11.5997 5.453 11.357 5.453H10.79V7H9.76101ZM10.79 4.634H11.294C11.854 4.634 12.134 4.39133 12.134 3.906C12.134 3.668 12.0593 3.5 11.91 3.402C11.7607 3.304 11.546 3.255 11.266 3.255H10.79V4.634Z" fill="#EB517A"/>
<path d="M1.76425 13V8.436H2.79325V12.132H4.59925V13H1.76425ZM7.14937 13.084C6.84137 13.084 6.55904 13.0303 6.30237 12.923C6.05037 12.811 5.83337 12.6523 5.65137 12.447C5.46937 12.2417 5.32704 11.992 5.22437 11.698C5.12637 11.404 5.07737 11.0703 5.07737 10.697C5.07737 10.3237 5.12637 9.99233 5.22437 9.703C5.32704 9.409 5.46937 9.164 5.65137 8.968C5.83337 8.76733 6.05037 8.61567 6.30237 8.513C6.55904 8.40567 6.84137 8.352 7.14937 8.352C7.45737 8.352 7.73737 8.40567 7.98937 8.513C8.24604 8.61567 8.46537 8.76733 8.64737 8.968C8.82937 9.16867 8.96937 9.416 9.06737 9.71C9.17004 9.99933 9.22137 10.3283 9.22137 10.697C9.22137 11.0703 9.17004 11.404 9.06737 11.698C8.96937 11.992 8.82937 12.2417 8.64737 12.447C8.46537 12.6523 8.24604 12.811 7.98937 12.923C7.73737 13.0303 7.45737 13.084 7.14937 13.084ZM7.14937 12.195C7.46204 12.195 7.70937 12.062 7.89137 11.796C8.07337 11.5253 8.16437 11.159 8.16437 10.697C8.16437 10.2397 8.07337 9.88267 7.89137 9.626C7.70937 9.36933 7.46204 9.241 7.14937 9.241C6.8367 9.241 6.58937 9.36933 6.40737 9.626C6.22537 9.88267 6.13437 10.2397 6.13437 10.697C6.13437 11.159 6.22537 11.5253 6.40737 11.796C6.58937 12.062 6.8367 12.195 7.14937 12.195ZM12.1435 13.084C11.8542 13.084 11.5812 13.035 11.3245 12.937C11.0679 12.8343 10.8415 12.685 10.6455 12.489C10.4542 12.293 10.3025 12.0503 10.1905 11.761C10.0785 11.467 10.0225 11.1287 10.0225 10.746C10.0225 10.368 10.0809 10.032 10.1975 9.738C10.3142 9.43933 10.4705 9.18733 10.6665 8.982C10.8625 8.77667 11.0912 8.62033 11.3525 8.513C11.6139 8.40567 11.8892 8.352 12.1785 8.352C12.4725 8.352 12.7362 8.41267 12.9695 8.534C13.2029 8.65067 13.3965 8.78833 13.5505 8.947L13.0045 9.605C12.8879 9.49767 12.7642 9.41133 12.6335 9.346C12.5075 9.276 12.3629 9.241 12.1995 9.241C12.0455 9.241 11.8985 9.276 11.7585 9.346C11.6232 9.41133 11.5042 9.507 11.4015 9.633C11.3035 9.759 11.2242 9.913 11.1635 10.095C11.1075 10.277 11.0795 10.4823 11.0795 10.711C11.0795 11.1823 11.1799 11.5487 11.3805 11.81C11.5812 12.0667 11.8495 12.195 12.1855 12.195C12.3722 12.195 12.5379 12.1553 12.6825 12.076C12.8319 11.992 12.9625 11.8893 13.0745 11.768L13.6205 12.412C13.2379 12.86 12.7455 13.084 12.1435 13.084Z" fill="#EB517A"/>
</svg>
