<svg width="16" height="16" viewBox="0 0 16 16" fill="none" xmlns="http://www.w3.org/2000/svg">
<path d="M2.14707 7V2.436H3.17607V6.132H4.98207V7H2.14707ZM5.93011 7V2.436H8.80711V3.304H6.95911V4.361H8.54111V5.229H6.95911V7H5.93011ZM9.76101 7V2.436H11.329C11.581 2.436 11.8167 2.46167 12.036 2.513C12.2553 2.55967 12.4467 2.64133 12.61 2.758C12.7733 2.87 12.9017 3.02167 12.995 3.213C13.093 3.39967 13.142 3.63067 13.142 3.906C13.142 4.172 13.093 4.403 12.995 4.599C12.9017 4.795 12.7733 4.956 12.61 5.082C12.4467 5.208 12.2577 5.30133 12.043 5.362C11.8283 5.42267 11.5997 5.453 11.357 5.453H10.79V7H9.76101ZM10.79 4.634H11.294C11.854 4.634 12.134 4.39133 12.134 3.906C12.134 3.668 12.0593 3.5 11.91 3.402C11.7607 3.304 11.546 3.255 11.266 3.255H10.79V4.634Z" fill="#EB517A"/>
<path d="M1.66172 13V8.436H3.22972C3.48172 8.436 3.71738 8.46167 3.93672 8.513C4.15605 8.55967 4.34738 8.64133 4.51072 8.758C4.67405 8.87 4.80238 9.02167 4.89572 9.213C4.99372 9.39967 5.04272 9.63067 5.04272 9.906C5.04272 10.172 4.99372 10.403 4.89572 10.599C4.80238 10.795 4.67405 10.956 4.51072 11.082C4.34738 11.208 4.15838 11.3013 3.94372 11.362C3.72905 11.4227 3.50038 11.453 3.25772 11.453H2.69072V13H1.66172ZM2.69072 10.634H3.19472C3.75472 10.634 4.03472 10.3913 4.03472 9.906C4.03472 9.668 3.96005 9.5 3.81072 9.402C3.66138 9.304 3.44672 9.255 3.16672 9.255H2.69072V10.634ZM7.31628 13.084C7.01761 13.084 6.71894 13.0303 6.42028 12.923C6.12628 12.811 5.86261 12.6453 5.62928 12.426L6.21728 11.719C6.38061 11.859 6.56028 11.9733 6.75628 12.062C6.95694 12.1507 7.15294 12.195 7.34428 12.195C7.55894 12.195 7.71761 12.1553 7.82028 12.076C7.92761 11.9967 7.98128 11.8893 7.98128 11.754C7.98128 11.684 7.96494 11.6233 7.93228 11.572C7.90428 11.5207 7.85994 11.4763 7.79928 11.439C7.74328 11.397 7.67328 11.3597 7.58928 11.327C7.50994 11.2897 7.42128 11.25 7.32328 11.208L6.72828 10.956C6.61161 10.9093 6.49728 10.8487 6.38528 10.774C6.27794 10.6993 6.17994 10.613 6.09128 10.515C6.00728 10.4123 5.93961 10.2957 5.88828 10.165C5.83694 10.0297 5.81128 9.878 5.81128 9.71C5.81128 9.52333 5.85094 9.34833 5.93028 9.185C6.00961 9.017 6.12161 8.87233 6.26628 8.751C6.41094 8.625 6.58128 8.527 6.77728 8.457C6.97794 8.387 7.19728 8.352 7.43528 8.352C7.70128 8.352 7.96261 8.40333 8.21928 8.506C8.48061 8.60867 8.70928 8.758 8.90528 8.954L8.38028 9.605C8.23094 9.48833 8.08161 9.39967 7.93228 9.339C7.78294 9.27367 7.61728 9.241 7.43528 9.241C7.25794 9.241 7.11561 9.27833 7.00828 9.353C6.90561 9.423 6.85428 9.52333 6.85428 9.654C6.85428 9.724 6.87061 9.78467 6.90328 9.836C6.94061 9.88267 6.98961 9.927 7.05028 9.969C7.11561 10.0063 7.19028 10.0437 7.27428 10.081C7.35828 10.1137 7.44928 10.151 7.54728 10.193L8.13528 10.431C8.41528 10.543 8.63461 10.697 8.79328 10.893C8.95661 11.089 9.03828 11.348 9.03828 11.67C9.03828 11.8613 8.99861 12.0433 8.91928 12.216C8.84461 12.384 8.73261 12.5333 8.58328 12.664C8.43861 12.79 8.25894 12.8927 8.04428 12.972C7.82961 13.0467 7.58694 13.084 7.31628 13.084ZM9.97293 13V8.436H11.2609C11.6109 8.436 11.9259 8.48033 12.2059 8.569C12.4859 8.65767 12.7263 8.79533 12.9269 8.982C13.1276 9.164 13.2816 9.39733 13.3889 9.682C13.4963 9.96667 13.5499 10.305 13.5499 10.697C13.5499 11.089 13.4963 11.4297 13.3889 11.719C13.2816 12.0083 13.1299 12.2487 12.9339 12.44C12.7379 12.6267 12.5023 12.7667 12.2269 12.86C11.9563 12.9533 11.6529 13 11.3169 13H9.97293ZM11.0019 12.167H11.1979C11.3939 12.167 11.5713 12.1413 11.7299 12.09C11.8886 12.0387 12.0239 11.957 12.1359 11.845C12.2479 11.7283 12.3343 11.5767 12.3949 11.39C12.4603 11.2033 12.4929 10.9723 12.4929 10.697C12.4929 10.4263 12.4603 10.2 12.3949 10.018C12.3343 9.83133 12.2479 9.68433 12.1359 9.577C12.0239 9.465 11.8886 9.38567 11.7299 9.339C11.5713 9.29233 11.3939 9.269 11.1979 9.269H11.0019V12.167Z" fill="#EB517A"/>
</svg>
