<svg width="16" height="16" viewBox="0 0 16 16" fill="none" xmlns="http://www.w3.org/2000/svg">
<path d="M2.14707 7V2.436H3.17607V6.132H4.98207V7H2.14707ZM5.93011 7V2.436H8.80711V3.304H6.95911V4.361H8.54111V5.229H6.95911V7H5.93011ZM9.76101 7V2.436H11.329C11.581 2.436 11.8167 2.46167 12.036 2.513C12.2553 2.55967 12.4467 2.64133 12.61 2.758C12.7733 2.87 12.9017 3.02167 12.995 3.213C13.093 3.39967 13.142 3.63067 13.142 3.906C13.142 4.172 13.093 4.403 12.995 4.599C12.9017 4.795 12.7733 4.956 12.61 5.082C12.4467 5.208 12.2577 5.30133 12.043 5.362C11.8283 5.42267 11.5997 5.453 11.357 5.453H10.79V7H9.76101ZM10.79 4.634H11.294C11.854 4.634 12.134 4.39133 12.134 3.906C12.134 3.668 12.0593 3.5 11.91 3.402C11.7607 3.304 11.546 3.255 11.266 3.255H10.79V4.634Z" fill="#EB517A"/>
<path d="M7.48718 13.084C7.18851 13.084 6.88984 13.0303 6.59118 12.923C6.29718 12.811 6.03351 12.6453 5.80018 12.426L6.38818 11.719C6.55151 11.859 6.73118 11.9733 6.92718 12.062C7.12784 12.1507 7.32384 12.195 7.51518 12.195C7.72984 12.195 7.88851 12.1553 7.99118 12.076C8.09851 11.9967 8.15218 11.8893 8.15218 11.754C8.15218 11.684 8.13584 11.6233 8.10318 11.572C8.07518 11.5207 8.03084 11.4763 7.97018 11.439C7.91418 11.397 7.84418 11.3597 7.76018 11.327C7.68084 11.2897 7.59218 11.25 7.49418 11.208L6.89918 10.956C6.78251 10.9093 6.66818 10.8487 6.55618 10.774C6.44884 10.6993 6.35084 10.613 6.26218 10.515C6.17818 10.4123 6.11051 10.2957 6.05918 10.165C6.00784 10.0297 5.98218 9.878 5.98218 9.71C5.98218 9.52333 6.02184 9.34833 6.10118 9.185C6.18051 9.017 6.29251 8.87233 6.43718 8.751C6.58184 8.625 6.75218 8.527 6.94818 8.457C7.14884 8.387 7.36818 8.352 7.60618 8.352C7.87218 8.352 8.13351 8.40333 8.39018 8.506C8.65151 8.60867 8.88018 8.758 9.07618 8.954L8.55118 9.605C8.40184 9.48833 8.25251 9.39967 8.10318 9.339C7.95384 9.27367 7.78818 9.241 7.60618 9.241C7.42884 9.241 7.28651 9.27833 7.17918 9.353C7.07651 9.423 7.02518 9.52333 7.02518 9.654C7.02518 9.724 7.04151 9.78467 7.07418 9.836C7.11151 9.88267 7.16051 9.927 7.22118 9.969C7.28651 10.0063 7.36118 10.0437 7.44518 10.081C7.52918 10.1137 7.62018 10.151 7.71818 10.193L8.30618 10.431C8.58618 10.543 8.80551 10.697 8.96418 10.893C9.12751 11.089 9.20918 11.348 9.20918 11.67C9.20918 11.8613 9.16951 12.0433 9.09018 12.216C9.01551 12.384 8.90351 12.5333 8.75418 12.664C8.60951 12.79 8.42984 12.8927 8.21518 12.972C8.00051 13.0467 7.75784 13.084 7.48718 13.084Z" fill="#EB517A"/>
</svg>
