<svg width="16" height="16" viewBox="0 0 16 16" fill="none" xmlns="http://www.w3.org/2000/svg">
<path d="M2.14707 7V2.436H3.17607V6.132H4.98207V7H2.14707ZM5.93011 7V2.436H8.80711V3.304H6.95911V4.361H8.54111V5.229H6.95911V7H5.93011ZM9.76101 7V2.436H11.329C11.581 2.436 11.8167 2.46167 12.036 2.513C12.2553 2.55967 12.4467 2.64133 12.61 2.758C12.7733 2.87 12.9017 3.02167 12.995 3.213C13.093 3.39967 13.142 3.63067 13.142 3.906C13.142 4.172 13.093 4.403 12.995 4.599C12.9017 4.795 12.7733 4.956 12.61 5.082C12.4467 5.208 12.2577 5.30133 12.043 5.362C11.8283 5.42267 11.5997 5.453 11.357 5.453H10.79V7H9.76101ZM10.79 4.634H11.294C11.854 4.634 12.134 4.39133 12.134 3.906C12.134 3.668 12.0593 3.5 11.91 3.402C11.7607 3.304 11.546 3.255 11.266 3.255H10.79V4.634Z" fill="#EB517A"/>
<path d="M2.93688 13.06C2.72354 13.06 2.51021 13.0217 2.29688 12.945C2.08688 12.865 1.89854 12.7467 1.73188 12.59L2.15188 12.085C2.26854 12.185 2.39688 12.2667 2.53688 12.33C2.68021 12.3933 2.82021 12.425 2.95688 12.425C3.11021 12.425 3.22354 12.3967 3.29688 12.34C3.37354 12.2833 3.41188 12.2067 3.41188 12.11C3.41188 12.06 3.40021 12.0167 3.37688 11.98C3.35688 11.9433 3.32521 11.9117 3.28188 11.885C3.24188 11.855 3.19188 11.8283 3.13188 11.805C3.07521 11.7783 3.01188 11.75 2.94188 11.72L2.51688 11.54C2.43354 11.5067 2.35188 11.4633 2.27188 11.41C2.19521 11.3567 2.12521 11.295 2.06188 11.225C2.00188 11.1517 1.95354 11.0683 1.91688 10.975C1.88021 10.8783 1.86188 10.77 1.86188 10.65C1.86188 10.5167 1.89021 10.3917 1.94688 10.275C2.00354 10.155 2.08354 10.0517 2.18688 9.965C2.29021 9.875 2.41188 9.805 2.55188 9.755C2.69521 9.705 2.85188 9.68 3.02188 9.68C3.21188 9.68 3.39854 9.71667 3.58188 9.79C3.76854 9.86333 3.93188 9.97 4.07188 10.11L3.69688 10.575C3.59021 10.4917 3.48354 10.4283 3.37688 10.385C3.27021 10.3383 3.15188 10.315 3.02188 10.315C2.89521 10.315 2.79354 10.3417 2.71688 10.395C2.64354 10.445 2.60688 10.5167 2.60688 10.61C2.60688 10.66 2.61854 10.7033 2.64188 10.74C2.66854 10.7733 2.70354 10.805 2.74688 10.835C2.79354 10.8617 2.84688 10.8883 2.90688 10.915C2.96688 10.9383 3.03188 10.965 3.10188 10.995L3.52188 11.165C3.72188 11.245 3.87854 11.355 3.99188 11.495C4.10854 11.635 4.16688 11.82 4.16688 12.05C4.16688 12.1867 4.13854 12.3167 4.08188 12.44C4.02854 12.56 3.94854 12.6667 3.84188 12.76C3.73854 12.85 3.61021 12.9233 3.45688 12.98C3.30354 13.0333 3.13021 13.06 2.93688 13.06ZM4.8802 13V9.74H6.0002C6.1802 9.74 6.34853 9.75833 6.5052 9.795C6.66186 9.82833 6.79853 9.88667 6.9152 9.97C7.03186 10.05 7.12353 10.1583 7.1902 10.295C7.2602 10.4283 7.2952 10.5933 7.2952 10.79C7.2952 10.98 7.2602 11.145 7.1902 11.285C7.12353 11.425 7.03186 11.54 6.9152 11.63C6.79853 11.72 6.66353 11.7867 6.5102 11.83C6.35686 11.8733 6.19353 11.895 6.0202 11.895H5.6152V13H4.8802ZM5.6152 11.31H5.9752C6.3752 11.31 6.5752 11.1367 6.5752 10.79C6.5752 10.62 6.52186 10.5 6.4152 10.43C6.30853 10.36 6.1552 10.325 5.9552 10.325H5.6152V11.31ZM8.01871 13V9.74H10.0587V10.36H8.75371V11.015H9.86371V11.63H8.75371V12.38H10.1087V13H8.01871ZM12.278 13.06C12.0713 13.06 11.8763 13.025 11.693 12.955C11.5096 12.8817 11.348 12.775 11.208 12.635C11.0713 12.495 10.963 12.3217 10.883 12.115C10.803 11.905 10.763 11.6633 10.763 11.39C10.763 11.12 10.8046 10.88 10.888 10.67C10.9713 10.4567 11.083 10.2767 11.223 10.13C11.363 9.98333 11.5263 9.87167 11.713 9.795C11.8996 9.71833 12.0963 9.68 12.303 9.68C12.513 9.68 12.7013 9.72333 12.868 9.81C13.0346 9.89333 13.173 9.99167 13.283 10.105L12.893 10.575C12.8096 10.4983 12.7213 10.4367 12.628 10.39C12.538 10.34 12.4346 10.315 12.318 10.315C12.208 10.315 12.103 10.34 12.003 10.39C11.9063 10.4367 11.8213 10.505 11.748 10.595C11.678 10.685 11.6213 10.795 11.578 10.925C11.538 11.055 11.518 11.2017 11.518 11.365C11.518 11.7017 11.5896 11.9633 11.733 12.15C11.8763 12.3333 12.068 12.425 12.308 12.425C12.4413 12.425 12.5596 12.3967 12.663 12.34C12.7696 12.28 12.863 12.2067 12.943 12.12L13.333 12.58C13.0596 12.9 12.708 13.06 12.278 13.06Z" fill="#EB517A"/>
</svg>
