<svg width="16" height="16" viewBox="0 0 16 16" fill="none" xmlns="http://www.w3.org/2000/svg">
<path d="M2.14707 7V2.436H3.17607V6.132H4.98207V7H2.14707ZM5.93011 7V2.436H8.80711V3.304H6.95911V4.361H8.54111V5.229H6.95911V7H5.93011ZM9.76101 7V2.436H11.329C11.581 2.436 11.8167 2.46167 12.036 2.513C12.2553 2.55967 12.4467 2.64133 12.61 2.758C12.7733 2.87 12.9017 3.02167 12.995 3.213C13.093 3.39967 13.142 3.63067 13.142 3.906C13.142 4.172 13.093 4.403 12.995 4.599C12.9017 4.795 12.7733 4.956 12.61 5.082C12.4467 5.208 12.2577 5.30133 12.043 5.362C11.8283 5.42267 11.5997 5.453 11.357 5.453H10.79V7H9.76101ZM10.79 4.634H11.294C11.854 4.634 12.134 4.39133 12.134 3.906C12.134 3.668 12.0593 3.5 11.91 3.402C11.7607 3.304 11.546 3.255 11.266 3.255H10.79V4.634Z" fill="#EB517A"/>
<path d="M5.04722 13V9.304H3.79422V8.436H7.33622V9.304H6.08322V13H5.04722ZM9.42313 13.084C9.12447 13.084 8.8258 13.0303 8.52713 12.923C8.23313 12.811 7.96947 12.6453 7.73613 12.426L8.32413 11.719C8.48747 11.859 8.66713 11.9733 8.86313 12.062C9.0638 12.1507 9.2598 12.195 9.45113 12.195C9.6658 12.195 9.82447 12.1553 9.92713 12.076C10.0345 11.9967 10.0881 11.8893 10.0881 11.754C10.0881 11.684 10.0718 11.6233 10.0391 11.572C10.0111 11.5207 9.9668 11.4763 9.90613 11.439C9.85013 11.397 9.78013 11.3597 9.69613 11.327C9.6168 11.2897 9.52813 11.25 9.43013 11.208L8.83513 10.956C8.71847 10.9093 8.60413 10.8487 8.49213 10.774C8.3848 10.6993 8.2868 10.613 8.19813 10.515C8.11413 10.4123 8.04647 10.2957 7.99513 10.165C7.9438 10.0297 7.91813 9.878 7.91813 9.71C7.91813 9.52333 7.9578 9.34833 8.03713 9.185C8.11647 9.017 8.22847 8.87233 8.37313 8.751C8.5178 8.625 8.68813 8.527 8.88413 8.457C9.0848 8.387 9.30413 8.352 9.54213 8.352C9.80813 8.352 10.0695 8.40333 10.3261 8.506C10.5875 8.60867 10.8161 8.758 11.0121 8.954L10.4871 9.605C10.3378 9.48833 10.1885 9.39967 10.0391 9.339C9.8898 9.27367 9.72413 9.241 9.54213 9.241C9.3648 9.241 9.22247 9.27833 9.11513 9.353C9.01247 9.423 8.96113 9.52333 8.96113 9.654C8.96113 9.724 8.97747 9.78467 9.01013 9.836C9.04747 9.88267 9.09647 9.927 9.15713 9.969C9.22247 10.0063 9.29713 10.0437 9.38113 10.081C9.46513 10.1137 9.55613 10.151 9.65413 10.193L10.2421 10.431C10.5221 10.543 10.7415 10.697 10.9001 10.893C11.0635 11.089 11.1451 11.348 11.1451 11.67C11.1451 11.8613 11.1055 12.0433 11.0261 12.216C10.9515 12.384 10.8395 12.5333 10.6901 12.664C10.5455 12.79 10.3658 12.8927 10.1511 12.972C9.93647 13.0467 9.6938 13.084 9.42313 13.084Z" fill="#EB517A"/>
</svg>
