<svg width="16" height="16" viewBox="0 0 16 16" fill="none" xmlns="http://www.w3.org/2000/svg">
<mask id="path-2-outside-1" maskUnits="userSpaceOnUse" x="0.399902" y="0.400391" width="15" height="15" fill="black">
<rect fill="white" x="0.399902" y="0.400391" width="15" height="15"/>
<path d="M12.3847 6.60689C12.3854 6.60625 12.3855 6.60538 12.3862 6.60474L13.9803 5.0106C14.3801 4.61099 14.6001 4.07954 14.6 3.51431C14.5998 2.94907 14.3796 2.41782 13.9798 2.01841C13.155 1.19399 11.8134 1.19458 10.9887 2.01899L9.83377 3.17388L9.39355 3.61411C9.39328 3.61437 9.39292 3.61443 9.39265 3.6147C9.39239 3.61497 9.39233 3.61532 9.39207 3.61559L8.53691 4.47076L5.78504 1.7188C5.67166 1.60415 5.52068 1.54087 5.35974 1.54087C5.19881 1.54087 5.04764 1.60415 4.93533 1.71802L1.71736 4.93599C1.60408 5.04927 1.54178 5.20005 1.54178 5.3604C1.54178 5.52095 1.60408 5.67173 1.71736 5.78481L3.03717 7.10378C3.03806 7.10471 3.03832 7.10597 3.03924 7.10689C3.04015 7.1078 3.04142 7.10806 3.04235 7.10895L4.47101 8.53671L2.88015 10.1276C2.87848 10.1293 2.87799 10.1316 2.87638 10.1333C2.86188 10.1489 2.85006 10.1667 2.84106 10.1865C2.83926 10.1904 2.83693 10.1939 2.8354 10.1979C2.83467 10.1998 2.83337 10.2014 2.83269 10.2034L1.41082 14.3346C1.38592 14.4069 1.40437 14.487 1.45848 14.5411C1.49656 14.5792 1.54773 14.5997 1.59988 14.5997C1.62166 14.5997 1.64373 14.5961 1.66502 14.5887L5.79617 13.1667C5.79934 13.1656 5.80196 13.1635 5.80504 13.1623C5.80652 13.1617 5.80782 13.1608 5.80928 13.1602C5.83185 13.1505 5.85202 13.137 5.86929 13.1203C5.87032 13.1193 5.87172 13.119 5.87273 13.118L5.87777 13.113C5.87857 13.1121 5.87946 13.1114 5.88024 13.1105L7.46259 11.5282L8.09561 12.1612C8.09729 12.1631 8.09782 12.1655 8.09959 12.1672C8.10136 12.169 8.10376 12.1695 8.10558 12.1712L9.35428 13.42C9.3562 13.4222 9.35857 13.4241 9.36061 13.4263C9.36236 13.4282 9.36289 13.4306 9.36473 13.4325C9.36659 13.4343 9.36912 13.4349 9.37104 13.4367C9.37344 13.4389 9.37552 13.4415 9.37801 13.4436L10.2144 14.2801C10.3278 14.3948 10.4788 14.4581 10.6397 14.4581C10.8007 14.4581 10.9518 14.3948 11.0641 14.2809L14.2821 11.0629C14.3954 10.9497 14.4577 10.7989 14.4577 10.6385C14.4577 10.478 14.3954 10.3272 14.2821 10.2141L11.5295 7.46135L12.3826 6.60831C12.3832 6.60769 12.3841 6.60752 12.3847 6.60689ZM11.2716 2.30181C11.94 1.63345 13.028 1.63286 13.697 2.30122C14.0213 2.62524 14.1999 3.0561 14.2 3.51431C14.2001 3.97271 14.0217 4.40376 13.6975 4.72778L12.243 6.1823L9.81707 3.7563L11.2716 2.30181ZM5.73123 12.6938L4.65944 11.6229L10.0005 6.28174C10.0142 6.27313 10.0288 6.26641 10.0408 6.25435C10.051 6.24409 10.0558 6.23102 10.0631 6.21917L10.8887 5.39358L11.9602 6.4651L5.73123 12.6938ZM3.30481 10.2686L4.89093 8.68243C4.89252 8.68095 4.89462 8.68051 4.89617 8.67896C4.89772 8.67741 4.89816 8.67531 4.89965 8.67372L9.53426 4.03911L10.6059 5.11077L4.3765 11.3402L4.34445 11.3082L3.30481 10.2686ZM3.46404 6.96489L3.95623 6.47271C4.03435 6.39458 4.03435 6.26802 3.95623 6.18989C3.8781 6.11177 3.75154 6.11177 3.67342 6.18989L3.18114 6.68217L2.00008 5.50181C1.96248 5.46431 1.94178 5.41411 1.94178 5.3604C1.94178 5.30689 1.96248 5.25649 2.00017 5.2188L5.21912 1.99985C5.29412 1.92407 5.42439 1.9231 5.50135 2.00083L8.25409 4.75358L4.75382 8.25388L3.46404 6.96489ZM1.92244 14.0772L3.10663 10.6367L4.04152 11.5709L4.23484 11.7642L5.36326 12.8926L1.92244 14.0772ZM13.9994 10.4971C14.037 10.5346 14.0577 10.5848 14.0577 10.6385C14.0577 10.692 14.037 10.7424 13.9993 10.7801L10.7803 13.9991C10.7053 14.075 10.575 14.0756 10.4981 13.9981L9.79005 13.2899L10.5414 12.5385C10.6195 12.4604 10.6195 12.3338 10.5414 12.2557C10.4633 12.1776 10.3367 12.1776 10.2586 12.2557L9.50716 13.0072L8.52481 12.0248L9.01658 11.5331C9.09471 11.4549 9.09471 11.3284 9.01658 11.2502C8.93846 11.1721 8.81189 11.1721 8.73377 11.2502L8.24201 11.742L7.74541 11.2454L11.2467 7.74417L13.9994 10.4971Z"/>
</mask>
<path d="M12.3847 6.60689C12.3854 6.60625 12.3855 6.60538 12.3862 6.60474L13.9803 5.0106C14.3801 4.61099 14.6001 4.07954 14.6 3.51431C14.5998 2.94907 14.3796 2.41782 13.9798 2.01841C13.155 1.19399 11.8134 1.19458 10.9887 2.01899L9.83377 3.17388L9.39355 3.61411C9.39328 3.61437 9.39292 3.61443 9.39265 3.6147C9.39239 3.61497 9.39233 3.61532 9.39207 3.61559L8.53691 4.47076L5.78504 1.7188C5.67166 1.60415 5.52068 1.54087 5.35974 1.54087C5.19881 1.54087 5.04764 1.60415 4.93533 1.71802L1.71736 4.93599C1.60408 5.04927 1.54178 5.20005 1.54178 5.3604C1.54178 5.52095 1.60408 5.67173 1.71736 5.78481L3.03717 7.10378C3.03806 7.10471 3.03832 7.10597 3.03924 7.10689C3.04015 7.1078 3.04142 7.10806 3.04235 7.10895L4.47101 8.53671L2.88015 10.1276C2.87848 10.1293 2.87799 10.1316 2.87638 10.1333C2.86188 10.1489 2.85006 10.1667 2.84106 10.1865C2.83926 10.1904 2.83693 10.1939 2.8354 10.1979C2.83467 10.1998 2.83337 10.2014 2.83269 10.2034L1.41082 14.3346C1.38592 14.4069 1.40437 14.487 1.45848 14.5411C1.49656 14.5792 1.54773 14.5997 1.59988 14.5997C1.62166 14.5997 1.64373 14.5961 1.66502 14.5887L5.79617 13.1667C5.79934 13.1656 5.80196 13.1635 5.80504 13.1623C5.80652 13.1617 5.80782 13.1608 5.80928 13.1602C5.83185 13.1505 5.85202 13.137 5.86929 13.1203C5.87032 13.1193 5.87172 13.119 5.87273 13.118L5.87777 13.113C5.87857 13.1121 5.87946 13.1114 5.88024 13.1105L7.46259 11.5282L8.09561 12.1612C8.09729 12.1631 8.09782 12.1655 8.09959 12.1672C8.10136 12.169 8.10376 12.1695 8.10558 12.1712L9.35428 13.42C9.3562 13.4222 9.35857 13.4241 9.36061 13.4263C9.36236 13.4282 9.36289 13.4306 9.36473 13.4325C9.36659 13.4343 9.36912 13.4349 9.37104 13.4367C9.37344 13.4389 9.37552 13.4415 9.37801 13.4436L10.2144 14.2801C10.3278 14.3948 10.4788 14.4581 10.6397 14.4581C10.8007 14.4581 10.9518 14.3948 11.0641 14.2809L14.2821 11.0629C14.3954 10.9497 14.4577 10.7989 14.4577 10.6385C14.4577 10.478 14.3954 10.3272 14.2821 10.2141L11.5295 7.46135L12.3826 6.60831C12.3832 6.60769 12.3841 6.60752 12.3847 6.60689ZM11.2716 2.30181C11.94 1.63345 13.028 1.63286 13.697 2.30122C14.0213 2.62524 14.1999 3.0561 14.2 3.51431C14.2001 3.97271 14.0217 4.40376 13.6975 4.72778L12.243 6.1823L9.81707 3.7563L11.2716 2.30181ZM5.73123 12.6938L4.65944 11.6229L10.0005 6.28174C10.0142 6.27313 10.0288 6.26641 10.0408 6.25435C10.051 6.24409 10.0558 6.23102 10.0631 6.21917L10.8887 5.39358L11.9602 6.4651L5.73123 12.6938ZM3.30481 10.2686L4.89093 8.68243C4.89252 8.68095 4.89462 8.68051 4.89617 8.67896C4.89772 8.67741 4.89816 8.67531 4.89965 8.67372L9.53426 4.03911L10.6059 5.11077L4.3765 11.3402L4.34445 11.3082L3.30481 10.2686ZM3.46404 6.96489L3.95623 6.47271C4.03435 6.39458 4.03435 6.26802 3.95623 6.18989C3.8781 6.11177 3.75154 6.11177 3.67342 6.18989L3.18114 6.68217L2.00008 5.50181C1.96248 5.46431 1.94178 5.41411 1.94178 5.3604C1.94178 5.30689 1.96248 5.25649 2.00017 5.2188L5.21912 1.99985C5.29412 1.92407 5.42439 1.9231 5.50135 2.00083L8.25409 4.75358L4.75382 8.25388L3.46404 6.96489ZM1.92244 14.0772L3.10663 10.6367L4.04152 11.5709L4.23484 11.7642L5.36326 12.8926L1.92244 14.0772ZM13.9994 10.4971C14.037 10.5346 14.0577 10.5848 14.0577 10.6385C14.0577 10.692 14.037 10.7424 13.9993 10.7801L10.7803 13.9991C10.7053 14.075 10.575 14.0756 10.4981 13.9981L9.79005 13.2899L10.5414 12.5385C10.6195 12.4604 10.6195 12.3338 10.5414 12.2557C10.4633 12.1776 10.3367 12.1776 10.2586 12.2557L9.50716 13.0072L8.52481 12.0248L9.01658 11.5331C9.09471 11.4549 9.09471 11.3284 9.01658 11.2502C8.93846 11.1721 8.81189 11.1721 8.73377 11.2502L8.24201 11.742L7.74541 11.2454L11.2467 7.74417L13.9994 10.4971Z" fill="white"/>
<path d="M4.23484 11.7642L4.28788 11.7112L4.28787 11.7112L4.23484 11.7642ZM4.18181 11.8172C4.18182 11.8173 4.18182 11.8173 4.18183 11.8173C4.18183 11.8173 4.18182 11.8173 4.18181 11.8172C4.18181 11.8172 4.18181 11.8172 4.1818 11.8172C4.1818 11.8172 4.18179 11.8172 4.18177 11.8172C4.18177 11.8172 4.18174 11.8172 4.18172 11.8171C4.1817 11.8171 4.18165 11.8171 4.18161 11.817C4.18153 11.817 4.18097 11.8164 4.18048 11.8159C4.18209 11.7109 4.2873 11.7106 4.28757 11.7109C4.28763 11.7109 4.28772 11.711 4.28775 11.7111C4.28779 11.7111 4.28782 11.7111 4.28783 11.7111C4.28785 11.7111 4.28786 11.7112 4.28786 11.7112C4.28787 11.7112 4.28787 11.7112 4.28787 11.7112C4.28788 11.7112 4.28788 11.7112 4.28788 11.7112C4.28789 11.7112 4.28789 11.7112 4.28787 11.7112C4.28786 11.7112 4.28786 11.7112 4.28786 11.7112C4.28786 11.7112 4.28786 11.7112 4.28787 11.7112C4.28787 11.7112 4.28788 11.7112 4.28788 11.7112C4.28788 11.7112 4.2879 11.7112 4.28792 11.7112C4.28792 11.7112 4.28795 11.7113 4.28799 11.7113C4.28802 11.7113 4.28811 11.7114 4.28818 11.7115C4.28845 11.7118 4.28806 11.817 4.18311 11.8185C4.18263 11.8181 4.18209 11.8175 4.18201 11.8174C4.18198 11.8174 4.18193 11.8174 4.18191 11.8173C4.18188 11.8173 4.18186 11.8173 4.18185 11.8173C4.18184 11.8173 4.18182 11.8173 4.18182 11.8173C4.18182 11.8172 4.18181 11.8172 4.18181 11.8172C4.1818 11.8172 4.18179 11.8172 4.1818 11.8172C4.1818 11.8172 4.1818 11.8172 4.18182 11.8172L4.28787 11.7112C4.28786 11.7112 4.28785 11.7112 4.28784 11.7111C4.28784 11.7111 4.28784 11.7111 4.28784 11.7111C4.28784 11.7111 4.28783 11.7111 4.28783 11.7111C4.28782 11.7111 4.28782 11.7111 4.28781 11.7111C4.28781 11.7111 4.2878 11.7111 4.28778 11.7111C4.28778 11.7111 4.28776 11.7111 4.28773 11.711C4.28771 11.711 4.28766 11.711 4.28763 11.7109C4.28755 11.7109 4.287 11.7103 4.28653 11.7099C4.18157 11.7114 4.18118 11.8166 4.18146 11.8169C4.18152 11.817 4.18161 11.817 4.18164 11.8171C4.18168 11.8171 4.18171 11.8171 4.18172 11.8172C4.18174 11.8172 4.18175 11.8172 4.18175 11.8172C4.18176 11.8172 4.18176 11.8172 4.18177 11.8172C4.18177 11.8172 4.18177 11.8172 4.18178 11.8172C4.18179 11.8172 4.18181 11.8172 4.18181 11.8172C4.18182 11.8173 4.18184 11.8173 4.18185 11.8173C4.18185 11.8173 4.18185 11.8173 4.18186 11.8173C4.18186 11.8173 4.18186 11.8173 4.18187 11.8173C4.18187 11.8173 4.18189 11.8173 4.18191 11.8173C4.18191 11.8173 4.18194 11.8174 4.18198 11.8174C4.18201 11.8174 4.1821 11.8175 4.18217 11.8176C4.18243 11.8179 4.28765 11.8175 4.28925 11.7126C4.28877 11.7121 4.2882 11.7115 4.28812 11.7114C4.28809 11.7114 4.28804 11.7113 4.28802 11.7113C4.28799 11.7113 4.28797 11.7113 4.28796 11.7113C4.28794 11.7112 4.28793 11.7112 4.28793 11.7112C4.28792 11.7112 4.28792 11.7112 4.28792 11.7112C4.28791 11.7112 4.28791 11.7112 4.28791 11.7112C4.2879 11.7112 4.2879 11.7112 4.2879 11.7112C4.28789 11.7112 4.28789 11.7112 4.28788 11.7112L4.18181 11.8172ZM12.3862 6.60474L12.2801 6.49865L12.2781 6.50073L12.3862 6.60474ZM13.9803 5.0106L13.8743 4.90452L13.8743 4.90453L13.9803 5.0106ZM14.6 3.51431L14.75 3.51428V3.51426L14.6 3.51431ZM13.9798 2.01841L13.8737 2.1245L13.8737 2.12453L13.9798 2.01841ZM10.9887 2.01899L10.8827 1.91292L10.8827 1.91292L10.9887 2.01899ZM9.83377 3.17388L9.72771 3.06781L9.7277 3.06781L9.83377 3.17388ZM9.39355 3.61411L9.49714 3.72265L9.49961 3.72018L9.39355 3.61411ZM9.39207 3.61559L9.49816 3.72168L9.50057 3.71916L9.39207 3.61559ZM8.53691 4.47076L8.43084 4.57683L8.5369 4.6829L8.64297 4.57683L8.53691 4.47076ZM5.78504 1.7188L5.67838 1.82427L5.67897 1.82486L5.78504 1.7188ZM4.93533 1.71802L5.0414 1.82409L5.04213 1.82335L4.93533 1.71802ZM1.71736 4.93599L1.6113 4.82992L1.71736 4.93599ZM1.71736 5.78481L1.82339 5.67871L1.82334 5.67866L1.71736 5.78481ZM3.03717 7.10378L3.14538 6.99985L3.14321 6.99768L3.03717 7.10378ZM3.04235 7.10895L3.1484 7.00283L3.14626 7.00077L3.04235 7.10895ZM4.47101 8.53671L4.57708 8.64277L4.68318 8.53667L4.57704 8.43061L4.47101 8.53671ZM2.88015 10.1276L2.98622 10.2337L2.98622 10.2337L2.88015 10.1276ZM2.87638 10.1333L2.76688 10.0308L2.76648 10.0312L2.87638 10.1333ZM2.84106 10.1865L2.97744 10.2489L2.97757 10.2486L2.84106 10.1865ZM2.8354 10.1979L2.69529 10.1443L2.69517 10.1446L2.8354 10.1979ZM2.83269 10.2034L2.97453 10.2522L2.97464 10.2519L2.83269 10.2034ZM1.41082 14.3346L1.55264 14.3835L1.55265 14.3834L1.41082 14.3346ZM1.45848 14.5411L1.56454 14.435H1.56454L1.45848 14.5411ZM1.66502 14.5887L1.61619 14.4469L1.61564 14.4471L1.66502 14.5887ZM5.79617 13.1667L5.84499 13.3085L5.84524 13.3084L5.79617 13.1667ZM5.80504 13.1623L5.74973 13.0228L5.74896 13.0231L5.80504 13.1623ZM5.80928 13.1602L5.86795 13.2982L5.86853 13.298L5.80928 13.1602ZM5.86929 13.1203L5.76517 13.0123L5.76491 13.0126L5.86929 13.1203ZM5.87273 13.118L5.76667 13.0119L5.76667 13.012L5.87273 13.118ZM5.87777 13.113L5.98391 13.2191L5.98769 13.215L5.87777 13.113ZM5.88024 13.1105L5.77403 13.0043L5.76882 13.0101L5.88024 13.1105ZM7.46259 11.5282L7.56866 11.4221L7.46259 11.3161L7.35652 11.4221L7.46259 11.5282ZM8.09561 12.1612L8.20574 12.0592L8.20168 12.0552L8.09561 12.1612ZM8.10558 12.1712L8.21173 12.0651L8.20751 12.0612L8.10558 12.1712ZM9.35428 13.42L9.4684 13.322L9.46034 13.3139L9.35428 13.42ZM9.36061 13.4263L9.47053 13.3242L9.47029 13.324L9.36061 13.4263ZM9.36473 13.4325L9.25866 13.5385L9.36473 13.4325ZM9.37104 13.4367L9.47342 13.327L9.47281 13.3265L9.37104 13.4367ZM9.37801 13.4436L9.48441 13.3372L9.47535 13.3295L9.37801 13.4436ZM10.2144 14.2801L10.3211 14.1747L10.3205 14.1741L10.2144 14.2801ZM11.0641 14.2809L10.9581 14.1748L10.9573 14.1756L11.0641 14.2809ZM14.2821 11.0629L14.176 10.9569L14.2821 11.0629ZM14.2821 10.2141L14.176 10.3202L14.1761 10.3203L14.2821 10.2141ZM11.5295 7.46135L11.4235 7.35529L11.3174 7.46135L11.4235 7.56742L11.5295 7.46135ZM12.3826 6.60831L12.2786 6.50021L12.2765 6.50225L12.3826 6.60831ZM11.2716 2.30181L11.1655 2.19573L11.1655 2.19574L11.2716 2.30181ZM13.697 2.30122L13.8031 2.19512L13.8031 2.1951L13.697 2.30122ZM14.2 3.51431L14.35 3.51427L14.2 3.51431ZM13.6975 4.72778L13.5915 4.6217L13.5915 4.62172L13.6975 4.72778ZM12.243 6.1823L12.1369 6.28836L12.243 6.39443L12.349 6.28837L12.243 6.1823ZM9.81707 3.7563L9.711 3.65023L9.60494 3.7563L9.711 3.86236L9.81707 3.7563ZM5.73123 12.6938L5.62521 12.7999L5.73127 12.9059L5.83729 12.7999L5.73123 12.6938ZM4.65944 11.6229L4.55337 11.5168L4.44726 11.623L4.55342 11.729L4.65944 11.6229ZM10.0005 6.28174L9.92083 6.15467L9.90646 6.16368L9.89446 6.17567L10.0005 6.28174ZM10.0408 6.25435L10.1471 6.36014L10.1474 6.3599L10.0408 6.25435ZM10.0631 6.21917L9.95704 6.1131L9.9446 6.12553L9.93538 6.14051L10.0631 6.21917ZM10.8887 5.39358L10.9947 5.28752L10.8887 5.18144L10.7826 5.28751L10.8887 5.39358ZM11.9602 6.4651L12.0662 6.57117L12.1723 6.4651L12.0662 6.35904L11.9602 6.4651ZM3.30481 10.2686L3.19875 10.1625L3.09268 10.2686L3.19875 10.3746L3.30481 10.2686ZM4.89093 8.68243L4.78823 8.573L4.78487 8.57637L4.89093 8.68243ZM4.89965 8.67372L4.79353 8.5676L4.79027 8.57107L4.89965 8.67372ZM9.53426 4.03911L9.64032 3.93305L9.53426 3.82698L9.42819 3.93305L9.53426 4.03911ZM10.6059 5.11077L10.7119 5.21683L10.818 5.11077L10.7119 5.0047L10.6059 5.11077ZM4.3765 11.3402L4.27048 11.4463L4.37655 11.5523L4.48257 11.4463L4.3765 11.3402ZM4.34445 11.3082L4.23838 11.4143L4.23842 11.4143L4.34445 11.3082ZM3.46404 6.96489L3.35798 6.85883L3.25188 6.96493L3.35801 7.07099L3.46404 6.96489ZM3.95623 6.47271L4.06229 6.57877L3.95623 6.47271ZM3.67342 6.18989L3.56735 6.08383V6.08383L3.67342 6.18989ZM3.18114 6.68217L3.07511 6.78826L3.18118 6.89427L3.28721 6.78823L3.18114 6.68217ZM2.00008 5.50181L2.10611 5.39571L2.106 5.3956L2.00008 5.50181ZM2.00017 5.2188L2.10624 5.32487H2.10624L2.00017 5.2188ZM5.21912 1.99985L5.32519 2.10592L5.32573 2.10537L5.21912 1.99985ZM5.50135 2.00083L5.39474 2.10636L5.39528 2.1069L5.50135 2.00083ZM8.25409 4.75358L8.36016 4.85964L8.46622 4.75358L8.36016 4.64751L8.25409 4.75358ZM4.75382 8.25388L4.64779 8.35998L4.75386 8.46598L4.85989 8.35995L4.75382 8.25388ZM1.92244 14.0772L1.78061 14.0284L1.68054 14.3191L1.97127 14.219L1.92244 14.0772ZM3.10663 10.6367L3.21266 10.5306L3.0429 10.361L2.9648 10.5879L3.10663 10.6367ZM4.04152 11.5709L4.14759 11.4648L4.14755 11.4648L4.04152 11.5709ZM4.23484 11.7642L4.34091 11.6581L4.23484 11.7642ZM5.36326 12.8926L5.41209 13.0345L5.63908 12.9563L5.46933 12.7866L5.36326 12.8926ZM13.9994 10.4971L13.8933 10.6032L13.8935 10.6033L13.9994 10.4971ZM13.9993 10.7801L13.8932 10.6741L13.9993 10.7801ZM10.7803 13.9991L10.6743 13.893L10.6737 13.8936L10.7803 13.9991ZM10.4981 13.9981L10.6047 13.8925L10.6042 13.892L10.4981 13.9981ZM9.79005 13.2899L9.68398 13.1839L9.57793 13.2899L9.68398 13.396L9.79005 13.2899ZM10.5414 12.5385L10.4353 12.4325L10.4353 12.4325L10.5414 12.5385ZM10.2586 12.2557L10.1525 12.1496L10.1525 12.1497L10.2586 12.2557ZM9.50716 13.0072L9.40109 13.1133L9.50716 13.2194L9.61323 13.1133L9.50716 13.0072ZM8.52481 12.0248L8.41874 11.9188L8.31268 12.0248L8.41874 12.1309L8.52481 12.0248ZM9.01658 11.5331L9.12265 11.6391L9.01658 11.5331ZM8.73377 11.2502L8.83983 11.3563L8.73377 11.2502ZM8.24201 11.742L8.13594 11.8481L8.24201 11.9541L8.34807 11.8481L8.24201 11.742ZM7.74541 11.2454L7.63935 11.1393L7.53328 11.2454L7.63934 11.3515L7.74541 11.2454ZM11.2467 7.74417L11.3528 7.6381L11.2467 7.53203L11.1407 7.6381L11.2467 7.74417ZM12.4908 6.71295C12.5007 6.70302 12.5075 6.69353 12.5117 6.68691C12.5138 6.68364 12.5154 6.68089 12.5163 6.67912C12.5173 6.67747 12.518 6.67607 12.518 6.67605C12.5182 6.67561 12.5177 6.67671 12.517 6.67792C12.5162 6.67929 12.5149 6.68166 12.5131 6.68454C12.5095 6.69039 12.5034 6.69927 12.4943 6.70874L12.2781 6.50073C12.2687 6.51053 12.2623 6.51976 12.2584 6.52597C12.2565 6.52904 12.2551 6.53159 12.2542 6.53315C12.2535 6.53454 12.2528 6.53583 12.2529 6.53558C12.2529 6.53558 12.2529 6.53557 12.2529 6.53557C12.2529 6.53556 12.2529 6.53555 12.2529 6.53554C12.253 6.53551 12.253 6.53547 12.253 6.53542C12.2531 6.53531 12.2532 6.53515 12.2533 6.53494C12.2535 6.53454 12.2538 6.53388 12.2543 6.53308C12.2552 6.53149 12.2566 6.52892 12.2586 6.52584C12.2626 6.51958 12.2691 6.51043 12.2787 6.50082L12.4908 6.71295ZM12.4922 6.7108L14.0864 5.11666L13.8743 4.90453L12.2801 6.49867L12.4922 6.7108ZM14.0864 5.11667C14.5143 4.68891 14.7501 4.11929 14.75 3.51428L14.45 3.51433C14.4501 4.03979 14.2458 4.53306 13.8743 4.90452L14.0864 5.11667ZM14.75 3.51426C14.7498 2.90925 14.5137 2.33984 14.0858 1.91229L13.8737 2.12453C14.2454 2.4958 14.4498 2.98889 14.45 3.51436L14.75 3.51426ZM14.0858 1.91232C13.2024 1.02931 11.7658 1.02999 10.8827 1.91292L11.0948 2.12507C11.8609 1.35917 13.1075 1.35868 13.8737 2.1245L14.0858 1.91232ZM10.8827 1.91292L9.72771 3.06781L9.93983 3.27995L11.0948 2.12506L10.8827 1.91292ZM9.7277 3.06781L9.28748 3.50805L9.49961 3.72018L9.93984 3.27994L9.7277 3.06781ZM9.28998 3.50561C9.29973 3.4963 9.30889 3.49009 9.31502 3.48634C9.31803 3.48449 9.32051 3.48313 9.32194 3.48235C9.32318 3.48169 9.32437 3.48107 9.32389 3.48132C9.32385 3.48134 9.32243 3.48208 9.3207 3.48302C9.31886 3.48404 9.31604 3.48564 9.3127 3.48775C9.30586 3.49208 9.29641 3.49881 9.28659 3.50863L9.49872 3.72076C9.48903 3.73045 9.47973 3.73707 9.47304 3.7413C9.46977 3.74337 9.46703 3.74493 9.46526 3.7459C9.46437 3.74639 9.46363 3.74678 9.46315 3.74704C9.4627 3.74728 9.46234 3.74746 9.46231 3.74748C9.46191 3.74769 9.46318 3.74703 9.46449 3.74632C9.466 3.74551 9.46855 3.7441 9.47164 3.74221C9.47792 3.73836 9.48723 3.73205 9.49711 3.72262L9.28998 3.50561ZM9.28659 3.50863C9.27675 3.51847 9.27001 3.52793 9.26569 3.53477C9.26357 3.53812 9.26197 3.54095 9.26096 3.54279C9.26001 3.54451 9.25927 3.54594 9.25926 3.54597C9.25901 3.54645 9.25962 3.54526 9.26029 3.54403C9.26106 3.54259 9.26243 3.54011 9.26427 3.5371C9.26803 3.53096 9.27425 3.52178 9.28357 3.51202L9.50057 3.71916C9.51002 3.70926 9.51634 3.69994 9.52019 3.69365C9.52208 3.69056 9.52349 3.688 9.5243 3.68649C9.52501 3.68518 9.52567 3.68391 9.52546 3.68431C9.52544 3.68434 9.52526 3.6847 9.52502 3.68515C9.52476 3.68563 9.52437 3.68637 9.52388 3.68726C9.52291 3.68903 9.52135 3.69178 9.51928 3.69505C9.51505 3.70175 9.50842 3.71106 9.49872 3.72076L9.28659 3.50863ZM9.286 3.50952L8.43084 4.3647L8.64297 4.57683L9.49814 3.72165L9.286 3.50952ZM8.64297 4.3647L5.89111 1.61273L5.67897 1.82486L8.43084 4.57683L8.64297 4.3647ZM5.89169 1.61333C5.75028 1.47033 5.56096 1.39087 5.35974 1.39087V1.69087C5.48041 1.69087 5.59304 1.73797 5.67838 1.82427L5.89169 1.61333ZM5.35974 1.39087C5.15877 1.39087 4.9691 1.47017 4.82853 1.61269L5.04213 1.82335C5.12617 1.73813 5.23885 1.69087 5.35974 1.69087V1.39087ZM4.82926 1.61195L1.6113 4.82992L1.82343 5.04205L5.0414 1.82408L4.82926 1.61195ZM1.6113 4.82992C1.4698 4.97141 1.39178 5.16038 1.39178 5.3604H1.69178C1.69178 5.23971 1.73836 5.12712 1.82343 5.04205L1.6113 4.82992ZM1.39178 5.3604C1.39178 5.56056 1.46977 5.7496 1.61139 5.89097L1.82334 5.67866C1.73839 5.59386 1.69178 5.48133 1.69178 5.3604H1.39178ZM1.61133 5.89091L2.93114 7.20988L3.14321 6.99768L1.82339 5.67871L1.61133 5.89091ZM2.92899 7.20769C2.91996 7.19829 2.91396 7.18951 2.91043 7.18385C2.90869 7.18105 2.90739 7.17876 2.90668 7.17747C2.90606 7.17635 2.90551 7.17531 2.90578 7.17581C2.90582 7.17589 2.90658 7.17732 2.90752 7.17901C2.90853 7.18081 2.91013 7.18358 2.91222 7.18686C2.91645 7.19349 2.92322 7.203 2.93317 7.21295L3.1453 7.00082C3.1548 7.01031 3.16119 7.01933 3.16509 7.02543C3.16701 7.02845 3.16845 7.03095 3.16931 7.03249C3.1701 7.03391 3.17071 7.03506 3.17061 7.03487C3.1706 7.03485 3.17061 7.03487 3.17059 7.03483C3.17058 7.0348 3.17055 7.03476 3.17053 7.03471C3.17047 7.03461 3.17038 7.03444 3.17028 7.03424C3.17006 7.03384 3.16971 7.03319 3.16927 7.0324C3.16841 7.03083 3.16696 7.02828 3.16505 7.02521C3.1612 7.01903 3.15483 7.00975 3.14535 6.99988L2.92899 7.20769ZM2.93317 7.21295C2.94323 7.22301 2.95285 7.22983 2.95952 7.23406C2.96282 7.23616 2.9656 7.23776 2.96742 7.23876C2.96912 7.23971 2.97055 7.24047 2.97063 7.24051C2.97113 7.24077 2.97009 7.24022 2.96896 7.2396C2.96766 7.23889 2.96535 7.2376 2.96253 7.23585C2.95684 7.23232 2.94796 7.22627 2.93844 7.21713L3.14626 7.00077C3.13628 6.99118 3.12689 6.98477 3.12067 6.98091C3.11758 6.979 3.11501 6.97755 3.11344 6.97669C3.11264 6.97625 3.11198 6.97589 3.11158 6.97568C3.11138 6.97557 3.11121 6.97548 3.11111 6.97543C3.11106 6.9754 3.11102 6.97538 3.11099 6.97537C3.11095 6.97534 3.11097 6.97535 3.11095 6.97534C3.11075 6.97524 3.11191 6.97585 3.11334 6.97665C3.11488 6.9775 3.1174 6.97894 3.12044 6.98087C3.12658 6.98478 3.1357 6.99121 3.1453 7.00082L2.93317 7.21295ZM2.93632 7.21505L4.36498 8.64281L4.57704 8.43061L3.14838 7.00285L2.93632 7.21505ZM4.36494 8.43064L2.77409 10.0215L2.98622 10.2337L4.57708 8.64277L4.36494 8.43064ZM2.77409 10.0215C2.76407 10.0315 2.7572 10.0411 2.75283 10.048C2.74886 10.0541 2.746 10.0596 2.74591 10.0598C2.74554 10.0605 2.746 10.0596 2.74649 10.0587C2.74707 10.0577 2.74822 10.0556 2.74979 10.0531C2.75296 10.0479 2.7585 10.0397 2.76688 10.0308L2.98589 10.2358C2.99507 10.226 3.00128 10.2168 3.00504 10.2107C3.00691 10.2077 3.00834 10.2051 3.0092 10.2036C3.00964 10.2028 3.01 10.2021 3.01022 10.2017C3.01033 10.2015 3.01042 10.2013 3.01048 10.2012C3.01051 10.2012 3.01053 10.2011 3.01055 10.2011C3.01057 10.2011 3.01058 10.201 3.01058 10.201C3.01102 10.2002 3.0087 10.2047 3.00534 10.2099C3.00159 10.2158 2.99541 10.2245 2.98622 10.2337L2.77409 10.0215ZM2.76648 10.0312C2.74081 10.0588 2.72009 10.0902 2.70454 10.1243L2.97757 10.2486C2.98004 10.2432 2.98295 10.2389 2.98629 10.2354L2.76648 10.0312ZM2.70468 10.124C2.70577 10.1216 2.70663 10.12 2.7068 10.1196C2.70689 10.1195 2.70691 10.1194 2.70673 10.1198C2.70667 10.1199 2.70617 10.1208 2.70583 10.1215C2.70446 10.124 2.69965 10.1329 2.69529 10.1443L2.97552 10.2514C2.97268 10.2589 2.9698 10.264 2.97043 10.2628C2.97059 10.2625 2.97059 10.2625 2.97103 10.2617C2.97135 10.2611 2.97187 10.2601 2.97246 10.259C2.97362 10.2568 2.97545 10.2533 2.97744 10.2489L2.70468 10.124ZM2.69517 10.1446C2.69778 10.1378 2.70038 10.1326 2.70187 10.1297C2.70313 10.1273 2.70441 10.1251 2.70361 10.1265C2.70336 10.1269 2.70137 10.1304 2.69921 10.1347C2.6969 10.1393 2.69371 10.1462 2.69075 10.1549L2.97464 10.2519C2.97202 10.2595 2.96923 10.2655 2.96738 10.2692C2.96568 10.2726 2.96419 10.2752 2.96444 10.2747C2.96445 10.2747 2.96446 10.2747 2.9645 10.2746C2.96454 10.2746 2.9646 10.2744 2.96467 10.2743C2.9648 10.2741 2.96502 10.2737 2.96529 10.2732C2.96581 10.2723 2.96666 10.2708 2.96766 10.2689C2.96962 10.2651 2.97266 10.259 2.97563 10.2511L2.69517 10.1446ZM2.69086 10.1546L1.26898 14.2858L1.55265 14.3834L2.97453 10.2522L2.69086 10.1546ZM1.269 14.2858C1.22541 14.4122 1.25775 14.5525 1.35241 14.6471L1.56454 14.435C1.551 14.4215 1.54642 14.4015 1.55264 14.3835L1.269 14.2858ZM1.35241 14.6471C1.41908 14.7138 1.50859 14.7497 1.59988 14.7497V14.4497C1.58687 14.4497 1.57405 14.4445 1.56454 14.435L1.35241 14.6471ZM1.59988 14.7497C1.63775 14.7497 1.67657 14.7435 1.7144 14.7304L1.61564 14.4471C1.61089 14.4487 1.60556 14.4497 1.59988 14.4497V14.7497ZM1.71384 14.7306L5.84499 13.3085L5.74735 13.0248L1.6162 14.4469L1.71384 14.7306ZM5.84524 13.3084C5.85359 13.3055 5.86034 13.3024 5.86503 13.3001C5.86948 13.2979 5.87307 13.2959 5.87404 13.2953C5.87595 13.2943 5.87428 13.2952 5.8728 13.296C5.87081 13.297 5.86668 13.2991 5.86113 13.3014L5.74896 13.0231C5.74187 13.026 5.73625 13.0288 5.7328 13.0306C5.73106 13.0316 5.72962 13.0324 5.72874 13.0329C5.72829 13.0331 5.72791 13.0333 5.72767 13.0335C5.72734 13.0336 5.72736 13.0336 5.72724 13.0337C5.72677 13.034 5.72892 13.0327 5.73189 13.0313C5.7351 13.0297 5.74034 13.0272 5.7471 13.0249L5.84524 13.3084ZM5.86036 13.3017C5.86564 13.2996 5.8699 13.2976 5.87278 13.2962C5.87548 13.2948 5.8777 13.2936 5.87808 13.2934C5.87906 13.2929 5.8778 13.2936 5.87649 13.2942C5.87489 13.2951 5.87188 13.2965 5.86795 13.2982L5.75061 13.0221C5.74595 13.0241 5.74223 13.0259 5.73993 13.0271C5.73877 13.0277 5.73781 13.0282 5.73723 13.0285C5.73693 13.0287 5.73668 13.0288 5.73653 13.0289C5.73645 13.0289 5.73638 13.029 5.73634 13.029C5.73628 13.029 5.73627 13.029 5.73625 13.029C5.73594 13.0292 5.73747 13.0284 5.73947 13.0274C5.74164 13.0263 5.74519 13.0246 5.74973 13.0228L5.86036 13.3017ZM5.86853 13.298C5.90763 13.2812 5.94313 13.2576 5.97367 13.228L5.76491 13.0126C5.7609 13.0165 5.75608 13.0198 5.75003 13.0224L5.86853 13.298ZM5.97341 13.2283C5.9639 13.2375 5.955 13.2435 5.94929 13.2471C5.94646 13.2488 5.94415 13.2501 5.94285 13.2508C5.94171 13.2515 5.94067 13.252 5.94117 13.2518C5.94125 13.2517 5.9427 13.2509 5.94441 13.25C5.94623 13.249 5.94903 13.2474 5.95234 13.2453C5.95904 13.241 5.9687 13.2342 5.9788 13.2241L5.76667 13.012C5.77626 13.0024 5.78536 12.9959 5.79148 12.9921C5.79451 12.9901 5.79701 12.9887 5.79853 12.9879C5.79994 12.9871 5.80108 12.9865 5.80086 12.9866C5.80081 12.9866 5.80088 12.9866 5.80081 12.9866C5.80078 12.9866 5.80073 12.9867 5.80067 12.9867C5.80057 12.9867 5.80039 12.9868 5.80018 12.9869C5.79977 12.9872 5.7991 12.9875 5.79828 12.988C5.79668 12.9889 5.79407 12.9903 5.79094 12.9923C5.78465 12.9962 5.7752 13.0027 5.76517 13.0123L5.97341 13.2283ZM5.97879 13.2241L5.98384 13.219L5.77171 13.0069L5.76667 13.0119L5.97879 13.2241ZM5.98769 13.215C5.98581 13.2171 5.98427 13.2186 5.98347 13.2194C5.98281 13.22 5.98216 13.2207 5.9827 13.2201C5.98286 13.22 5.98707 13.216 5.99166 13.2109L5.76882 13.0101C5.77263 13.0059 5.776 13.0027 5.77532 13.0034C5.77531 13.0034 5.7753 13.0034 5.77526 13.0034C5.77524 13.0034 5.7752 13.0035 5.77515 13.0035C5.77506 13.0036 5.77492 13.0037 5.77476 13.0039C5.77443 13.0042 5.77391 13.0047 5.7733 13.0053C5.77208 13.0065 5.77014 13.0085 5.76785 13.0109L5.98769 13.215ZM5.9863 13.2166L7.56865 11.6343L7.35652 11.4221L5.77418 13.0044L5.9863 13.2166ZM7.35652 11.6343L7.98954 12.2673L8.20168 12.0552L7.56866 11.4221L7.35652 11.6343ZM7.98556 12.2632C7.97743 12.2544 7.97206 12.2464 7.96901 12.2414C7.9675 12.239 7.9664 12.237 7.96585 12.236C7.96542 12.2352 7.96497 12.2344 7.96538 12.2352C7.96555 12.2355 7.96842 12.2409 7.97242 12.2471C7.97681 12.2539 7.98363 12.2634 7.99352 12.2733L8.20565 12.0612C8.21466 12.0702 8.22076 12.0787 8.22449 12.0845C8.22785 12.0897 8.23015 12.0941 8.22975 12.0934C8.22971 12.0933 8.22976 12.0934 8.22966 12.0932C8.22961 12.0931 8.22952 12.0929 8.22941 12.0927C8.2292 12.0923 8.22886 12.0917 8.22843 12.0909C8.22759 12.0894 8.2262 12.0869 8.22437 12.084C8.2207 12.078 8.21463 12.069 8.20566 12.0593L7.98556 12.2632ZM7.99352 12.2733C8.00341 12.2832 8.01289 12.29 8.01968 12.2944C8.02589 12.2984 8.03135 12.3013 8.03167 12.3014C8.03243 12.3019 8.03159 12.3014 8.03081 12.301C8.02981 12.3004 8.02785 12.2993 8.0254 12.2978C8.02046 12.2948 8.01243 12.2894 8.00366 12.2813L8.20751 12.0612C8.19782 12.0522 8.18881 12.0461 8.18285 12.0425C8.17989 12.0406 8.17741 12.0392 8.1759 12.0384C8.17513 12.038 8.17449 12.0376 8.1741 12.0374C8.17391 12.0373 8.17374 12.0372 8.17364 12.0372C8.17346 12.0371 8.17355 12.0371 8.17347 12.0371C8.17273 12.0367 8.17715 12.039 8.18235 12.0423C8.18814 12.0461 8.19665 12.0522 8.20565 12.0612L7.99352 12.2733ZM7.99951 12.2773L9.24821 13.526L9.46034 13.3139L8.21165 12.0652L7.99951 12.2773ZM9.24047 13.5177C9.24405 13.5219 9.24727 13.5252 9.24961 13.5275C9.25187 13.5298 9.25383 13.5317 9.2546 13.5324C9.25588 13.5336 9.25528 13.533 9.25501 13.5328C9.25446 13.5322 9.25291 13.5307 9.25093 13.5286L9.47029 13.324C9.46729 13.3207 9.46468 13.3182 9.46305 13.3166C9.46222 13.3158 9.46151 13.3151 9.46105 13.3147C9.46083 13.3145 9.46061 13.3143 9.46048 13.3142C9.46033 13.314 9.46026 13.314 9.4602 13.3139C9.45989 13.3136 9.46076 13.3144 9.46198 13.3156C9.46326 13.3169 9.46546 13.3192 9.46808 13.3223L9.24047 13.5177ZM9.25069 13.5284C9.24255 13.5196 9.23717 13.5116 9.23411 13.5066C9.23259 13.5041 9.23149 13.5022 9.23094 13.5012C9.2305 13.5004 9.23005 13.4996 9.23046 13.5003C9.23063 13.5006 9.23351 13.5061 9.23753 13.5123C9.24193 13.5192 9.24876 13.5286 9.25866 13.5385L9.47079 13.3264C9.47977 13.3354 9.48585 13.3439 9.48958 13.3497C9.49293 13.3548 9.49522 13.3592 9.49481 13.3585C9.49475 13.3584 9.49482 13.3585 9.49471 13.3583C9.49466 13.3582 9.49457 13.358 9.49446 13.3578C9.49424 13.3574 9.49389 13.3568 9.49346 13.356C9.49261 13.3545 9.4912 13.352 9.48936 13.349C9.48564 13.343 9.47954 13.3339 9.47053 13.3242L9.25069 13.5284ZM9.25866 13.5385C9.26855 13.5484 9.27804 13.5553 9.28488 13.5597C9.29114 13.5637 9.29664 13.5666 9.29702 13.5668C9.29781 13.5672 9.29699 13.5668 9.29623 13.5664C9.29526 13.5659 9.29332 13.5648 9.29089 13.5633C9.286 13.5603 9.27801 13.5549 9.26926 13.5469L9.47281 13.3265C9.4631 13.3175 9.45408 13.3114 9.44811 13.3078C9.44515 13.3059 9.44267 13.3045 9.44115 13.3037C9.44038 13.3033 9.43973 13.3029 9.43935 13.3027C9.43915 13.3026 9.43898 13.3025 9.43888 13.3025C9.43872 13.3024 9.43877 13.3024 9.43871 13.3024C9.43798 13.302 9.44238 13.3043 9.44758 13.3076C9.45336 13.3114 9.46183 13.3174 9.47079 13.3264L9.25866 13.5385ZM9.26865 13.5463C9.26674 13.5445 9.26541 13.5431 9.26502 13.5427C9.26494 13.5426 9.26441 13.5421 9.26574 13.5435C9.26657 13.5444 9.26847 13.5464 9.27079 13.5487C9.27319 13.551 9.27653 13.5542 9.28066 13.5577L9.47535 13.3295C9.47824 13.3319 9.48039 13.334 9.48162 13.3352C9.48278 13.3364 9.48353 13.3372 9.48323 13.3369C9.48262 13.3362 9.4834 13.337 9.48243 13.336C9.48201 13.3356 9.48134 13.3349 9.48056 13.3341C9.47902 13.3325 9.47654 13.3299 9.47342 13.327L9.26865 13.5463ZM9.27193 13.5497L10.1084 14.3862L10.3205 14.1741L9.48408 13.3375L9.27193 13.5497ZM10.1078 14.3856C10.2492 14.5286 10.4385 14.6081 10.6397 14.6081V14.3081C10.5191 14.3081 10.4064 14.261 10.3211 14.1747L10.1078 14.3856ZM10.6397 14.6081C10.8407 14.6081 11.0304 14.5288 11.1709 14.3862L10.9573 14.1756C10.8733 14.2608 10.7606 14.3081 10.6397 14.3081V14.6081ZM11.1702 14.387L14.3882 11.169L14.176 10.9569L10.9581 14.1748L11.1702 14.387ZM14.3882 11.169C14.5297 11.0275 14.6077 10.8385 14.6077 10.6385H14.3077C14.3077 10.7592 14.2611 10.8718 14.176 10.9569L14.3882 11.169ZM14.6077 10.6385C14.6077 10.4384 14.5297 10.2493 14.3881 10.108L14.1761 10.3203C14.2611 10.4051 14.3077 10.5176 14.3077 10.6385H14.6077ZM14.3882 10.108L11.6356 7.35529L11.4235 7.56742L14.176 10.3202L14.3882 10.108ZM11.6356 7.56742L12.4887 6.71438L12.2765 6.50225L11.4235 7.35529L11.6356 7.56742ZM12.4866 6.7164C12.4771 6.72551 12.4683 6.7316 12.4624 6.73524C12.4595 6.73703 12.4572 6.73836 12.4558 6.73912C12.4546 6.73978 12.4535 6.74036 12.4539 6.74013C12.454 6.74012 12.4554 6.73938 12.457 6.73846C12.4588 6.73747 12.4615 6.7359 12.4648 6.73382C12.4714 6.72961 12.4809 6.72287 12.4908 6.71295L12.2787 6.50082C12.2883 6.49121 12.2974 6.48474 12.3037 6.48076C12.3068 6.47879 12.3093 6.47733 12.3109 6.47644C12.3117 6.47599 12.3124 6.47564 12.3128 6.47542C12.313 6.47531 12.3131 6.47522 12.3132 6.47517C12.3133 6.47514 12.3133 6.47512 12.3134 6.4751C12.3134 6.4751 12.3134 6.47509 12.3134 6.47509C12.3134 6.47508 12.3134 6.47508 12.3134 6.47508C12.3137 6.47495 12.3124 6.47563 12.311 6.47639C12.3094 6.47725 12.3069 6.47869 12.3038 6.4806C12.2976 6.48446 12.2884 6.4908 12.2786 6.50023L12.4866 6.7164ZM11.3776 2.40788C11.9875 1.79805 12.9806 1.79753 13.591 2.40734L13.8031 2.1951C13.0754 1.46819 11.8925 1.46885 11.1655 2.19573L11.3776 2.40788ZM13.591 2.40732C13.8871 2.70323 14.0499 3.09593 14.05 3.51434L14.35 3.51427C14.3499 3.01627 14.1554 2.54726 13.8031 2.19512L13.591 2.40732ZM14.05 3.51434C14.0501 3.93297 13.8874 4.32584 13.5915 4.6217L13.8036 4.83387C14.1559 4.48168 14.3501 4.01244 14.35 3.51427L14.05 3.51434ZM13.5915 4.62172L12.1369 6.07623L12.349 6.28837L13.8036 4.83385L13.5915 4.62172ZM12.349 6.07624L9.92314 3.65024L9.711 3.86236L12.1369 6.28836L12.349 6.07624ZM9.92313 3.86237L11.3776 2.40787L11.1655 2.19574L9.711 3.65023L9.92313 3.86237ZM5.83725 12.5877L4.76546 11.5168L4.55342 11.729L5.62521 12.7999L5.83725 12.5877ZM4.76551 11.729L10.1066 6.3878L9.89446 6.17567L4.55337 11.5168L4.76551 11.729ZM10.0802 6.40881C10.0813 6.40814 10.0828 6.40728 10.0865 6.40511C10.0895 6.40333 10.095 6.40018 10.1006 6.39669C10.1122 6.38945 10.1296 6.37773 10.1471 6.36014L9.93446 6.14855C9.93997 6.14302 9.94413 6.14069 9.94205 6.14199C9.94081 6.14276 9.93929 6.14366 9.93538 6.14594C9.93213 6.14783 9.92662 6.15103 9.92083 6.15467L10.0802 6.40881ZM10.1474 6.3599C10.1663 6.34078 10.1778 6.32149 10.1838 6.31091C10.1864 6.30618 10.1894 6.30049 10.1901 6.2992C10.1914 6.29674 10.1914 6.29688 10.1908 6.29782L9.93538 6.14051C9.93115 6.14738 9.92778 6.1536 9.92582 6.15725C9.92531 6.1582 9.92481 6.15913 9.92442 6.15987C9.92399 6.16066 9.92367 6.16126 9.92336 6.16184C9.92275 6.16298 9.92245 6.16353 9.92229 6.1638C9.92146 6.16529 9.92544 6.15766 9.93423 6.14879L10.1474 6.3599ZM10.1692 6.32523L10.9947 5.49964L10.7826 5.28751L9.95704 6.1131L10.1692 6.32523ZM10.7826 5.49964L11.8541 6.57117L12.0662 6.35904L10.9947 5.28752L10.7826 5.49964ZM11.8541 6.35903L5.62516 12.5877L5.83729 12.7999L12.0662 6.57117L11.8541 6.35903ZM3.41088 10.3746L4.997 8.7885L4.78487 8.57637L3.19875 10.1625L3.41088 10.3746ZM4.99358 8.79181C4.98461 8.80023 4.97634 8.80581 4.97113 8.80904C4.96855 8.81063 4.96647 8.8118 4.96537 8.81241C4.96446 8.81291 4.96356 8.81339 4.96424 8.81303C4.96438 8.81295 4.96983 8.81011 4.97601 8.80614C4.98281 8.80177 4.99231 8.79494 5.00224 8.78502L4.7901 8.57289C4.79925 8.56374 4.80792 8.55755 4.81384 8.55375C4.81913 8.55035 4.82367 8.548 4.82289 8.54841C4.82289 8.54841 4.82288 8.54842 4.82284 8.54844C4.82281 8.54845 4.82277 8.54848 4.82271 8.54851C4.82261 8.54856 4.82244 8.54865 4.82224 8.54876C4.82184 8.54898 4.82118 8.54933 4.82039 8.54977C4.81883 8.55062 4.8163 8.55205 4.81328 8.55392C4.80717 8.5577 4.79805 8.5639 4.78829 8.57306L4.99358 8.79181ZM5.00224 8.78502C5.01216 8.7751 5.01898 8.76559 5.02335 8.75879C5.02732 8.75262 5.03017 8.74716 5.03024 8.74702C5.0306 8.74634 5.03013 8.74725 5.02962 8.74815C5.02902 8.74925 5.02785 8.75133 5.02625 8.75391C5.02303 8.75913 5.01744 8.7674 5.00903 8.77637L4.79027 8.57107C4.78111 8.58083 4.77491 8.58996 4.77114 8.59606C4.76927 8.59909 4.76784 8.60162 4.76698 8.60318C4.76654 8.60397 4.76619 8.60462 4.76598 8.60502C4.76587 8.60522 4.76578 8.6054 4.76572 8.6055C4.76569 8.60555 4.76567 8.6056 4.76565 8.60563C4.76563 8.60566 4.76563 8.60567 4.76562 8.60568C4.76521 8.60645 4.76756 8.60192 4.77096 8.59662C4.77477 8.5907 4.78096 8.58204 4.7901 8.57289L5.00224 8.78502ZM5.00572 8.77979L9.64032 4.14518L9.42819 3.93305L4.79358 8.56765L5.00572 8.77979ZM9.42819 4.14518L10.4998 5.21683L10.7119 5.0047L9.64032 3.93305L9.42819 4.14518ZM10.4998 5.0047L4.27044 11.2342L4.48257 11.4463L10.7119 5.21683L10.4998 5.0047ZM4.48253 11.2341L4.45047 11.2021L4.23842 11.4143L4.27048 11.4463L4.48253 11.2341ZM4.45052 11.2021L3.41088 10.1625L3.19875 10.3746L4.23838 11.4143L4.45052 11.2021ZM3.57011 7.07096L4.06229 6.57877L3.85016 6.36664L3.35798 6.85883L3.57011 7.07096ZM4.06229 6.57877C4.199 6.44207 4.199 6.22053 4.06229 6.08383L3.85016 6.29596C3.86971 6.31551 3.86971 6.34709 3.85016 6.36664L4.06229 6.57877ZM4.06229 6.08383C3.92559 5.94712 3.70405 5.94712 3.56735 6.08383L3.77948 6.29596C3.79903 6.27641 3.83062 6.27641 3.85016 6.29596L4.06229 6.08383ZM3.56735 6.08383L3.07508 6.5761L3.28721 6.78823L3.77948 6.29596L3.56735 6.08383ZM3.28718 6.57607L2.10611 5.39571L1.89404 5.6079L3.07511 6.78826L3.28718 6.57607ZM2.106 5.3956C2.09697 5.38659 2.09178 5.37475 2.09178 5.3604H1.79178C1.79178 5.45347 1.82799 5.54203 1.89415 5.60801L2.106 5.3956ZM2.09178 5.3604C2.09178 5.34626 2.09696 5.33414 2.10624 5.32487L1.89411 5.11273C1.82799 5.17885 1.79178 5.26751 1.79178 5.3604H2.09178ZM2.10624 5.32487L5.32519 2.10592L5.11305 1.89379L1.89411 5.11273L2.10624 5.32487ZM5.32573 2.10537C5.33258 2.09846 5.34431 2.09277 5.3595 2.09277C5.37448 2.09277 5.38679 2.09832 5.39475 2.10636L5.60795 1.8953C5.4723 1.75828 5.24621 1.75924 5.11251 1.89434L5.32573 2.10537ZM5.39528 2.1069L8.14803 4.85964L8.36016 4.64751L5.60741 1.89476L5.39528 2.1069ZM8.14803 4.64751L4.64776 8.14782L4.85989 8.35995L8.36016 4.85964L8.14803 4.64751ZM4.85986 8.14778L3.57007 6.85879L3.35801 7.07099L4.64779 8.35998L4.85986 8.14778ZM2.06427 14.126L3.24847 10.6855L2.9648 10.5879L1.78061 14.0284L2.06427 14.126ZM3.00061 10.7428L3.93549 11.677L4.14755 11.4648L3.21266 10.5306L3.00061 10.7428ZM3.93545 11.677L4.12878 11.8703L4.34091 11.6581L4.14759 11.4648L3.93545 11.677ZM4.12878 11.8703L5.25719 12.9987L5.46933 12.7866L4.34091 11.6581L4.12878 11.8703ZM5.31443 12.7508L1.87361 13.9354L1.97127 14.219L5.41209 13.0345L5.31443 12.7508ZM13.8935 10.6033C13.9025 10.6123 13.9077 10.6242 13.9077 10.6385H14.2077C14.2077 10.5455 14.1715 10.4569 14.1053 10.3909L13.8935 10.6033ZM13.9077 10.6385C13.9077 10.6527 13.9025 10.6648 13.8932 10.6741L14.1054 10.8862C14.1715 10.8201 14.2077 10.7314 14.2077 10.6385H13.9077ZM13.8932 10.6741L10.6743 13.893L10.8864 14.1051L14.1054 10.8862L13.8932 10.6741ZM10.6737 13.8936C10.6669 13.9005 10.6552 13.9062 10.64 13.9062C10.625 13.9061 10.6126 13.9006 10.6047 13.8925L10.3916 14.1037C10.5269 14.2402 10.7529 14.2402 10.887 14.1045L10.6737 13.8936ZM10.6042 13.892L9.89613 13.1839L9.68398 13.396L10.3921 14.1042L10.6042 13.892ZM9.89613 13.396L10.6475 12.6446L10.4353 12.4325L9.68398 13.1839L9.89613 13.396ZM10.6475 12.6446C10.7842 12.5079 10.7842 12.2864 10.6475 12.1496L10.4353 12.3618C10.4549 12.3813 10.4549 12.4129 10.4353 12.4325L10.6475 12.6446ZM10.6475 12.1496C10.5107 12.0129 10.2892 12.0129 10.1525 12.1496L10.3646 12.3618C10.3842 12.3422 10.4158 12.3422 10.4353 12.3618L10.6475 12.1496ZM10.1525 12.1497L9.40108 12.9012L9.61323 13.1133L10.3646 12.3618L10.1525 12.1497ZM9.61322 12.9012L8.63088 11.9188L8.41874 12.1309L9.40109 13.1133L9.61322 12.9012ZM8.63087 12.1309L9.12265 11.6391L8.91051 11.427L8.41874 11.9188L8.63087 12.1309ZM9.12265 11.6391C9.25935 11.5024 9.25935 11.2809 9.12265 11.1442L8.91051 11.3563C8.93006 11.3759 8.93006 11.4074 8.91051 11.427L9.12265 11.6391ZM9.12265 11.1442C8.98594 11.0075 8.76441 11.0075 8.6277 11.1442L8.83983 11.3563C8.85938 11.3368 8.89097 11.3368 8.91051 11.3563L9.12265 11.1442ZM8.6277 11.1442L8.13594 11.6359L8.34807 11.8481L8.83983 11.3563L8.6277 11.1442ZM8.34808 11.6359L7.85148 11.1393L7.63934 11.3515L8.13594 11.8481L8.34808 11.6359ZM7.85148 11.3515L11.3528 7.85023L11.1407 7.6381L7.63935 11.1393L7.85148 11.3515ZM11.1406 7.85023L13.8933 10.6032L14.1055 10.3911L11.3528 7.6381L11.1406 7.85023Z" fill="white" mask="url(#path-2-outside-1)"/>
<path d="M3.92464 5.38347C3.72981 5.18888 3.62234 4.92919 3.62234 4.65371C3.62234 4.37841 3.72982 4.11878 3.92454 3.92404L3.92464 5.38347ZM3.92464 5.38347C3.92462 5.38345 3.92459 5.38343 3.92457 5.38341L4.03063 5.27735L3.92464 5.38347ZM5.3842 3.92404C4.98168 3.52129 4.32711 3.52128 3.92457 3.92401L4.03064 4.03008C3.86404 4.19668 3.77234 4.41816 3.77234 4.65371C3.77234 4.88945 3.86404 5.11094 4.03064 5.27734C4.19724 5.44395 4.41882 5.53574 4.65437 5.53574C4.89001 5.53574 5.1116 5.44395 5.2781 5.27734L5.3841 5.38347C5.38412 5.38346 5.38414 5.38344 5.38415 5.38343C5.57892 5.18887 5.6865 4.92921 5.6865 4.65371C5.6865 4.37837 5.57889 4.11875 5.3842 3.92404ZM4.88922 4.88847C4.76582 5.01187 4.54322 5.01197 4.41952 4.88847C4.35667 4.82561 4.32234 4.74269 4.32234 4.65371C4.32234 4.56476 4.35665 4.48186 4.41946 4.41901C4.54896 4.28964 4.7597 4.28963 4.88922 4.41896C4.95213 4.48186 4.9865 4.56481 4.9865 4.65371C4.9865 4.74268 4.95218 4.82558 4.88928 4.88841L4.88922 4.88847Z" fill="white" stroke="white" stroke-width="0.3"/>
</svg>
