<?xml version="1.0" encoding="UTF-8" standalone="no"?>
<svg
   xmlns:dc="http://purl.org/dc/elements/1.1/"
   xmlns:cc="http://creativecommons.org/ns#"
   xmlns:rdf="http://www.w3.org/1999/02/22-rdf-syntax-ns#"
   xmlns:svg="http://www.w3.org/2000/svg"
   xmlns="http://www.w3.org/2000/svg"
   xmlns:sodipodi="http://sodipodi.sourceforge.net/DTD/sodipodi-0.dtd"
   xmlns:inkscape="http://www.inkscape.org/namespaces/inkscape"
   width="16"
   height="16"
   viewBox="0 0 16 16"
   fill="none"
   version="1.1"
   id="svg6"
   sodipodi:docname="plotRateSpectrogram.svg"
   inkscape:version="0.92.5 (2060ec1f9f, 2020-04-08)">
  <metadata
     id="metadata12">
    <rdf:RDF>
      <cc:Work
         rdf:about="">
        <dc:format>image/svg+xml</dc:format>
        <dc:type
           rdf:resource="http://purl.org/dc/dcmitype/StillImage" />
      </cc:Work>
    </rdf:RDF>
  </metadata>
  <defs
     id="defs10" />
  <sodipodi:namedview
     pagecolor="#ffffff"
     bordercolor="#666666"
     borderopacity="1"
     objecttolerance="10"
     gridtolerance="10"
     guidetolerance="10"
     inkscape:pageopacity="0"
     inkscape:pageshadow="2"
     inkscape:window-width="1216"
     inkscape:window-height="741"
     id="namedview8"
     showgrid="false"
     inkscape:zoom="14.75"
     inkscape:cx="2.8474576"
     inkscape:cy="8"
     inkscape:window-x="0"
     inkscape:window-y="27"
     inkscape:window-maximized="0"
     inkscape:current-layer="svg6" />
  <path
     d="M14.7045 14.2939L14.708 15.294L1.20001 15.345L1.19601 14.3449L14.7045 14.2939Z"
     fill="#EB517A"
     id="path2"
     style="fill:#0000ff" />
  <path
     d="M 5.6603705,13.068613 C 5.2878499,13.049776 5.3936431,13.136642 5.2693133,12.907281 5.208858,12.306327 5.208858,12.306327 5.0279846,10.503905 4.9654247,9.8786819 4.9883536,10.106356 4.9596902,9.821322 4.9293622,9.9834923 4.8990364,10.146104 4.8687084,10.308274 4.8225046,10.557051 4.4208847,10.553815 4.3805331,10.3046 4.3161973,9.9120335 4.2518676,9.5194673 4.1880289,9.1268984 4.0527192,8.2998616 4.1032699,8.6090634 4.0363759,8.1992934 3.9784647,8.3823537 3.9210362,8.5649701 3.86312,8.7480304 3.7906183,8.9797259 3.4136143,8.9551734 3.3802419,8.7165164 3.3207247,8.2983209 3.3207247,8.2983209 3.1426575,7.0428492 L 3.128816,6.9471239 C 3.0817718,7.2250417 3.0352277,7.5029568 2.9876875,7.7808771 l -0.012135,0.043767 c -0.085014,0.2043892 -0.085014,0.2043892 -0.3390513,0.817552 -0.25453,0.6136069 -0.25453,0.6136069 -0.3390451,0.8179937 L 1.8332432,9.3071795 C 1.918253,9.1023487 2.0032568,8.897518 2.0882613,8.6922458 2.2265216,8.3595607 2.3642846,8.0264367 2.5025436,7.6933102 2.5692739,7.2996297 2.6359972,6.9059493 2.7022295,6.5122715 2.8548745,5.6096186 2.8548745,5.6096186 2.9057568,5.3087254 c 0.043209,-0.2536181 0.4542332,-0.2495476 0.490158,0.00458 0.059519,0.418637 0.059519,0.418637 0.2370893,1.6736434 0.067717,0.4746599 0.039502,0.2770321 0.084659,0.5937662 0.052555,-0.166699 0.1051192,-0.333398 0.1571843,-0.5000943 0.072513,-0.2294883 0.444553,-0.208442 0.4828577,0.027541 0.064329,0.3912419 0.064329,0.3912419 0.2558253,1.5658581 l 0.027566,0.1667293 c 0.049088,-0.2655675 0.098664,-0.5311374 0.1482437,-0.7967074 0.04765,-0.2554065 0.4641636,-0.2420934 0.4902178,0.016025 0.060449,0.6009164 0.060449,0.6009164 0.2408288,2.4037828 0.070881,0.704642 0.040124,0.397546 0.092768,0.921727 0.110329,-0.474691 0.2211553,-0.948943 0.3319794,-1.4236363 0.05318,-0.2289475 0.4166614,-0.236552 0.481626,-0.00998 0.067487,0.2362741 0.1349746,0.4725491 0.2024597,0.7083821 0.093418,-0.396908 0.041627,-0.176797 0.1548806,-0.65989 C 7.0638461,8.8070909 7.0638461,8.8070909 7.1572596,8.4093004 7.2129189,8.1719525 7.595258,8.176612 7.6429761,8.4156366 7.6769893,8.5863058 7.7110026,8.7569749 7.7450181,8.9280855 7.8360449,8.5470826 7.7823005,8.7720599 7.9062466,8.2522707 8.2238351,6.9156755 8.2238351,6.9156755 8.329865,6.4705845 8.3836026,6.2442832 8.7411362,6.23406 8.8100392,6.4570835 8.8744117,6.6646792 8.9387844,6.8722748 9.0031569,7.0798706 L 9.0559076,6.8540154 C 9.2519118,6.0155925 9.2519118,6.0155925 9.3172472,5.7362565 9.3699934,5.5095188 9.7280192,5.498852 9.7974146,5.7214308 c 0.092023,0.2948625 0.092023,0.2948625 0.3685834,1.1789788 0.121188,0.3883013 0.06085,0.1948116 0.181028,0.5800279 l 0.0054,-0.010623 C 10.56433,7.0338923 10.56433,7.0338923 10.6353,6.8887302 c 0.09642,-0.1973846 0.42003,-0.1681435 0.469087,0.042621 0.04552,0.1966561 0.09154,0.3933096 0.137556,0.5899631 0.07824,-0.3663692 0.03139,-0.1480491 0.139578,-0.6540723 0.279168,-1.3059107 0.279168,-1.3059107 0.372389,-1.7412239 0.05169,-0.2404184 0.437967,-0.238869 0.486188,0.0019 0.05126,0.2553403 0.102526,0.5102395 0.153295,0.7655823 0.06026,-0.207353 0.0175,-0.059691 0.128304,-0.4416743 0.309587,-1.064616 0.309587,-1.064616 0.412617,-1.4196345 0.0622,-0.2148681 0.401452,-0.2223474 0.475245,-0.010339 0.0492,0.1414544 0.02058,0.058165 0.08685,0.2498596 0.06414,-0.3186195 0.128287,-0.6376799 0.19243,-0.9567413 l 0.48707,0.077401 c -0.04679,0.2315632 -0.09308,0.4631238 -0.139862,0.695129 -0.07716,0.3844631 -0.154816,0.7689287 -0.231976,1.1533928 -0.04582,0.2275852 -0.402807,0.2475167 -0.479612,0.026742 -0.04317,-0.124269 -0.08635,-0.2489791 -0.130016,-0.3736876 -0.125379,0.4332712 -0.06074,0.2108866 -0.193911,0.6680361 -0.309093,1.0645881 -0.309093,1.0645881 -0.412125,1.4191651 -0.06658,0.2294578 -0.4361,0.2172278 -0.482799,-0.016063 -0.03908,-0.1944817 -0.07767,-0.3889661 -0.11675,-0.5834479 -0.05989,0.2797196 -0.01932,0.090568 -0.12172,0.5678667 -0.279168,1.3059374 -0.279168,1.3059374 -0.372389,1.7412508 -0.05072,0.236881 -0.429553,0.2401499 -0.484676,0.00381 -0.04905,-0.2089987 -0.04905,-0.2089987 -0.195203,-0.8364414 l -0.03641,-0.1565303 c -0.08516,0.175254 -0.170319,0.3500665 -0.255478,0.5253204 -0.09299,0.1907451 -0.402702,0.1715863 -0.465057,-0.028515 C 9.965893,7.9035396 9.965893,7.9035396 9.6893324,7.0193969 9.5968057,6.7227715 9.6284877,6.8245853 9.5937912,6.7135164 L 9.540074,6.9437948 C 9.3445622,7.7818002 9.3445622,7.7818002 9.2792291,8.0615776 9.2259883,8.2883182 8.8679625,8.2989849 8.7985626,8.0755226 8.7336841,7.8657222 8.6683111,7.6559244 8.6034303,7.4456825 L 8.4949819,7.901381 c -0.176225,0.7412274 -0.35245,1.4824549 -0.5291696,2.223685 -0.056154,0.23735 -0.4375061,0.232244 -0.4852218,-0.0063 -0.033505,-0.1680229 -0.06701,-0.336046 -0.1005176,-0.5045104 -0.049849,0.2130379 -0.013075,0.054366 -0.1118062,0.4760224 -0.2797458,1.193369 -0.2797458,1.193369 -0.3731615,1.590718 -0.053724,0.228951 -0.4167115,0.236553 -0.4816761,0.01 -0.067483,-0.235391 -0.1344709,-0.470785 -0.2019536,-0.706177 -0.062422,0.268726 -0.023228,0.09989 -0.1180771,0.506957 -0.2520858,1.080214 -0.2520858,1.080214 -0.3358001,1.440431 z"
     id="path4"
     style="fill:#0000ff;stroke-width:0.93452179"
     inkscape:connector-curvature="0" />
</svg>
