<svg width="16" height="16" viewBox="0 0 16 16" fill="none" xmlns="http://www.w3.org/2000/svg">
<path fill-rule="evenodd" clip-rule="evenodd" d="M12.9668 14.3053C12.7718 13.6403 12.6103 12.8932 12.6103 12.2728C12.6103 10.8062 13.4103 9.07285 14.4103 7.93952C15.4103 6.80618 14.9437 3.73952 14.2103 2.87285C14.18 2.83705 14.1488 2.79988 14.1166 2.76152C13.3692 1.87122 12.0809 0.336764 9.07699 0.272851C5.94366 0.206185 4.74365 0.672884 3.94366 1.67285C3.67698 2.00618 2.87699 3.13953 2.74366 3.67286C2.61032 4.20619 2.27699 5.27286 2.14366 5.53953C2.07798 5.67087 2.19022 5.76987 2.32901 5.89229C2.47199 6.01841 2.64316 6.16938 2.67699 6.40619C2.74366 6.87286 2.67699 7.40617 2.27699 7.93952C2.12454 8.14279 1.93334 8.36544 1.7477 8.58162C1.44628 8.93262 1.15951 9.26657 1.07699 9.47286C1.02025 9.61472 1.20501 9.65999 1.43599 9.71657C1.74773 9.79293 2.14366 9.88992 2.14366 10.2729C2.14366 10.4458 2.12497 10.6 2.09668 10.7333C2.06167 10.8982 2.12193 11.0777 2.18201 11.2566C2.22956 11.3981 2.27699 11.5394 2.27699 11.6729C2.27699 11.9391 2.35709 12.2251 2.5462 12.4126C2.65803 12.5234 2.74366 12.6581 2.74366 12.8062C2.74366 12.888 2.7325 13.0005 2.71989 13.1277C2.67083 13.6224 2.59971 14.3395 3.07699 14.3395C3.94366 14.3395 7.34366 13.2062 8.01033 12.6729C8.19198 12.5275 8.24466 12.3355 8.28842 12.1761C8.3351 12.006 8.37162 11.8729 8.54366 11.8729C8.87699 11.8729 8.81033 12.6062 8.47699 12.9395C8.33027 13.0862 7.90775 13.307 7.46479 13.5128C6.95786 13.7485 6.83355 14.3425 7.01033 14.8729C7.18052 15.3834 7.64556 15.7395 8.18377 15.7395H11.9538C12.6734 15.7395 13.1692 14.9959 12.9668 14.3053ZM11.0666 2.13955C11.0666 2.72865 10.5891 3.20622 9.99998 3.20622L9.97682 3.20597C9.92416 3.43343 9.92455 3.71606 9.95606 3.99748C9.9802 4.21311 10.0208 4.41252 10.0589 4.56171C10.2532 4.64934 10.4457 4.75787 10.6164 4.8956C10.7572 4.61598 10.9744 4.30276 11.2918 4.03974C11.2328 3.90728 11.2 3.76058 11.2 3.60622C11.2 3.01711 11.6775 2.53955 12.2666 2.53955C12.8558 2.53955 13.3333 3.01711 13.3333 3.60622C13.3333 4.19532 12.8558 4.67288 12.2666 4.67288C12.0752 4.67288 11.8956 4.62246 11.7403 4.53418C11.3489 4.8479 11.156 5.2716 11.0886 5.50087C11.1413 5.6227 11.1782 5.75421 11.1971 5.89551C11.2137 6.02069 11.2114 6.14844 11.1958 6.27576C11.4824 6.32125 11.8182 6.45606 12.0984 6.76528C12.2312 6.7059 12.3784 6.67288 12.5333 6.67288C13.1224 6.67288 13.6 7.15045 13.6 7.73955C13.6 8.32865 13.1224 8.80621 12.5333 8.80621C11.9442 8.80621 11.4666 8.32865 11.4666 7.73955C11.4666 7.54834 11.517 7.36888 11.6051 7.21369C11.4173 7.00633 11.1867 6.93876 11.0225 6.92528C10.8813 7.2949 10.6775 7.68157 10.494 8.02961L10.4939 8.02976L10.4934 8.03078C10.4498 8.11345 10.4074 8.19393 10.3672 8.27149C10.2407 8.51585 10.1351 8.73266 10.0671 8.91893C9.99549 9.11495 9.98498 9.22697 9.9946 9.27993C10.0156 9.39555 10.0728 9.51254 10.1759 9.66021C10.2415 9.75419 10.3088 9.83868 10.3859 9.93551L10.386 9.93565C10.442 10.006 10.5032 10.0828 10.5727 10.1745C10.884 10.5853 11.2184 11.1221 11.3304 11.9622C11.4512 12.868 11.5189 13.8338 11.4833 14.7622C11.4763 14.9462 11.317 15.0851 11.1333 15.0729C10.9496 15.0607 10.8111 14.9018 10.8178 14.7179C10.85 13.8434 10.7861 12.924 10.6696 12.0503C10.5782 11.3647 10.3125 10.9349 10.0414 10.5771C9.99399 10.5146 9.9406 10.4472 9.88618 10.3785C9.79582 10.2645 9.70261 10.1468 9.62934 10.0419C9.50175 9.85921 9.38434 9.65025 9.33869 9.39919C9.29582 9.16338 9.3606 8.90999 9.44091 8.69017C9.52478 8.46058 9.64776 8.21111 9.77521 7.96496C9.82071 7.87709 9.86675 7.78953 9.91252 7.7025L9.91296 7.70167L9.91337 7.70089L9.91376 7.70014C10.1339 7.28164 10.3475 6.87557 10.4628 6.50671C10.5314 6.28773 10.5537 6.11456 10.5362 5.98362C10.5218 5.87553 10.4898 5.78233 10.4446 5.69983C10.3107 5.4557 10.0382 5.26705 9.65845 5.11594C9.34091 4.98957 8.99027 4.9051 8.65923 4.82862C8.47372 4.94595 8.23584 5.10495 8.02349 5.26443C7.89345 5.3621 7.77868 5.4557 7.69279 5.53694C7.61678 5.60883 7.58673 5.64974 7.57844 5.66103L7.57843 5.66103C7.57601 5.66433 7.57545 5.66509 7.57614 5.66336L7.55856 5.65633C7.74904 5.849 7.86665 6.11388 7.86665 6.40622C7.86665 6.99532 7.38909 7.47288 6.79998 7.47288C6.21088 7.47288 5.73332 6.99532 5.73332 6.40622C5.73332 5.81711 6.21088 5.33955 6.79998 5.33955C6.86322 5.33955 6.92517 5.34506 6.98538 5.35561C7.04824 5.23847 7.14974 5.13294 7.23468 5.0526C7.34629 4.94703 7.48319 4.83647 7.62314 4.73136C7.65625 4.7065 7.68985 4.6817 7.7237 4.65709C7.02197 4.55463 6.16159 4.46168 5.6531 4.41277C5.49324 4.80021 5.11179 5.07288 4.66665 5.07288C4.07755 5.07288 3.59998 4.59532 3.59998 4.00622C3.59998 3.41711 4.07755 2.93955 4.66665 2.93955C5.16661 2.93955 5.58623 3.28352 5.70178 3.74772C5.99264 3.77557 6.40273 3.81823 6.83534 3.86923C6.79179 3.77413 6.75866 3.66961 6.7414 3.55572C6.31136 3.41819 5.99998 3.01523 5.99998 2.53955C5.99998 1.95045 6.47755 1.47288 7.06665 1.47288C7.65575 1.47288 8.13332 1.95045 8.13332 2.53955C8.13332 3.00372 7.83684 3.39863 7.42292 3.54527C7.45661 3.64177 7.51915 3.73045 7.6016 3.8101C7.7013 3.90643 7.81409 3.97336 7.89007 4.00775C8.19071 4.05259 8.46722 4.10016 8.67494 4.1481L8.74473 4.16416C8.92171 4.20483 9.12085 4.2506 9.32586 4.30674C9.31355 4.23099 9.30255 4.15223 9.29353 4.07164C9.25589 3.73542 9.24904 3.33725 9.34506 2.98519L9.35235 2.98718C9.09761 2.79225 8.93332 2.48509 8.93332 2.13955C8.93332 1.55045 9.41088 1.07288 9.99998 1.07288C10.5891 1.07288 11.0666 1.55045 11.0666 2.13955Z" fill="#EB517A"/>
</svg>
