<svg width="16" height="16" viewBox="0 0 16 16" fill="none" xmlns="http://www.w3.org/2000/svg">
<path d="M13.7763 6.57438C12.768 8.125 9.68903 8.125 8.07209 8.125C6.5899 8.125 3.41651 8.125 2.3679 6.57438C1.20013 4.84754 1.7391 0.0899533 8.07209 0.125195C14.4051 0.160436 14.8991 4.84755 13.7763 6.57438Z" fill="#EB517A" fill-opacity="0.2"/>
<path d="M12.2757 6.98626C11.5322 8.125 9.26186 8.125 8.06957 8.125C6.97665 8.125 4.63667 8.125 3.86345 6.98626C3.00237 5.71812 3.39979 2.22426 8.06957 2.25014C12.7394 2.27602 13.1037 5.71812 12.2757 6.98626Z" fill="#EB517A" fill-opacity="0.4"/>
<path d="M10.5442 7.47083C10.1063 8.125 8.76897 8.125 8.06667 8.125C7.42289 8.125 6.04455 8.125 5.58909 7.47083C5.08188 6.74232 5.31597 4.73521 8.06667 4.75008C10.8174 4.76495 11.032 6.74232 10.5442 7.47083Z" fill="#EB517A"/>
<path d="M2.34872 9.42562C3.35702 7.875 6.43597 7.875 8.05291 7.875C9.5351 7.875 12.7085 7.875 13.7571 9.42562C14.9249 11.1525 14.3859 15.91 8.05291 15.8748C1.71992 15.8396 1.22585 11.1525 2.34872 9.42562Z" fill="#EB517A" fill-opacity="0.2"/>
<path d="M3.84931 9.01374C4.5928 7.875 6.86314 7.875 8.05543 7.875C9.14835 7.875 11.4883 7.875 12.2615 9.01374C13.1226 10.2819 12.7252 13.7757 8.05543 13.7499C3.38564 13.724 3.02134 10.2819 3.84931 9.01374Z" fill="#EB517A" fill-opacity="0.4"/>
<path d="M5.58076 8.52917C6.0187 7.875 7.35603 7.875 8.05833 7.875C8.70211 7.875 10.0805 7.875 10.5359 8.52917C11.0431 9.25768 10.809 11.2648 8.05833 11.2499C5.30764 11.2351 5.09305 9.25768 5.58076 8.52917Z" fill="#EB517A"/>
</svg>
