<svg width="16" height="16" viewBox="0 0 16 16" fill="none" xmlns="http://www.w3.org/2000/svg">
<path d="M5.08002 6.512C5.08002 6.4 5.14402 6.288 5.24002 6.224L5.33602 6.176L4.32802 5.584V5.696C4.32802 5.808 4.26402 5.92 4.16802 5.984L4.07202 6.032L5.09602 6.624V6.512H5.08002Z" fill="#EB517A"/>
<path d="M11.624 10.288C11.624 10.176 11.688 10.064 11.784 10L11.88 9.95201L10.872 9.37601V9.48801C10.872 9.60001 10.808 9.71201 10.712 9.77601L10.616 9.84001L11.624 10.416V10.288Z" fill="#EB517A"/>
<path d="M10.5038 9.648C10.5998 9.584 10.6638 9.488 10.6638 9.36V9.248V6.736V6.624C10.6638 6.512 10.5998 6.4 10.5038 6.336L10.4078 6.288L8.23184 5.024L8.13584 4.992C8.08784 4.96 8.02384 4.944 7.97584 4.944C7.92784 4.944 7.86384 4.96 7.81584 4.992L7.71984 5.056L5.54384 6.304L5.44784 6.352C5.35184 6.416 5.28784 6.512 5.28784 6.64V6.752V9.264V9.376C5.28784 9.488 5.35184 9.6 5.44784 9.664L5.54384 9.728L7.70384 10.976L7.79984 11.04C7.84784 11.072 7.91184 11.088 7.95984 11.088C8.00784 11.088 8.07184 11.072 8.11984 11.04L8.21584 10.992L10.3918 9.744L10.5038 9.648ZM10.0078 7.12V8.88V9.168L9.75184 9.312L8.23184 10.192L7.97584 10.352L7.71984 10.208L6.19984 9.328L5.94384 9.184V8.88V7.12V6.816L6.19984 6.672L7.71984 5.792L7.97584 5.648L8.23184 5.792L9.75184 6.672L10.0078 6.816V7.12Z" fill="#EB517A"/>
<path d="M5.33602 9.824L5.24002 9.76C5.14402 9.696 5.08002 9.6 5.08002 9.472V9.36L4.07202 9.936L4.16802 9.984C4.26402 10.048 4.32802 10.144 4.32802 10.272V10.4L5.33602 9.824Z" fill="#EB517A"/>
<path d="M11.8001 5.984C11.7041 5.92 11.6401 5.824 11.6401 5.696V5.584L10.6321 6.16L10.7281 6.208C10.8241 6.272 10.8881 6.368 10.8881 6.496V6.608L11.8961 6.032L11.8001 5.984Z" fill="#EB517A"/>
<path d="M14.792 3.872L14.696 3.824L13.64 3.216L13.56 3.16799C13.512 3.13599 13.448 3.12 13.4 3.12C13.336 3.12 13.288 3.13599 13.24 3.16799L13.16 3.216L12.088 3.84L12.008 3.888C11.912 3.95199 11.848 4.04799 11.848 4.17599V4.272V5.48799V5.6C11.848 5.712 11.912 5.82399 12.008 5.888L12.104 5.93599L13.16 6.544L13.24 6.592C13.288 6.624 13.352 6.64 13.4 6.64C13.464 6.64 13.512 6.624 13.56 6.592L13.64 6.544L14.712 5.93599L14.792 5.888C14.888 5.82399 14.952 5.728 14.952 5.6V5.504V4.28799V4.16C14.952 4.032 14.888 3.936 14.792 3.872ZM14.472 4.544V5.2V5.48799L14.216 5.61599L13.64 5.952L13.4 6.09599L13.16 5.952L12.6 5.632L12.344 5.48799V5.184V4.544V4.25599L12.584 4.112L13.16 3.77599L13.4 3.632L13.64 3.77599L14.2 4.09599L14.456 4.24V4.544H14.472Z" fill="#EB517A"/>
<path d="M7.97597 4.704C8.03997 4.704 8.08797 4.72 8.13597 4.752L8.23197 4.8V3.648L8.13597 3.696C8.08797 3.728 8.02397 3.744 7.97597 3.744C7.92797 3.744 7.86397 3.728 7.81597 3.696L7.71997 3.632V4.8L7.81597 4.736C7.86397 4.704 7.92797 4.704 7.97597 4.704Z" fill="#EB517A"/>
<path d="M7.97597 11.296C7.91197 11.296 7.86397 11.28 7.81597 11.248L7.71997 11.2V12.368L7.81597 12.32C7.86397 12.288 7.92797 12.272 7.97597 12.272C8.02397 12.272 8.08797 12.288 8.13597 12.32L8.23197 12.368V11.2L8.13597 11.248C8.08797 11.28 8.03997 11.296 7.97597 11.296Z" fill="#EB517A"/>
<path d="M2.55189 6.86401C2.48789 6.86401 2.43989 6.84801 2.39189 6.81601L2.31189 6.76801V9.232L2.40789 9.184C2.45589 9.152 2.51989 9.136 2.56789 9.136C2.61589 9.136 2.67989 9.152 2.72789 9.184L2.79189 9.232V6.76801L2.71189 6.81601C2.66389 6.84801 2.61589 6.86401 2.55189 6.86401Z" fill="#EB517A"/>
<path d="M13.3999 9.136C13.4639 9.136 13.5119 9.152 13.5599 9.184L13.6399 9.232V6.76801L13.5599 6.81601C13.5119 6.84801 13.4479 6.86401 13.3999 6.86401C13.3359 6.86401 13.2879 6.84801 13.2399 6.81601L13.1599 6.76801V9.216L13.2399 9.168C13.2879 9.152 13.3359 9.136 13.3999 9.136Z" fill="#EB517A"/>
<path d="M11.624 11.952V11.856L9.49597 13.088L9.57597 13.136C9.67197 13.2 9.73597 13.296 9.73597 13.424V13.52L11.864 12.288L11.784 12.24C11.688 12.176 11.624 12.08 11.624 11.952Z" fill="#EB517A"/>
<path d="M9.36807 13.264L9.28807 13.216L8.23207 12.608L8.13607 12.544C8.08807 12.512 8.02407 12.496 7.97607 12.496C7.92807 12.496 7.86407 12.512 7.81607 12.544L7.72007 12.592L6.66407 13.2L6.58407 13.248C6.48807 13.312 6.42407 13.408 6.42407 13.536V13.632V14.864V14.96C6.42407 15.072 6.48807 15.184 6.58407 15.248L6.66407 15.296L7.72007 15.904L7.81607 15.952C7.86407 15.984 7.92807 16 7.97607 16C8.02407 16 8.08807 15.984 8.13607 15.952L8.23207 15.904L9.28807 15.296L9.36807 15.248C9.46407 15.184 9.52807 15.088 9.52807 14.96V14.864V13.632V13.536C9.54407 13.424 9.48007 13.312 9.36807 13.264ZM9.04807 13.92V14.592V14.88L8.80807 15.024L8.24807 15.344L7.99207 15.488L7.73607 15.344L7.17607 15.024L6.93607 14.88V14.592V13.92V13.632L7.17607 13.488L7.73607 13.168L7.99207 13.024L8.24807 13.168L8.80807 13.488L9.04807 13.632V13.92Z" fill="#EB517A"/>
<path d="M14.792 10.128L14.712 10.08L13.656 9.47201L13.576 9.42401C13.528 9.39201 13.464 9.37601 13.416 9.37601C13.368 9.37601 13.304 9.39201 13.256 9.42401L13.176 9.47201L12.104 10.08L12.008 10.128C11.912 10.192 11.848 10.288 11.848 10.416V10.528V11.744V11.84C11.848 11.952 11.912 12.064 12.008 12.128L12.088 12.176L13.16 12.8L13.24 12.848C13.288 12.88 13.352 12.896 13.4 12.896C13.448 12.896 13.512 12.88 13.56 12.848L13.64 12.8L14.696 12.192L14.792 12.144C14.888 12.08 14.952 11.984 14.952 11.856V11.744V10.528V10.432C14.952 10.304 14.888 10.192 14.792 10.128ZM14.456 10.8V11.456V11.76L14.2 11.904L13.64 12.224L13.384 12.368L13.144 12.224L12.568 11.888L12.328 11.744V11.456V10.8V10.496L12.584 10.352L13.144 10.032L13.384 9.88801L13.64 10.032L14.216 10.368L14.456 10.512V10.8Z" fill="#EB517A"/>
<path d="M4.32789 11.872V11.968C4.32789 12.08 4.26389 12.192 4.16789 12.256L4.08789 12.304L6.21589 13.52V13.424C6.21589 13.312 6.27989 13.2 6.37589 13.136L6.45589 13.088L4.32789 11.872Z" fill="#EB517A"/>
<path d="M4.11999 11.744V10.528V10.416C4.11999 10.304 4.05599 10.192 3.95999 10.128L3.86399 10.08L2.80799 9.47201L2.74399 9.42401C2.69599 9.39201 2.63199 9.37601 2.58399 9.37601C2.53599 9.37601 2.47199 9.39201 2.42399 9.42401L2.32799 9.47201L1.25599 10.08L1.17599 10.128C1.07999 10.192 1.01599 10.288 1.01599 10.416V10.512V11.728V11.84C1.01599 11.952 1.07999 12.064 1.17599 12.128L1.27199 12.176L2.31199 12.784L2.40799 12.832C2.45599 12.864 2.51999 12.88 2.56799 12.88C2.61599 12.88 2.67999 12.864 2.72799 12.832L2.79199 12.784L3.86399 12.16L3.94399 12.112C4.03999 12.048 4.10399 11.952 4.10399 11.824V11.744H4.11999ZM3.62399 10.816V11.472V11.76L3.38399 11.904L2.79199 12.24L2.55199 12.368L2.29599 12.224L1.75199 11.904L1.49599 11.76V11.456V10.8V10.512L1.73599 10.368L2.29599 10.048L2.55199 9.90401L2.79199 10.032L3.36799 10.368L3.62399 10.512V10.816Z" fill="#EB517A"/>
<path d="M4.32789 4.032V4.128L6.45589 2.896L6.37589 2.864C6.27989 2.8 6.21589 2.704 6.21589 2.576V2.48L4.08789 3.712L4.16789 3.76C4.26389 3.808 4.32789 3.92 4.32789 4.032Z" fill="#EB517A"/>
<path d="M6.58395 2.736L6.66395 2.784L7.71995 3.392L7.81595 3.456C7.86395 3.488 7.92795 3.504 7.97595 3.504C8.02395 3.504 8.08795 3.488 8.13595 3.456L8.23195 3.408L9.28795 2.8L9.36795 2.752C9.46395 2.688 9.52795 2.592 9.52795 2.464V2.368V1.136V1.04C9.52795 0.928001 9.46395 0.816001 9.36795 0.752001L9.28795 0.704L8.23195 0.0960001L8.13595 0.0480001C8.08795 0.016 8.02395 0 7.97595 0C7.92795 0 7.86395 0.016 7.81595 0.0480001L7.71995 0.112L6.67995 0.720001L6.59995 0.768001C6.50395 0.832001 6.43995 0.928001 6.43995 1.056V1.152V2.384V2.48C6.42395 2.576 6.48795 2.688 6.58395 2.736ZM6.91995 2.08V1.424V1.136L7.15995 0.992001L7.71995 0.672L7.99195 0.512L8.24795 0.656001L8.80795 0.976001L9.04795 1.12V1.408V2.08V2.368L8.80795 2.512L8.23195 2.848L7.97595 2.976L7.71995 2.816L7.15995 2.496L6.91995 2.352V2.08Z" fill="#EB517A"/>
<path d="M1.16 5.856L1.24 5.904L2.312 6.512L2.392 6.56C2.44 6.592 2.504 6.608 2.552 6.608C2.616 6.608 2.664 6.592 2.712 6.56L2.792 6.512L3.848 5.904L3.944 5.856C4.04 5.792 4.104 5.696 4.104 5.568V5.456V4.24V4.16C4.104 4.048 4.04 3.936 3.944 3.872L3.864 3.824L2.792 3.2L2.712 3.152C2.664 3.12 2.6 3.104 2.552 3.104C2.488 3.104 2.44 3.12 2.392 3.152L2.312 3.2L1.256 3.824L1.16 3.872C1.064 3.936 1 4.032 1 4.16V4.272V5.488V5.584C1 5.696 1.064 5.808 1.16 5.856ZM1.48 5.2V4.544V4.24L1.736 4.096L2.296 3.776L2.536 3.632L2.776 3.776L3.352 4.112L3.592 4.256V4.544V5.184V5.488L3.336 5.632L2.776 5.952L2.536 6.096L2.296 5.952L1.736 5.632L1.496 5.488V5.2H1.48Z" fill="#EB517A"/>
<path d="M11.624 4.128V4.032C11.624 3.92 11.688 3.808 11.784 3.744L11.864 3.696L9.73597 2.48V2.576C9.73597 2.688 9.67197 2.8 9.57597 2.864L9.49597 2.912L11.624 4.128Z" fill="#EB517A"/>
</svg>
