<svg width="16" height="16" viewBox="0 0 16 16" fill="none" xmlns="http://www.w3.org/2000/svg">
<path d="M7.22943 12.5892L6.08577 12.2573C5.96578 12.2236 5.89829 12.098 5.93204 11.978L8.49121 3.16242C8.52496 3.04242 8.65057 2.97493 8.77056 3.00868L9.91423 3.34053C10.0342 3.37427 10.1017 3.49989 10.068 3.61988L7.50879 12.4354C7.47317 12.5554 7.34943 12.6248 7.22943 12.5892ZM5.0921 10.4856L5.90766 9.61566C5.99391 9.52379 5.98828 9.37755 5.89266 9.29319L4.19405 7.79893L5.89266 6.30467C5.98828 6.2203 5.99578 6.07406 5.90766 5.9822L5.0921 5.11226C5.00773 5.02227 4.86524 5.01665 4.77338 5.10289L2.07171 7.63394C1.9761 7.72206 1.9761 7.87392 2.07171 7.96204L4.77338 10.495C4.86524 10.5812 5.00773 10.5775 5.0921 10.4856ZM11.2266 10.4968L13.9283 7.96391C14.0239 7.8758 14.0239 7.72393 13.9283 7.63582L11.2266 5.10101C11.1366 5.01665 10.9941 5.0204 10.9079 5.11039L10.0923 5.98032C10.0061 6.07219 10.0117 6.21843 10.1073 6.30279L11.806 7.79893L10.1073 9.29319C10.0117 9.37755 10.0042 9.52379 10.0923 9.61566L10.9079 10.4856C10.9923 10.5775 11.1348 10.5812 11.2266 10.4968Z" fill="#EB517A"/>
</svg>