<svg width="16" height="16" viewBox="0 0 16 16" fill="none" xmlns="http://www.w3.org/2000/svg">
<path d="M12.1439 14.976C12.5593 14.976 12.8959 14.6393 12.8959 14.224C12.8959 13.8087 12.5593 13.472 12.1439 13.472C11.7286 13.472 11.3919 13.8087 11.3919 14.224C11.3919 14.6393 11.7286 14.976 12.1439 14.976Z" fill="#EB517A"/>
<path d="M10.08 14.976C10.4953 14.976 10.832 14.6393 10.832 14.224C10.832 13.8087 10.4953 13.472 10.08 13.472C9.66466 13.472 9.32797 13.8087 9.32797 14.224C9.32797 14.6393 9.66466 14.976 10.08 14.976Z" fill="#EB517A"/>
<path d="M7.99995 14.976C8.41527 14.976 8.75195 14.6393 8.75195 14.224C8.75195 13.8087 8.41527 13.472 7.99995 13.472C7.58464 13.472 7.24796 13.8087 7.24796 14.224C7.24796 14.6393 7.58464 14.976 7.99995 14.976Z" fill="#EB517A"/>
<path d="M5.91997 14.976C6.33529 14.976 6.67197 14.6393 6.67197 14.224C6.67197 13.8087 6.33529 13.472 5.91997 13.472C5.50465 13.472 5.16797 13.8087 5.16797 14.224C5.16797 14.6393 5.50465 14.976 5.91997 14.976Z" fill="#EB517A"/>
<path d="M3.85597 14.976C4.27129 14.976 4.60798 14.6393 4.60798 14.224C4.60798 13.8087 4.27129 13.472 3.85597 13.472C3.44066 13.472 3.10397 13.8087 3.10397 14.224C3.10397 14.6393 3.44066 14.976 3.85597 14.976Z" fill="#EB517A"/>
<path d="M1.77599 14.976C2.1913 14.976 2.52799 14.6393 2.52799 14.224C2.52799 13.8087 2.1913 13.472 1.77599 13.472C1.36067 13.472 1.02399 13.8087 1.02399 14.224C1.02399 14.6393 1.36067 14.976 1.77599 14.976Z" fill="#EB517A"/>
<path d="M12.144 2.448C12.5151 2.448 12.816 2.14714 12.816 1.776C12.816 1.40487 12.5151 1.104 12.144 1.104C11.7728 1.104 11.472 1.40487 11.472 1.776C11.472 2.14714 11.7728 2.448 12.144 2.448Z" fill="#EB517A"/>
<path d="M10.08 2.38397C10.4157 2.38397 10.688 2.11176 10.688 1.77597C10.688 1.44018 10.4157 1.16797 10.08 1.16797C9.74416 1.16797 9.47195 1.44018 9.47195 1.77597C9.47195 2.11176 9.74416 2.38397 10.08 2.38397Z" fill="#EB517A"/>
<path d="M7.99995 2.30398C8.29156 2.30398 8.52795 2.06759 8.52795 1.77599C8.52795 1.48438 8.29156 1.24799 7.99995 1.24799C7.70835 1.24799 7.47195 1.48438 7.47195 1.77599C7.47195 2.06759 7.70835 2.30398 7.99995 2.30398Z" fill="#EB517A"/>
<path d="M5.91995 2.224C6.16738 2.224 6.36795 2.02343 6.36795 1.776C6.36795 1.52858 6.16738 1.328 5.91995 1.328C5.67253 1.328 5.47195 1.52858 5.47195 1.776C5.47195 2.02343 5.67253 2.224 5.91995 2.224Z" fill="#EB517A"/>
<path d="M3.85595 2.15997C4.06803 2.15997 4.23995 1.98805 4.23995 1.77597C4.23995 1.56389 4.06803 1.39197 3.85595 1.39197C3.64388 1.39197 3.47195 1.56389 3.47195 1.77597C3.47195 1.98805 3.64388 2.15997 3.85595 2.15997Z" fill="#EB517A"/>
<path d="M1.77595 2.07998C1.94385 2.07998 2.07995 1.94388 2.07995 1.77598C2.07995 1.60809 1.94385 1.47198 1.77595 1.47198C1.60806 1.47198 1.47195 1.60809 1.47195 1.77598C1.47195 1.94388 1.60806 2.07998 1.77595 2.07998Z" fill="#EB517A"/>
<path d="M14.224 2.52799C14.6393 2.52799 14.976 2.19131 14.976 1.77599C14.976 1.36067 14.6393 1.02399 14.224 1.02399C13.8086 1.02399 13.472 1.36067 13.472 1.77599C13.472 2.19131 13.8086 2.52799 14.224 2.52799Z" fill="#EB517A"/>
<path d="M1.77594 4.23998C1.98801 4.23998 2.15994 4.06806 2.15994 3.85598C2.15994 3.64391 1.98801 3.47198 1.77594 3.47198C1.56386 3.47198 1.39194 3.64391 1.39194 3.85598C1.39194 4.06806 1.56386 4.23998 1.77594 4.23998Z" fill="#EB517A"/>
<path d="M3.85596 4.30402C4.10338 4.30402 4.30396 4.10345 4.30396 3.85602C4.30396 3.6086 4.10338 3.40802 3.85596 3.40802C3.60854 3.40802 3.40796 3.6086 3.40796 3.85602C3.40796 4.10345 3.60854 4.30402 3.85596 4.30402Z" fill="#EB517A"/>
<path d="M5.91998 4.35199C6.19391 4.35199 6.41598 4.12992 6.41598 3.85599C6.41598 3.58205 6.19391 3.35999 5.91998 3.35999C5.64605 3.35999 5.42398 3.58205 5.42398 3.85599C5.42398 4.12992 5.64605 4.35199 5.91998 4.35199Z" fill="#EB517A"/>
<path d="M7.99988 4.41602C8.30916 4.41602 8.55988 4.1653 8.55988 3.85602C8.55988 3.54674 8.30916 3.29602 7.99988 3.29602C7.6906 3.29602 7.43988 3.54674 7.43988 3.85602C7.43988 4.1653 7.6906 4.41602 7.99988 4.41602Z" fill="#EB517A"/>
<path d="M10.0799 4.47999C10.4245 4.47999 10.7039 4.20062 10.7039 3.85599C10.7039 3.51137 10.4245 3.23199 10.0799 3.23199C9.73528 3.23199 9.4559 3.51137 9.4559 3.85599C9.4559 4.20062 9.73528 4.47999 10.0799 4.47999Z" fill="#EB517A"/>
<path d="M12.1439 4.54403C12.5239 4.54403 12.8319 4.236 12.8319 3.85603C12.8319 3.47606 12.5239 3.16803 12.1439 3.16803C11.7639 3.16803 11.4559 3.47606 11.4559 3.85603C11.4559 4.236 11.7639 4.54403 12.1439 4.54403Z" fill="#EB517A"/>
<path d="M14.2239 4.608C14.6392 4.608 14.9759 4.27132 14.9759 3.856C14.9759 3.44069 14.6392 3.104 14.2239 3.104C13.8086 3.104 13.4719 3.44069 13.4719 3.856C13.4719 4.27132 13.8086 4.608 14.2239 4.608Z" fill="#EB517A"/>
<path d="M1.77597 6.36798C2.0234 6.36798 2.22397 6.16741 2.22397 5.91998C2.22397 5.67256 2.0234 5.47198 1.77597 5.47198C1.52855 5.47198 1.32797 5.67256 1.32797 5.91998C1.32797 6.16741 1.52855 6.36798 1.77597 6.36798Z" fill="#EB517A"/>
<path d="M3.85602 6.41595C4.12995 6.41595 4.35202 6.19388 4.35202 5.91995C4.35202 5.64602 4.12995 5.42395 3.85602 5.42395C3.58208 5.42395 3.36002 5.64602 3.36002 5.91995C3.36002 6.19388 3.58208 6.41595 3.85602 6.41595Z" fill="#EB517A"/>
<path d="M5.92002 6.47999C6.2293 6.47999 6.48002 6.22926 6.48002 5.91999C6.48002 5.61071 6.2293 5.35999 5.92002 5.35999C5.61074 5.35999 5.36002 5.61071 5.36002 5.91999C5.36002 6.22926 5.61074 6.47999 5.92002 6.47999Z" fill="#EB517A"/>
<path d="M7.99997 6.52795C8.33576 6.52795 8.60797 6.25574 8.60797 5.91995C8.60797 5.58416 8.33576 5.31195 7.99997 5.31195C7.66418 5.31195 7.39197 5.58416 7.39197 5.91995C7.39197 6.25574 7.66418 6.52795 7.99997 6.52795Z" fill="#EB517A"/>
<path d="M10.08 6.57598C10.4423 6.57598 10.736 6.28228 10.736 5.91998C10.736 5.55768 10.4423 5.26398 10.08 5.26398C9.71768 5.26398 9.42398 5.55768 9.42398 5.91998C9.42398 6.28228 9.71768 6.57598 10.08 6.57598Z" fill="#EB517A"/>
<path d="M12.144 6.62394C12.5328 6.62394 12.848 6.30875 12.848 5.91994C12.848 5.53113 12.5328 5.21594 12.144 5.21594C11.7552 5.21594 11.44 5.53113 11.44 5.91994C11.44 6.30875 11.7552 6.62394 12.144 6.62394Z" fill="#EB517A"/>
<path d="M14.224 6.67197C14.6393 6.67197 14.976 6.33529 14.976 5.91997C14.976 5.50465 14.6393 5.16797 14.224 5.16797C13.8086 5.16797 13.472 5.50465 13.472 5.91997C13.472 6.33529 13.8086 6.67197 14.224 6.67197Z" fill="#EB517A"/>
<path d="M1.77596 8.52799C2.06756 8.52799 2.30396 8.29159 2.30396 7.99999C2.30396 7.70838 2.06756 7.47198 1.77596 7.47198C1.48435 7.47198 1.24796 7.70838 1.24796 7.99999C1.24796 8.29159 1.48435 8.52799 1.77596 8.52799Z" fill="#EB517A"/>
<path d="M3.85593 8.56C4.16521 8.56 4.41593 8.30928 4.41593 8C4.41593 7.69072 4.16521 7.44 3.85593 7.44C3.54665 7.44 3.29593 7.69072 3.29593 8C3.29593 8.30928 3.54665 8.56 3.85593 8.56Z" fill="#EB517A"/>
<path d="M5.91995 8.60797C6.25574 8.60797 6.52795 8.33576 6.52795 7.99997C6.52795 7.66418 6.25574 7.39197 5.91995 7.39197C5.58416 7.39197 5.31195 7.66418 5.31195 7.99997C5.31195 8.33576 5.58416 8.60797 5.91995 8.60797Z" fill="#EB517A"/>
<path d="M7.99998 8.63998C8.35344 8.63998 8.63998 8.35345 8.63998 7.99998C8.63998 7.64652 8.35344 7.35999 7.99998 7.35999C7.64652 7.35999 7.35999 7.64652 7.35999 7.99998C7.35999 8.35345 7.64652 8.63998 7.99998 8.63998Z" fill="#EB517A"/>
<path d="M10.08 8.672C10.4511 8.672 10.752 8.37114 10.752 8C10.752 7.62887 10.4511 7.328 10.08 7.328C9.70882 7.328 9.40796 7.62887 9.40796 8C9.40796 8.37114 9.70882 8.672 10.08 8.672Z" fill="#EB517A"/>
<path d="M12.144 8.71997C12.5416 8.71997 12.864 8.39761 12.864 7.99997C12.864 7.60232 12.5416 7.27997 12.144 7.27997C11.7463 7.27997 11.424 7.60232 11.424 7.99997C11.424 8.39761 11.7463 8.71997 12.144 8.71997Z" fill="#EB517A"/>
<path d="M14.2239 8.75198C14.6392 8.75198 14.9759 8.4153 14.9759 7.99998C14.9759 7.58467 14.6392 7.24799 14.2239 7.24799C13.8086 7.24799 13.4719 7.58467 13.4719 7.99998C13.4719 8.4153 13.8086 8.75198 14.2239 8.75198Z" fill="#EB517A"/>
<path d="M1.77597 10.688C2.11176 10.688 2.38397 10.4158 2.38397 10.08C2.38397 9.7442 2.11176 9.47198 1.77597 9.47198C1.44018 9.47198 1.16797 9.7442 1.16797 10.08C1.16797 10.4158 1.44018 10.688 1.77597 10.688Z" fill="#EB517A"/>
<path d="M3.85593 10.704C4.20056 10.704 4.47993 10.4246 4.47993 10.08C4.47993 9.73537 4.20056 9.45599 3.85593 9.45599C3.51131 9.45599 3.23193 9.73537 3.23193 10.08C3.23193 10.4246 3.51131 10.704 3.85593 10.704Z" fill="#EB517A"/>
<path d="M5.91998 10.736C6.28228 10.736 6.57598 10.4423 6.57598 10.08C6.57598 9.71771 6.28228 9.42401 5.91998 9.42401C5.55768 9.42401 5.26398 9.71771 5.26398 10.08C5.26398 10.4423 5.55768 10.736 5.91998 10.736Z" fill="#EB517A"/>
<path d="M7.99997 10.752C8.37111 10.752 8.67197 10.4512 8.67197 10.08C8.67197 9.70888 8.37111 9.40802 7.99997 9.40802C7.62884 9.40802 7.32797 9.70888 7.32797 10.08C7.32797 10.4512 7.62884 10.752 7.99997 10.752Z" fill="#EB517A"/>
<path d="M10.0799 10.784C10.4687 10.784 10.7839 10.4688 10.7839 10.08C10.7839 9.69117 10.4687 9.37598 10.0799 9.37598C9.69111 9.37598 9.37592 9.69117 9.37592 10.08C9.37592 10.4688 9.69111 10.784 10.0799 10.784Z" fill="#EB517A"/>
<path d="M12.144 10.8C12.5416 10.8 12.864 10.4776 12.864 10.08C12.864 9.68234 12.5416 9.35999 12.144 9.35999C11.7463 9.35999 11.424 9.68234 11.424 10.08C11.424 10.4776 11.7463 10.8 12.144 10.8Z" fill="#EB517A"/>
<path d="M14.224 10.832C14.6393 10.832 14.976 10.4953 14.976 10.08C14.976 9.66469 14.6393 9.328 14.224 9.328C13.8086 9.328 13.472 9.66469 13.472 10.08C13.472 10.4953 13.8086 10.832 14.224 10.832Z" fill="#EB517A"/>
<path d="M1.77597 12.816C2.14711 12.816 2.44797 12.5151 2.44797 12.144C2.44797 11.7729 2.14711 11.472 1.77597 11.472C1.40484 11.472 1.10397 11.7729 1.10397 12.144C1.10397 12.5151 1.40484 12.816 1.77597 12.816Z" fill="#EB517A"/>
<path d="M3.85594 12.832C4.23591 12.832 4.54394 12.524 4.54394 12.144C4.54394 11.764 4.23591 11.456 3.85594 11.456C3.47597 11.456 3.16794 11.764 3.16794 12.144C3.16794 12.524 3.47597 12.832 3.85594 12.832Z" fill="#EB517A"/>
<path d="M5.92 12.8479C6.30881 12.8479 6.624 12.5328 6.624 12.1439C6.624 11.7551 6.30881 11.4399 5.92 11.4399C5.5312 11.4399 5.216 11.7551 5.216 12.1439C5.216 12.5328 5.5312 12.8479 5.92 12.8479Z" fill="#EB517A"/>
<path d="M8 12.864C8.39764 12.864 8.72 12.5416 8.72 12.144C8.72 11.7463 8.39764 11.424 8 11.424C7.60235 11.424 7.28 11.7463 7.28 12.144C7.28 12.5416 7.60235 12.864 8 12.864Z" fill="#EB517A"/>
<path d="M10.08 12.864C10.4776 12.864 10.8 12.5416 10.8 12.144C10.8 11.7463 10.4776 11.424 10.08 11.424C9.68234 11.424 9.35999 11.7463 9.35999 12.144C9.35999 12.5416 9.68234 12.864 10.08 12.864Z" fill="#EB517A"/>
<path d="M12.144 12.88C12.5504 12.88 12.88 12.5504 12.88 12.144C12.88 11.7375 12.5504 11.408 12.144 11.408C11.7375 11.408 11.408 11.7375 11.408 12.144C11.408 12.5504 11.7375 12.88 12.144 12.88Z" fill="#EB517A"/>
<path d="M14.2239 12.896C14.6392 12.896 14.9759 12.5593 14.9759 12.144C14.9759 11.7287 14.6392 11.392 14.2239 11.392C13.8086 11.392 13.4719 11.7287 13.4719 12.144C13.4719 12.5593 13.8086 12.896 14.2239 12.896Z" fill="#EB517A"/>
<path d="M14.224 14.976C14.6393 14.976 14.976 14.6393 14.976 14.224C14.976 13.8087 14.6393 13.472 14.224 13.472C13.8086 13.472 13.472 13.8087 13.472 14.224C13.472 14.6393 13.8086 14.976 14.224 14.976Z" fill="#EB517A"/>
</svg>
