<svg width="16" height="16" viewBox="0 0 16 16" fill="none" xmlns="http://www.w3.org/2000/svg">
<path d="M2.09828 12.3806C2.1802 12.3806 2.26196 12.3494 2.32452 12.2869L3.05636 11.555C3.18132 11.4301 3.18132 11.2275 3.05636 11.1026C2.9314 10.9776 2.72884 10.9776 2.60388 11.1026L1.87204 11.8344C1.74708 11.9594 1.74708 12.1619 1.87204 12.2869C1.9346 12.3494 2.01652 12.3806 2.09828 12.3806ZM3.5442 12.5662C3.41924 12.4413 3.21668 12.4413 3.09172 12.5662L1.38388 14.2736C1.25892 14.3986 1.25892 14.6011 1.38388 14.7262C1.44644 14.7888 1.5282 14.82 1.61012 14.82C1.69204 14.82 1.7738 14.7888 1.83636 14.7264L3.5442 13.019C3.66932 12.8938 3.66932 12.6912 3.5442 12.5662ZM11.5815 2.78049C11.2159 2.78049 10.8722 2.92257 10.6133 3.18097C10.0807 3.71473 10.081 4.58273 10.6141 5.11553C10.8722 5.37393 11.2159 5.51617 11.5816 5.51617C11.9471 5.51617 12.2908 5.37393 12.5492 5.11569C13.0821 4.58241 13.0821 3.71441 12.5488 3.18049C12.2906 2.92273 11.9471 2.78049 11.5815 2.78049ZM12.0965 4.66337C11.9592 4.80065 11.7762 4.87633 11.5816 4.87633C11.3869 4.87633 11.2042 4.80065 11.0668 4.66321C10.7829 4.37953 10.7828 3.91745 11.066 3.63361C11.2036 3.49633 11.3866 3.42049 11.5815 3.42049C11.7764 3.42049 11.9591 3.49617 12.0964 3.63313C12.38 3.91729 12.3802 4.37953 12.0965 4.66337ZM14.6986 1.65617L14.6885 1.50033C14.6783 1.34001 14.5506 1.21201 14.3901 1.20145L14.2349 1.19121C14.2071 1.18929 14.056 1.18001 13.8141 1.18001C12.6658 1.18001 9.7922 1.38257 7.91732 3.25809C7.68724 3.48817 7.46804 3.72593 7.26356 3.96801C7.00884 3.84481 6.7138 3.77873 6.40692 3.77873C5.85396 3.77873 5.33188 3.98369 4.97492 4.34113L3.02404 6.29217C2.80324 6.51217 2.87012 6.77793 2.90612 6.92065C2.91252 6.94641 2.9194 6.97281 2.92452 6.99953C2.95492 7.16161 3.03268 7.30881 3.14916 7.42545C3.21924 7.49553 3.30212 7.55217 3.39828 7.59537L5.13572 8.35729L3.42196 10.0709C3.36532 10.1275 3.33188 10.2034 3.32852 10.2834C3.32708 10.3146 3.3042 11.0558 4.04532 11.7973C4.72884 12.4808 5.41252 12.5144 5.53956 12.5144C5.55028 12.5144 5.55716 12.5141 5.55956 12.5141C5.63956 12.5106 5.7154 12.4773 5.77188 12.4206L7.51556 10.6768L8.32372 12.5192C8.36356 12.6125 8.42068 12.6968 8.49412 12.7709C8.61108 12.8878 8.7586 12.9656 8.91988 12.9952C8.96948 13.0045 9.02004 13.0091 9.07028 13.0091C9.28724 13.0091 9.49156 12.9248 9.64612 12.7709L11.6173 10.7992C12.2024 10.2142 12.3181 9.32193 11.9351 8.61505C12.1754 8.41057 12.4087 8.19537 12.6311 7.97265C14.9418 5.66353 14.7096 1.81761 14.6986 1.65617ZM11.56 8.08913C11.3468 8.23841 9.99268 9.17377 8.95412 9.60913C8.49476 9.80177 7.84868 9.87281 7.66692 9.88977C7.6658 9.88977 7.66484 9.88929 7.66372 9.88929C7.14692 9.88337 6.73764 9.73313 6.44756 9.44305C6.16884 9.16369 6.0202 8.77409 6.0034 8.28641C6.0034 8.28641 6.05732 7.48721 6.28004 6.94657C6.74212 5.82465 7.76772 4.36865 7.7882 4.33969C7.97108 4.12577 8.16564 3.91505 8.36996 3.71073C10.0759 2.00433 12.7456 1.82001 13.8143 1.82001C13.9181 1.82001 14.0031 1.82193 14.0661 1.82401C14.0901 2.49665 14.0908 5.60913 12.1788 7.52033C11.9813 7.71809 11.7725 7.90657 11.56 8.08913ZM4.15892 13.4502L3.33524 14.2736C3.21028 14.3986 3.21028 14.6011 3.33508 14.7262C3.39764 14.7888 3.47956 14.82 3.56148 14.82C3.6434 14.82 3.72516 14.7888 3.78772 14.7264L4.6114 13.903C4.73636 13.7781 4.73636 13.5755 4.61156 13.4504C4.4866 13.3253 4.28388 13.3254 4.15892 13.4502Z" fill="white"/>
</svg>
