<svg width="16" height="16" viewBox="0 0 16 16" fill="none" xmlns="http://www.w3.org/2000/svg">
<path d="M1.76767 10V5.436H3.41267C3.65534 5.436 3.88167 5.45933 4.09167 5.506C4.30634 5.55267 4.49301 5.632 4.65167 5.744C4.81034 5.85133 4.93634 5.996 5.02967 6.178C5.12301 6.36 5.16967 6.58633 5.16967 6.857C5.16967 7.193 5.09501 7.47067 4.94567 7.69C4.80101 7.90467 4.60501 8.06567 4.35767 8.173L5.39367 10H4.23867L3.36367 8.355H2.79667V10H1.76767ZM2.79667 7.536H3.32867C3.59934 7.536 3.80467 7.48 3.94467 7.368C4.08934 7.25133 4.16167 7.081 4.16167 6.857C4.16167 6.633 4.08934 6.47667 3.94467 6.388C3.80467 6.29933 3.59934 6.255 3.32867 6.255H2.79667V7.536ZM5.67027 10L6.73427 8.194L5.73327 6.528H6.83927L7.14727 7.088C7.19393 7.186 7.2406 7.28633 7.28727 7.389C7.3386 7.487 7.38993 7.585 7.44127 7.683H7.46927C7.5066 7.585 7.54627 7.487 7.58827 7.389C7.63027 7.28633 7.66993 7.186 7.70727 7.088L7.94527 6.528H9.00927L8.00127 8.313L9.07227 10H7.96627L7.63027 9.426C7.57427 9.328 7.51827 9.22767 7.46227 9.125C7.41093 9.02233 7.35727 8.922 7.30127 8.824H7.27327C7.23127 8.922 7.18693 9.02233 7.14027 9.125C7.0936 9.223 7.04927 9.32333 7.00727 9.426L6.73427 10H5.67027ZM9.86697 10V5.436H11.155C11.505 5.436 11.82 5.48033 12.1 5.569C12.38 5.65767 12.6203 5.79533 12.821 5.982C13.0216 6.164 13.1756 6.39733 13.283 6.682C13.3903 6.96667 13.444 7.305 13.444 7.697C13.444 8.089 13.3903 8.42967 13.283 8.719C13.1756 9.00833 13.024 9.24867 12.828 9.44C12.632 9.62667 12.3963 9.76667 12.121 9.86C11.8503 9.95333 11.547 10 11.211 10H9.86697ZM10.896 9.167H11.092C11.288 9.167 11.4653 9.14133 11.624 9.09C11.7826 9.03867 11.918 8.957 12.03 8.845C12.142 8.72833 12.2283 8.57667 12.289 8.39C12.3543 8.20333 12.387 7.97233 12.387 7.697C12.387 7.42633 12.3543 7.2 12.289 7.018C12.2283 6.83133 12.142 6.68433 12.03 6.577C11.918 6.465 11.7826 6.38567 11.624 6.339C11.4653 6.29233 11.288 6.269 11.092 6.269H10.896V9.167Z" fill="#EB517A"/>
</svg>
