<?xml version="1.0" encoding="UTF-8"?>
<svg xmlns="http://www.w3.org/2000/svg" xmlns:xlink="http://www.w3.org/1999/xlink" width="16px" height="16px" viewBox="0 0 16 16" version="1.1">
<g id="surface1">
<path style=" stroke:none;fill-rule:nonzero;fill:rgb(100%,100%,100%);fill-opacity:1;" d="M 14.722656 0.425781 L 1.277344 0.425781 C 0.574219 0.425781 0 1 0 1.703125 L 0 11.914062 C 0 12.617188 0.574219 13.191406 1.277344 13.191406 L 6.210938 13.191406 L 6.210938 15.0625 L 4.425781 15.0625 C 4.285156 15.0625 4.171875 15.179688 4.171875 15.320312 C 4.171875 15.460938 4.285156 15.574219 4.425781 15.574219 L 11.574219 15.574219 C 11.714844 15.574219 11.828125 15.460938 11.828125 15.320312 C 11.828125 15.179688 11.714844 15.0625 11.574219 15.0625 L 9.789062 15.0625 L 9.789062 13.191406 L 14.722656 13.191406 C 15.425781 13.191406 16 12.617188 16 11.914062 L 16 1.703125 C 16 1 15.425781 0.425781 14.722656 0.425781 Z M 9.277344 15.0625 L 6.722656 15.0625 L 6.722656 13.191406 L 9.277344 13.191406 Z M 15.488281 11.914062 C 15.488281 12.335938 15.144531 12.679688 14.722656 12.679688 L 1.277344 12.679688 C 0.855469 12.679688 0.511719 12.335938 0.511719 11.914062 L 0.511719 11.148438 L 15.488281 11.148438 Z M 15.488281 10.636719 L 0.511719 10.636719 L 0.511719 1.703125 C 0.511719 1.28125 0.855469 0.9375 1.277344 0.9375 L 14.722656 0.9375 C 15.144531 0.9375 15.488281 1.28125 15.488281 1.703125 Z M 15.488281 10.636719 "/>
<path style=" stroke:none;fill-rule:nonzero;fill:rgb(100%,100%,100%);fill-opacity:1;" d="M 14.722656 1.445312 L 1.277344 1.445312 C 1.136719 1.445312 1.019531 1.5625 1.019531 1.703125 L 1.019531 9.871094 C 1.019531 10.011719 1.136719 10.128906 1.277344 10.128906 L 12.339844 10.128906 C 12.480469 10.128906 12.597656 10.011719 12.597656 9.871094 C 12.597656 9.730469 12.480469 9.617188 12.339844 9.617188 L 1.53125 9.617188 L 1.53125 1.957031 L 14.46875 1.957031 L 14.46875 9.617188 L 13.363281 9.617188 C 13.21875 9.617188 13.105469 9.730469 13.105469 9.871094 C 13.105469 10.011719 13.21875 10.128906 13.363281 10.128906 L 14.722656 10.128906 C 14.863281 10.128906 14.980469 10.011719 14.980469 9.871094 L 14.980469 1.703125 C 14.980469 1.5625 14.863281 1.445312 14.722656 1.445312 Z M 14.722656 1.445312 "/>
</g>
</svg>
