<svg width="16" height="16" viewBox="0 0 16 16" fill="none" xmlns="http://www.w3.org/2000/svg">
<path fill-rule="evenodd" clip-rule="evenodd" d="M7.99997 1.00012C6.62222 1.00012 5.49997 2.12237 5.49997 3.50012V8.00012C5.49997 8.08984 5.45218 8.17158 5.37448 8.21643L1.75193 10.3523C0.978771 10.7987 0.501583 11.623 0.499973 12.513C0.499223 12.958 0.617047 13.3858 0.832004 13.7581C1.04696 14.1304 1.35883 14.4469 1.7446 14.6687C2.12083 14.885 2.54007 14.9955 2.96055 15.0001C3.40235 15.005 3.84553 14.893 4.24167 14.6643L7.87497 12.3836C7.91324 12.3615 7.95706 12.3504 7.99997 12.3504C8.04419 12.3504 8.0875 12.3627 8.12693 12.3855L11.7587 14.6643C12.151 14.8909 12.5798 14.9993 13.0031 15.0001C13.867 15.0019 14.7079 14.5561 15.1683 13.7586C15.3938 13.3681 15.5005 12.9409 15.5 12.5187C15.4987 11.6561 15.0495 10.8148 14.2484 10.3523L10.625 8.21643C10.5473 8.17151 10.5 8.08984 10.5 8.00012V3.50012C10.5 2.12237 9.37772 1.00012 7.99997 1.00012Z" fill="#EB517A"/>
</svg>
