<svg width="12" height="10" viewBox="0 0 12 10" fill="none" xmlns="http://www.w3.org/2000/svg">
<path d="M9.60284 3.57944L9.44908 3.84759C9.39283 3.94697 9.27282 3.98822 9.16593 3.94884C8.94466 3.86634 8.74215 3.7482 8.56401 3.60007C8.47775 3.52881 8.45525 3.40317 8.5115 3.30567L8.66527 3.03752C8.53588 2.88751 8.43462 2.71312 8.36712 2.52373H8.05772C7.94521 2.52373 7.8477 2.44309 7.82895 2.33059C7.79144 2.10557 7.78957 1.8693 7.82895 1.6349C7.8477 1.52239 7.94521 1.43989 8.05772 1.43989H8.36712C8.43462 1.2505 8.53588 1.07611 8.66527 0.926094L8.5115 0.657947C8.45525 0.560439 8.47588 0.434804 8.56401 0.363548C8.74215 0.215411 8.94654 0.0972759 9.16593 0.014769C9.27282 -0.0246092 9.39283 0.0166442 9.44908 0.116027L9.60284 0.384175C9.79974 0.348547 10.0004 0.348547 10.1973 0.384175L10.351 0.116027C10.4073 0.0166442 10.5273 -0.0246092 10.6342 0.014769C10.8554 0.0972759 11.058 0.215411 11.2361 0.363548C11.3224 0.434804 11.3449 0.560439 11.2886 0.657947L11.1348 0.926094C11.2642 1.07611 11.3655 1.2505 11.433 1.43989H11.7424C11.8549 1.43989 11.9524 1.52052 11.9712 1.63303C12.0087 1.85805 12.0105 2.09432 11.9712 2.32871C11.9524 2.44122 11.8549 2.52373 11.7424 2.52373H11.433C11.3655 2.71312 11.2642 2.88751 11.1348 3.03752L11.2886 3.30567C11.3449 3.40317 11.3242 3.52881 11.2361 3.60007C11.058 3.7482 10.8536 3.86634 10.6342 3.94884C10.5273 3.98822 10.4073 3.94697 10.351 3.84759L10.1973 3.57944C10.0023 3.61507 9.79974 3.61507 9.60284 3.57944ZM9.40595 2.47685C10.1279 3.03189 10.9511 2.2087 10.396 1.48677C9.6741 0.929845 8.85091 1.75491 9.40595 2.47685ZM7.2439 5.36271L7.87583 5.67774C8.06522 5.7865 8.14772 6.01714 8.07272 6.22341C7.90583 6.67719 7.57768 7.09348 7.2739 7.45726C7.13514 7.62415 6.89512 7.6654 6.70573 7.55664L6.16006 7.24162C5.86004 7.49851 5.51126 7.7029 5.1306 7.83604V8.46609C5.1306 8.68361 4.97496 8.87113 4.76119 8.90863C4.29991 8.98738 3.81612 8.99114 3.33795 8.90863C3.12231 8.87113 2.96292 8.68548 2.96292 8.46609V7.83604C2.58226 7.70103 2.23349 7.49851 1.93346 7.24162L1.38779 7.55477C1.20028 7.66353 0.95838 7.62227 0.819619 7.45538C0.515844 7.0916 0.195192 6.67532 0.0283034 6.22341C-0.0467028 6.01901 0.035804 5.78837 0.225195 5.67774L0.849621 5.36271C0.77649 4.9708 0.77649 4.56765 0.849621 4.17386L0.225195 3.85696C0.035804 3.7482 -0.0485779 3.51756 0.0283034 3.31317C0.195192 2.85938 0.515844 2.44309 0.819619 2.07931C0.95838 1.91243 1.1984 1.87117 1.38779 1.97993L1.93346 2.29496C2.23349 2.03806 2.58226 1.83367 2.96292 1.70053V1.06861C2.96292 0.852963 3.11668 0.665448 3.33045 0.627945C3.79174 0.549188 4.2774 0.545438 4.75557 0.62607C4.97121 0.663573 5.1306 0.849213 5.1306 1.06861V1.69866C5.51126 1.83367 5.86004 2.03619 6.16006 2.29308L6.70573 1.97806C6.89325 1.8693 7.13514 1.91055 7.2739 2.07744C7.57768 2.44122 7.89645 2.8575 8.06334 3.31129C8.13835 3.51568 8.06522 3.74633 7.87583 3.85696L7.2439 4.17199C7.31703 4.56577 7.31703 4.96893 7.2439 5.36271ZM5.03872 5.75837C6.14881 4.3145 4.50055 2.66624 3.05668 3.77633C1.94659 5.2202 3.59485 6.86846 5.03872 5.75837ZM9.60284 9.18428L9.44908 9.45242C9.39283 9.55181 9.27282 9.59306 9.16593 9.55368C8.94466 9.47118 8.74215 9.35304 8.56401 9.2049C8.47775 9.13365 8.45525 9.00801 8.5115 8.9105L8.66527 8.64236C8.53588 8.49234 8.43462 8.31796 8.36712 8.12856H8.05772C7.94521 8.12856 7.8477 8.04793 7.82895 7.93542C7.79144 7.7104 7.78957 7.47413 7.82895 7.23974C7.8477 7.12723 7.94521 7.04472 8.05772 7.04472H8.36712C8.43462 6.85533 8.53588 6.68094 8.66527 6.53093L8.5115 6.26278C8.45525 6.16528 8.47588 6.03964 8.56401 5.96839C8.74215 5.82025 8.94654 5.70211 9.16593 5.61961C9.27282 5.58023 9.39283 5.62148 9.44908 5.72087L9.60284 5.98901C9.79974 5.95338 10.0004 5.95338 10.1973 5.98901L10.351 5.72087C10.4073 5.62148 10.5273 5.58023 10.6342 5.61961C10.8554 5.70211 11.058 5.82025 11.2361 5.96839C11.3224 6.03964 11.3449 6.16528 11.2886 6.26278L11.1348 6.53093C11.2642 6.68094 11.3655 6.85533 11.433 7.04472H11.7424C11.8549 7.04472 11.9524 7.12536 11.9712 7.23787C12.0087 7.46288 12.0105 7.69915 11.9712 7.93355C11.9524 8.04606 11.8549 8.12856 11.7424 8.12856H11.433C11.3655 8.31796 11.2642 8.49234 11.1348 8.64236L11.2886 8.9105C11.3449 9.00801 11.3242 9.13365 11.2361 9.2049C11.058 9.35304 10.8536 9.47118 10.6342 9.55368C10.5273 9.59306 10.4073 9.55181 10.351 9.45242L10.1973 9.18428C10.0023 9.2199 9.79974 9.2199 9.60284 9.18428ZM9.40595 8.07981C10.1279 8.63486 10.9511 7.81166 10.396 7.08973C9.6741 6.53468 8.85091 7.35788 9.40595 8.07981Z" fill="#EB517A"/>
</svg>