<svg width="16" height="16" viewBox="0 0 16 16" fill="none" xmlns="http://www.w3.org/2000/svg">
<path d="M1.72806 1.79199H0.832062V11.744H1.72806V1.79199Z" fill="#EB517A"/>
<path d="M3.51999 3.104H2.62399V11.744H3.51999V3.104Z" fill="#EB517A"/>
<path d="M5.31202 3.87201H4.41602V11.744H5.31202V3.87201Z" fill="#EB517A"/>
<path d="M7.10398 6.01599H6.20798V11.744H7.10398V6.01599Z" fill="#EB517A"/>
<path d="M8.896 7.328H8V11.744H8.896V7.328Z" fill="#EB517A"/>
<path d="M10.6881 6.01599H9.79205V11.744H10.6881V6.01599Z" fill="#EB517A"/>
<path d="M12.48 3.87201H11.584V11.744H12.48V3.87201Z" fill="#EB517A"/>
<path d="M14.272 6.62396H13.376V11.744H14.272V6.62396Z" fill="#EB517A"/>
<path d="M15.36 12.064H0.640007C0.448007 12.064 0.320007 12.224 0.320007 12.384C0.320007 12.576 0.480007 12.704 0.640007 12.704H15.36C15.552 12.704 15.68 12.544 15.68 12.384C15.68 12.224 15.52 12.064 15.36 12.064Z" fill="#EB517A"/>
<path d="M1.85596 13.12H1.40796V14.208H1.85596V13.12Z" fill="#EB517A"/>
<path d="M2.91199 13.12H2.46399V13.664H2.91199V13.12Z" fill="#EB517A"/>
<path d="M3.96802 13.12H3.52002V14.208H3.96802V13.12Z" fill="#EB517A"/>
<path d="M5.02402 13.12H4.57602V13.664H5.02402V13.12Z" fill="#EB517A"/>
<path d="M6.112 13.12H5.664V14.208H6.112V13.12Z" fill="#EB517A"/>
<path d="M7.168 13.12H6.72V13.664H7.168V13.12Z" fill="#EB517A"/>
<path d="M8.22404 13.12H7.77603V14.208H8.22404V13.12Z" fill="#EB517A"/>
<path d="M9.28006 13.12H8.83206V13.664H9.28006V13.12Z" fill="#EB517A"/>
<path d="M10.336 13.12H9.88797V14.208H10.336V13.12Z" fill="#EB517A"/>
<path d="M11.392 13.12H10.944V13.664H11.392V13.12Z" fill="#EB517A"/>
<path d="M12.48 13.12H12.032V14.208H12.48V13.12Z" fill="#EB517A"/>
<path d="M13.504 13.12H13.056V13.664H13.504V13.12Z" fill="#EB517A"/>
<path d="M14.592 13.12H14.144V14.208H14.592V13.12Z" fill="#EB517A"/>
<path d="M1.72806 1.79199H0.832062V11.744H1.72806V1.79199Z" fill="#EB517A"/>
<path d="M3.51999 3.104H2.62399V11.744H3.51999V3.104Z" fill="#EB517A"/>
<path d="M5.31202 3.87201H4.41602V11.744H5.31202V3.87201Z" fill="#EB517A"/>
<path d="M7.10398 6.01599H6.20798V11.744H7.10398V6.01599Z" fill="#EB517A"/>
<path d="M8.896 7.328H8V11.744H8.896V7.328Z" fill="#EB517A"/>
<path d="M10.6881 6.01599H9.79205V11.744H10.6881V6.01599Z" fill="#EB517A"/>
<path d="M12.48 3.87201H11.584V11.744H12.48V3.87201Z" fill="#EB517A"/>
<path d="M14.272 6.62396H13.376V11.744H14.272V6.62396Z" fill="#EB517A"/>
<path d="M15.36 12.064H0.640007C0.448007 12.064 0.320007 12.224 0.320007 12.384C0.320007 12.576 0.480007 12.704 0.640007 12.704H15.36C15.552 12.704 15.68 12.544 15.68 12.384C15.68 12.224 15.52 12.064 15.36 12.064Z" fill="#EB517A"/>
<path d="M1.85596 13.12H1.40796V14.208H1.85596V13.12Z" fill="#EB517A"/>
<path d="M2.91199 13.12H2.46399V13.664H2.91199V13.12Z" fill="#EB517A"/>
<path d="M3.96802 13.12H3.52002V14.208H3.96802V13.12Z" fill="#EB517A"/>
<path d="M5.02402 13.12H4.57602V13.664H5.02402V13.12Z" fill="#EB517A"/>
<path d="M6.112 13.12H5.664V14.208H6.112V13.12Z" fill="#EB517A"/>
<path d="M7.168 13.12H6.72V13.664H7.168V13.12Z" fill="#EB517A"/>
<path d="M8.22404 13.12H7.77603V14.208H8.22404V13.12Z" fill="#EB517A"/>
<path d="M9.28006 13.12H8.83206V13.664H9.28006V13.12Z" fill="#EB517A"/>
<path d="M10.336 13.12H9.88797V14.208H10.336V13.12Z" fill="#EB517A"/>
<path d="M11.392 13.12H10.944V13.664H11.392V13.12Z" fill="#EB517A"/>
<path d="M12.48 13.12H12.032V14.208H12.48V13.12Z" fill="#EB517A"/>
<path d="M13.504 13.12H13.056V13.664H13.504V13.12Z" fill="#EB517A"/>
<path d="M14.592 13.12H14.144V14.208H14.592V13.12Z" fill="#EB517A"/>
</svg>
