<svg width="16" height="16" viewBox="0 0 16 16" fill="none" xmlns="http://www.w3.org/2000/svg">
<g clip-path="url(#clip0)">
<path d="M5.52728 5.95361L7.5505 7.97682C7.67697 8.10326 7.84847 8.17428 8.0273 8.17428C8.20613 8.17428 8.37764 8.10326 8.50411 7.97682L10.5273 5.95361L9.57371 5L8.0273 6.54641L6.48089 5L5.52728 5.95361Z" fill="#EB517A"/>
<path d="M2.44413e-07 14.5915C2.09347e-07 13.7893 0.506995 13.1044 1.22432 12.822C1.45449 13.7553 2.28164 14.4798 3.29463 14.5588C3.4043 14.5674 3.5073 14.5065 3.55063 14.4076C3.89929 13.6123 4.85178 13.2272 5.67377 13.5494C5.80511 13.6009 5.95444 13.5385 6.0071 13.4101C6.0196 13.3795 6.0256 13.3479 6.0256 13.317C6.0256 13.2176 5.96477 13.1236 5.86461 13.0844C5.49344 12.9389 5.10211 12.9037 4.72962 12.9624C4.83762 12.2178 5.47411 11.6243 6.2716 11.5839C6.40843 11.5769 6.51477 11.4663 6.51477 11.3339C6.51477 11.3295 6.5146 11.3251 6.51443 11.3207C6.5071 11.1825 6.3866 11.0763 6.2451 11.0835C5.12095 11.1405 4.24029 12.0336 4.20246 13.1135C3.77113 13.2969 3.39946 13.6152 3.16497 14.0379C2.31564 13.8901 1.67298 13.1552 1.67298 12.2958C1.67298 11.8903 1.81415 11.4995 2.07031 11.1912C2.51014 10.6615 3.25913 10.5278 3.63496 10.6859C4.09079 10.0425 4.85112 9.62082 5.71244 9.62082C5.9751 9.62082 6.22844 9.66008 6.4666 9.73289L6.47043 9.73517C7.03409 8.98021 8.16158 8.76879 8.89641 9.27893C9.2839 9.54802 9.64907 10.0373 9.72373 10.5045C9.78423 10.882 9.72007 11.2597 9.5429 11.5924C9.46574 11.5622 9.3859 11.5371 9.30374 11.5178C8.84841 11.4099 8.37741 11.4818 7.97742 11.7201C7.85659 11.792 7.81825 11.9461 7.89192 12.0644C7.96558 12.1825 8.12342 12.2199 8.24425 12.1478C8.52724 11.9792 8.86058 11.9282 9.18291 12.0046C9.50507 12.081 9.77757 12.2753 9.95023 12.5521C10.1946 12.9438 10.1932 13.4302 9.9469 13.8211C9.87256 13.9388 9.91023 14.0932 10.0306 14.1657C10.1511 14.2384 10.3091 14.2017 10.3832 14.0838C10.5581 13.8064 10.6456 13.495 10.6456 13.1837C10.6456 12.8752 10.5597 12.5667 10.3879 12.2913C10.2794 12.1173 10.1427 11.9665 9.98456 11.843C10.1639 11.5155 10.2589 11.1539 10.2589 10.783C10.2589 10.6647 10.2496 10.5458 10.2304 10.4269C10.1889 10.1679 10.1037 9.92248 9.98006 9.69836C10.1809 9.64802 10.3912 9.62082 10.6082 9.62082C11.4749 9.62082 12.2392 10.0476 12.6942 10.6975C13.9645 10.76 14.9867 11.7402 15.0825 12.9733C15.6335 13.3108 16 13.909 16 14.5913C16 15.4831 15.3835 16.2052 14.5452 16.4414C14.425 16.4752 14.2807 16.5 14.1457 16.5C14.1457 16.5 1.89798 16.4993 1.87515 16.498C0.832658 16.4581 2.89374e-07 15.6201 2.44413e-07 14.5915ZM13.4922 15.0329C13.8334 14.7194 14.018 14.2913 14.018 13.8496C14.018 13.697 13.996 13.5429 13.9507 13.3912C13.8264 12.9739 13.543 12.6289 13.1532 12.4198C12.7634 12.2107 12.3134 12.1624 11.8864 12.2841C11.7504 12.3229 11.6727 12.462 11.7119 12.5947C11.7515 12.7276 11.8939 12.8039 12.0297 12.7653C12.6397 12.5916 13.2807 12.9353 13.4584 13.5315C13.5804 13.9406 13.4587 14.376 13.1407 14.6679C13.0375 14.7627 13.0325 14.9212 13.1295 15.022C13.2267 15.1227 13.389 15.1276 13.4922 15.0329Z" fill="#EB517A"/>
<path d="M3.5502 3.63793H4.89061V1H6.7182V3.63793H8.70096V1H10.7527V3.63793H12.2182" stroke="#EB517A" stroke-width="0.586207"/>
</g>
<defs>
<clipPath id="clip0">
<path d="M0 0H16V16H0V0Z" fill="white"/>
</clipPath>
</defs>
</svg>
