<svg width="16" height="16" viewBox="0 0 16 16" fill="none" xmlns="http://www.w3.org/2000/svg">
<rect x="0.5" y="0.5" width="15" height="15" rx="7.5" stroke="#EB517A"/>
<path fill-rule="evenodd" clip-rule="evenodd" d="M7.6772 4.55488C7.6772 5.14244 8.15351 5.61875 8.74106 5.61875C9.32862 5.61875 9.80493 5.14244 9.80493 4.55488C9.80493 4.48144 9.79749 4.40973 9.78332 4.34048C9.68412 3.85569 9.25518 3.49102 8.74106 3.49102C8.15351 3.49102 7.6772 3.96733 7.6772 4.55488ZM8.74106 3C7.88233 3 7.18618 3.69615 7.18618 4.55488C7.18618 4.61262 7.18933 4.66962 7.19546 4.72572L5.832 5.20315C5.55113 4.79957 5.08385 4.53543 4.55488 4.53543C3.69615 4.53543 3 5.23158 3 6.09032C3 6.84085 3.53176 7.46718 4.23908 7.61311L4.29313 9.11833C3.64753 9.3074 3.17602 9.90401 3.17602 10.6107C3.17602 11.4695 3.87216 12.1656 4.7309 12.1656C5.34124 12.1656 5.86945 11.814 6.12396 11.3022L7.32194 11.6414C7.32132 11.6595 7.321 11.6776 7.321 11.6958C7.321 12.5546 8.01715 13.2507 8.87589 13.2507C9.73463 13.2507 10.4308 12.5546 10.4308 11.6958C10.4308 11.3751 10.3337 11.077 10.1672 10.8294L10.9412 9.66384C11.0992 9.71793 11.2687 9.74728 11.445 9.74728C12.3037 9.74728 12.9999 9.05114 12.9999 8.1924C12.9999 7.33366 12.3037 6.63751 11.445 6.63751C11.2828 6.63751 11.1264 6.66235 10.9794 6.70843L10.0071 5.45783C10.1889 5.20328 10.2959 4.89158 10.2959 4.55488C10.2959 4.44754 10.2851 4.34274 10.2644 4.24152C10.1194 3.53299 9.49246 3 8.74106 3ZM4.89191 9.06409C5.675 9.14465 6.28579 9.80637 6.28579 10.6107C6.28579 10.6485 6.28444 10.6859 6.2818 10.723L7.45828 11.0561C7.70219 10.5164 8.24519 10.1409 8.87589 10.1409C9.1926 10.1409 9.48719 10.2356 9.7329 10.3982L10.4208 9.3623C10.0955 9.07731 9.89012 8.65884 9.89012 8.1924C9.89012 7.71392 10.1062 7.28593 10.4462 7.0007L9.56835 5.87166C9.32876 6.0225 9.0451 6.10977 8.74106 6.10977C8.15181 6.10977 7.63911 5.78199 7.37536 5.29881L6.07345 5.75469C6.09723 5.86278 6.10977 5.97508 6.10977 6.09032C6.10977 6.85166 5.56258 7.4852 4.84002 7.61911L4.89191 9.06409ZM3.49102 6.09032C3.49102 6.67787 3.96733 7.15418 4.55488 7.15418C5.14244 7.15418 5.61875 6.67787 5.61875 6.09032C5.61875 5.50276 5.14244 5.02645 4.55488 5.02645C3.96733 5.02645 3.49102 5.50276 3.49102 6.09032ZM10.3811 8.1924C10.3811 8.77995 10.8574 9.25626 11.445 9.25626C12.0326 9.25626 12.5089 8.77995 12.5089 8.1924C12.5089 7.60484 12.0326 7.12853 11.445 7.12853C10.8574 7.12853 10.3811 7.60484 10.3811 8.1924ZM8.87589 12.7597C8.28833 12.7597 7.81202 12.2834 7.81202 11.6958C7.81202 11.1083 8.28833 10.632 8.87589 10.632C9.46345 10.632 9.93976 11.1083 9.93976 11.6958C9.93976 12.2834 9.46345 12.7597 8.87589 12.7597ZM3.66703 10.6107C3.66703 11.1983 4.14334 11.6746 4.7309 11.6746C5.31846 11.6746 5.79477 11.1983 5.79477 10.6107C5.79477 10.0232 5.31846 9.54687 4.7309 9.54687C4.14334 9.54687 3.66703 10.0232 3.66703 10.6107Z" fill="#EB517A"/>
</svg>
