<svg width="16" height="16" viewBox="0 0 16 16" fill="none" xmlns="http://www.w3.org/2000/svg">
<path d="M7.57924 5.9808C7.15844 5.7376 7.01444 5.1984 7.25764 4.7792C7.50084 4.36 8.04004 4.21439 8.45924 4.4576C8.88004 4.7008 9.02404 5.24 8.78084 5.6592C8.53764 6.08 7.99844 6.224 7.57924 5.9808ZM8.29924 4.7344C8.03204 4.5808 7.68804 4.672 7.53444 4.9392C7.38084 5.2064 7.47204 5.5504 7.73924 5.704C8.00644 5.8576 8.35044 5.7664 8.50404 5.4992C8.65764 5.232 8.56644 4.888 8.29924 4.7344Z" fill="#EB517A"/>
<path d="M6.87628 9.09062C7.03088 8.82275 7.06316 8.55189 6.94836 8.48563C6.83356 8.41937 6.61516 8.5828 6.46055 8.85067C6.30594 9.11853 6.27367 9.3894 6.38847 9.45566C6.50327 9.52192 6.72167 9.35848 6.87628 9.09062Z" fill="#EB517A"/>
<path d="M7.43029 9.41118C7.5849 9.14332 7.61717 8.87245 7.50237 8.80619C7.38757 8.73993 7.16917 8.90336 7.01456 9.17123C6.85995 9.4391 6.82768 9.70996 6.94248 9.77622C7.05728 9.84248 7.27568 9.67905 7.43029 9.41118Z" fill="#EB517A"/>
<path d="M8.37757 5.3616C8.44384 5.3616 8.49757 5.30787 8.49757 5.2416C8.49757 5.17532 8.44384 5.1216 8.37757 5.1216C8.31129 5.1216 8.25757 5.17532 8.25757 5.2416C8.25757 5.30787 8.31129 5.3616 8.37757 5.3616Z" fill="#EB517A"/>
<path d="M7.75043 5.0832C7.81671 5.0832 7.87043 5.02947 7.87043 4.9632C7.87043 4.89692 7.81671 4.8432 7.75043 4.8432C7.68416 4.8432 7.63043 4.89692 7.63043 4.9632C7.63043 5.02947 7.68416 5.0832 7.75043 5.0832Z" fill="#EB517A"/>
<path d="M7.77442 5.4704C7.84069 5.4704 7.89442 5.41667 7.89442 5.3504C7.89442 5.28412 7.84069 5.2304 7.77442 5.2304C7.70814 5.2304 7.65442 5.28412 7.65442 5.3504C7.65442 5.41667 7.70814 5.4704 7.77442 5.4704Z" fill="#EB517A"/>
<path d="M8.11359 5.6672C8.17987 5.6672 8.23359 5.61347 8.23359 5.5472C8.23359 5.48093 8.17987 5.4272 8.11359 5.4272C8.04732 5.4272 7.99359 5.48093 7.99359 5.5472C7.99359 5.61347 8.04732 5.6672 8.11359 5.6672Z" fill="#EB517A"/>
<path d="M8.1233 5.12C8.18957 5.12 8.2433 5.06628 8.2433 5C8.2433 4.93373 8.18957 4.88 8.1233 4.88C8.05702 4.88 8.0033 4.93373 8.0033 5C8.0033 5.06628 8.05702 5.12 8.1233 5.12Z" fill="#EB517A"/>
<path d="M8.94239 9.35201C8.81439 9.32001 8.64958 9.53921 8.57598 9.8384C8.50238 10.1392 8.54718 10.408 8.67678 10.44C8.80479 10.472 8.96959 10.2528 9.04319 9.9536C9.11679 9.6528 9.07199 9.38241 8.94239 9.35201Z" fill="#EB517A"/>
<path d="M9.66397 10.104C9.73757 9.8032 9.69277 9.5344 9.56317 9.5024C9.43517 9.4704 9.27037 9.6896 9.19677 9.9888C9.12317 10.2896 9.16797 10.5584 9.29757 10.5904C9.42717 10.6224 9.59197 10.4048 9.66397 10.104Z" fill="#EB517A"/>
<path d="M5.8 7.4368C5.7072 7.3424 5.45281 7.4416 5.23201 7.6592C5.01121 7.8768 4.90881 8.128 5.00161 8.2224C5.09441 8.3168 5.34881 8.2176 5.56961 8C5.7888 7.7824 5.8928 7.5312 5.8 7.4368Z" fill="#EB517A"/>
<path d="M6.24794 7.8928C6.15514 7.7984 5.90074 7.8976 5.67994 8.1152C5.45914 8.3328 5.35674 8.584 5.44954 8.6784C5.54234 8.7728 5.79674 8.6736 6.01754 8.456C6.23834 8.24 6.34074 7.9872 6.24794 7.8928Z" fill="#EB517A"/>
<path d="M10.0288 8.04799C10.0951 8.04799 10.1488 7.99427 10.1488 7.92799C10.1488 7.86172 10.0951 7.80799 10.0288 7.80799C9.96254 7.80799 9.90881 7.86172 9.90881 7.92799C9.90881 7.99427 9.96254 8.04799 10.0288 8.04799Z" fill="#EB517A"/>
<path d="M9.48639 8.24C9.55267 8.24 9.60639 8.18627 9.60639 8.12C9.60639 8.05373 9.55267 8 9.48639 8C9.42012 8 9.36639 8.05373 9.36639 8.12C9.36639 8.18627 9.42012 8.24 9.48639 8.24Z" fill="#EB517A"/>
<path d="M7.26722 8.6544C7.33349 8.6544 7.38722 8.60067 7.38722 8.5344C7.38722 8.46813 7.33349 8.4144 7.26722 8.4144C7.20094 8.4144 7.14722 8.46813 7.14722 8.5344C7.14722 8.60067 7.20094 8.6544 7.26722 8.6544Z" fill="#EB517A"/>
<path d="M9.82081 8.592C9.88708 8.592 9.94081 8.53828 9.94081 8.472C9.94081 8.40573 9.88708 8.352 9.82081 8.352C9.75453 8.352 9.70081 8.40573 9.70081 8.472C9.70081 8.53828 9.75453 8.592 9.82081 8.592Z" fill="#EB517A"/>
<path d="M9.70081 7.8128C9.76708 7.8128 9.82081 7.75907 9.82081 7.6928C9.82081 7.62653 9.76708 7.5728 9.70081 7.5728C9.63454 7.5728 9.58081 7.62653 9.58081 7.6928C9.58081 7.75907 9.63454 7.8128 9.70081 7.8128Z" fill="#EB517A"/>
<path d="M10.1312 9.5008C10.1974 9.5008 10.2512 9.44707 10.2512 9.3808C10.2512 9.31452 10.1974 9.2608 10.1312 9.2608C10.0649 9.2608 10.0112 9.31452 10.0112 9.3808C10.0112 9.44707 10.0649 9.5008 10.1312 9.5008Z" fill="#EB517A"/>
<path d="M9.48639 9.2608C9.55267 9.2608 9.60639 9.20707 9.60639 9.1408C9.60639 9.07452 9.55267 9.0208 9.48639 9.0208C9.42012 9.0208 9.36639 9.07452 9.36639 9.1408C9.36639 9.20707 9.42012 9.2608 9.48639 9.2608Z" fill="#EB517A"/>
<path d="M8.73757 8.7024C8.67517 8.68 8.60637 8.7136 8.58557 8.776C8.56317 8.8384 8.59677 8.9072 8.65917 8.928C8.72157 8.9504 8.79037 8.9168 8.81117 8.8544C8.83357 8.792 8.79997 8.7232 8.73757 8.7024Z" fill="#EB517A"/>
<path d="M9.34078 8.5824C9.27838 8.56 9.20958 8.5936 9.18878 8.656C9.16638 8.7184 9.19998 8.7872 9.26238 8.808C9.32478 8.8304 9.39358 8.7968 9.41438 8.7344C9.43518 8.672 9.40318 8.6032 9.34078 8.5824Z" fill="#EB517A"/>
<path d="M10.5856 8.8832C10.5233 8.86079 10.4545 8.8944 10.4337 8.9568C10.4113 9.0192 10.4449 9.088 10.5073 9.1088C10.5696 9.1312 10.6384 9.0976 10.6592 9.0352C10.6816 8.9728 10.648 8.904 10.5856 8.8832Z" fill="#EB517A"/>
<path d="M7.18567 7.656C7.12327 7.6336 7.05447 7.6672 7.03367 7.7296C7.01287 7.792 7.04487 7.8608 7.10727 7.8816C7.16967 7.904 7.23847 7.8704 7.25927 7.808C7.28167 7.7456 7.24967 7.6784 7.18567 7.656Z" fill="#EB517A"/>
<path d="M10.0288 9.0544C10.0951 9.0544 10.1488 9.00068 10.1488 8.9344C10.1488 8.86813 10.0951 8.8144 10.0288 8.8144C9.96254 8.8144 9.90881 8.86813 9.90881 8.9344C9.90881 9.00068 9.96254 9.0544 10.0288 9.0544Z" fill="#EB517A"/>
<path d="M8.25764 8.4512C8.32391 8.4512 8.37764 8.39748 8.37764 8.3312C8.37764 8.26493 8.32391 8.2112 8.25764 8.2112C8.19136 8.2112 8.13763 8.26493 8.13763 8.3312C8.13763 8.39748 8.19136 8.4512 8.25764 8.4512Z" fill="#EB517A"/>
<path d="M6.84162 8.1488C6.90789 8.1488 6.96162 8.09507 6.96162 8.0288C6.96162 7.96252 6.90789 7.9088 6.84162 7.9088C6.77534 7.9088 6.72162 7.96252 6.72162 8.0288C6.72162 8.09507 6.77534 8.1488 6.84162 8.1488Z" fill="#EB517A"/>
<path d="M11.8972 11.3083L11.8973 11.3084C11.9796 11.5785 11.943 11.8558 11.847 12.1156C11.7511 12.3751 11.5937 12.6232 11.425 12.8405C11.0875 13.2752 10.6928 13.6018 10.6107 13.6693L10.6099 13.6699C9.72232 14.3839 8.85493 14.4808 8.04204 14.5717L8.03032 14.573L8.03002 14.573C7.4259 14.6387 6.86721 14.7064 6.30481 14.9946L6.25631 15.0194L6.20914 14.9922L5.88274 14.8034L5.73438 14.7175L5.88209 14.6306C6.59867 14.2089 7.30676 14.1293 7.97297 14.0558C8.77923 13.9662 9.51408 13.883 10.2846 13.2644C10.5194 13.0758 10.8469 12.7618 11.0909 12.4206C11.2128 12.2501 11.3115 12.0761 11.3684 11.9104C11.4254 11.7445 11.4382 11.5939 11.3987 11.4643L11.4944 11.4352M11.8972 11.3083L4.28053 7.65533C4.80514 8.28231 5.52153 9.13849 6.65281 9.7984L6.60136 9.88415L6.60242 9.88478L6.60243 9.88477L6.60955 9.88891L6.61474 9.89189C6.61574 9.89249 6.61636 9.89287 6.61668 9.89308L6.62184 9.89721L6.62838 9.90099C7.87865 10.6233 9.08976 10.7957 9.96629 10.9204L9.97307 10.9214C9.97308 10.9214 9.9731 10.9214 9.97312 10.9214C10.4297 10.9866 10.7652 11.0395 11.0022 11.1229C11.2346 11.2048 11.351 11.3084 11.3988 11.4645L11.4944 11.4352M11.8972 11.3083C11.7916 10.9635 11.5402 10.7677 11.2141 10.6439C10.8962 10.5232 10.4929 10.4655 10.0596 10.4035L10.0478 10.4018L10.0476 10.4018C9.14426 10.2739 8.03199 10.1109 6.86475 9.43199C5.7965 8.80964 5.13735 8.02205 4.60155 7.38069L4.60148 7.38061L4.59385 7.37149C4.31148 7.03421 4.058 6.73143 3.79918 6.53338C3.53279 6.32955 3.24914 6.22775 2.91315 6.31264M11.8972 11.3083L4.20171 7.71697M11.4944 11.4352C11.6848 12.0608 10.8272 12.9568 10.3472 13.3424C9.55201 13.9808 8.79041 14.0656 7.98401 14.1552L11.4944 11.4352ZM4.20171 7.71697C3.91576 7.37544 3.70232 7.12708 3.51436 6.97442C3.32987 6.82458 3.1878 6.78133 3.03866 6.81861L3.03848 6.81866C2.87508 6.85919 2.70778 7.0081 2.55603 7.28399C2.40572 7.55727 2.27957 7.93966 2.19112 8.41509L2.09285 8.39681L2.19114 8.41496C2.01156 9.38719 2.30776 10.0866 2.6344 10.8552C2.91213 11.5048 3.20718 12.1958 3.14938 13.0579L3.13865 13.218L2.99966 13.1378L2.68606 12.957L2.63533 12.9278L2.63602 12.8692C2.64373 12.2085 2.41135 11.6574 2.15602 11.0584L2.15601 11.0584L2.15415 11.054C1.82355 10.2778 1.47045 9.44883 1.6809 8.31928C1.75447 7.92313 1.87306 7.47405 2.06413 7.09955C2.25428 6.72687 2.52567 6.4102 2.91315 6.31264M4.20171 7.71697L4.20173 7.717L4.20171 7.71697ZM2.91315 6.31264C2.91317 6.31263 2.91318 6.31263 2.9132 6.31263L2.93761 6.4096L2.91311 6.31265C2.91312 6.31264 2.91314 6.31264 2.91315 6.31264Z" fill="#EB517A" stroke="#EB517A" stroke-width="0.2"/>
<path d="M12.809 6.15015L12.8091 6.15042L12.8124 6.1637C12.8937 6.49301 12.9729 6.81318 12.9838 7.11215C12.995 7.41935 12.9347 7.71132 12.7306 7.97763L12.7305 7.97778C12.3015 8.53527 11.4371 8.73407 10.3406 8.59035L10.3406 8.59034L10.0734 8.55514L9.90565 8.53305L10.0059 8.39676L10.1656 8.17958C10.1656 8.17952 10.1656 8.17947 10.1657 8.17941C10.2819 8.01952 10.2851 7.80674 10.1753 7.64717C10.0307 7.43825 9.74436 7.38582 9.53557 7.53007C9.39104 7.63135 9.31753 7.80304 9.34522 7.97972L9.38681 8.24363L9.41295 8.40957L9.25462 8.35345L9.00194 8.2639L12.809 6.15015ZM12.809 6.15015C12.6413 5.47901 12.4387 4.66109 12.6374 3.63012L12.6374 3.6301C12.7407 3.09319 12.9413 2.57081 13.2306 2.06917L13.2806 1.98262L13.1941 1.93262L12.9173 1.77262L12.8307 1.72259L12.7807 1.80915C12.4619 2.36044 12.2417 2.93571 12.1274 3.53311C11.9069 4.67331 12.1269 5.56132 12.3009 6.26383L12.3046 6.27845L12.3046 6.2786C12.3853 6.60237 12.4512 6.86829 12.4644 7.09831C12.4773 7.32402 12.4385 7.50453 12.3176 7.66217M12.809 6.15015L12.3176 7.66217M12.3176 7.66217C12.0704 7.98225 11.5235 8.15435 10.7534 8.1091C10.8079 7.85202 10.7571 7.5781 10.6024 7.35297L10.6022 7.35257C10.4528 7.13742 10.2297 6.99271 9.97127 6.94637M12.3176 7.66217L6.9442 2.77968C7.64121 2.60863 8.48915 2.39842 9.30642 1.70304L9.30648 1.70299C9.72252 1.34951 10.0753 0.917118 10.3645 0.412672L10.4144 0.325599L10.5013 0.375825L10.7781 0.535825L10.8642 0.585638L10.8148 0.672044C10.4975 1.22692 10.1063 1.7065 9.64406 2.10014L9.64406 2.10014C8.73024 2.87827 7.80081 3.10649 7.06863 3.28593C6.73998 3.36668 6.46997 3.43332 6.259 3.52975C6.05184 3.62444 5.91269 3.74306 5.83598 3.92251L5.83597 3.92253C5.76237 4.09461 5.75577 4.3271 5.8237 4.60395C5.89131 4.87951 6.03077 5.19031 6.23697 5.51136C6.64931 6.15337 7.32186 6.82595 8.19084 7.3278L8.19118 7.328C8.39574 7.44722 8.61737 7.55509 8.85217 7.6525C8.91097 7.43334 9.04541 7.23861 9.23924 7.10489C9.45344 6.95517 9.7155 6.90022 9.97127 6.94637M9.97127 6.94637C9.97131 6.94638 9.97135 6.94638 9.97139 6.94639L9.95362 7.0448L9.97127 6.94637ZM7.93098 7.77629L7.93087 7.77623C7.12052 7.30888 6.35522 6.599 5.85254 5.85984C5.35443 5.1274 5.09398 4.33457 5.35766 3.71753C5.35765 3.71755 5.35765 3.71756 5.35765 3.71757L7.93098 7.77629ZM7.93098 7.77629C8.25656 7.9635 8.61571 8.12757 9.00182 8.26385L7.93098 7.77629ZM6.94419 2.77968L6.93867 2.78104C6.60101 2.86387 6.27267 2.94442 5.99892 3.07746C5.71975 3.21313 5.49035 3.40649 5.35767 3.7175L6.94419 2.77968Z" fill="#EB517A" stroke="#EB517A" stroke-width="0.2"/>
</svg>

