<svg width="16" height="16" viewBox="0 0 16 16" fill="none" xmlns="http://www.w3.org/2000/svg">
<path fill-rule="evenodd" clip-rule="evenodd" d="M4.79243 6.61816C5.0329 6.68882 5.06015 6.72541 5.12067 6.95622L5.7434 10.0347L7.71663 1.06204C7.71663 1.06204 7.81374 0.790836 8.03251 0.733965C8.28074 0.669331 8.54482 0.862915 8.57682 1.12699L9.34942 12.909L10.6928 9.57278C10.6928 9.57278 10.8116 9.31519 11.0969 9.29983H15.1287C15.5812 9.32517 15.7843 10.1342 15.1287 10.1711H11.3911L9.44383 15.0072C9.44383 15.0072 9.3209 15.2366 9.11686 15.2732C8.8756 15.3166 8.63544 15.1218 8.60502 14.8731L7.90831 4.24715L6.151 12.2376C6.151 12.2376 5.99987 12.582 5.72185 12.5797C5.52304 12.5781 5.35005 12.4273 5.29857 12.2305L4.48874 8.22656L3.44368 9.96042C3.44368 9.96042 3.32661 10.1564 3.07045 10.1711H0.871319C0.342052 10.1413 0.400824 9.83876 0.446606 9.63852C0.490329 9.44699 0.672982 9.31091 0.871319 9.29983H2.82443L4.32067 6.81761C4.32067 6.81761 4.47211 6.56272 4.79243 6.61816Z" fill="#EB517A"/>
</svg>
